M48
; DRILL file {KiCad 9.0.7} date 2026-03-29T22:08:39+0200
; FORMAT={-:-/ absolute / metric / decimal}
; #@! TF.CreationDate,2026-03-29T22:08:39+02:00
; #@! TF.GenerationSoftware,Kicad,Pcbnew,9.0.7
; #@! TF.FileFunction,Plated,1,2,PTH
FMAT,2
METRIC
; #@! TA.AperFunction,Plated,PTH,ViaDrill
T1C0.400
; #@! TA.AperFunction,Plated,PTH,ViaDrill
T2C0.600
; #@! TA.AperFunction,Plated,PTH,ComponentDrill
T3C0.800
; #@! TA.AperFunction,Plated,PTH,ComponentDrill
T4C1.000
%
G90
G05
T1
X104.14Y-80.518
X105.156Y-80.518
X112.268Y-60.96
X118.11Y-61.214
X119.38Y-58.928
X121.793Y-94.234
X122.682Y-93.472
X123.571Y-91.985
X127.762Y-62.865
X129.54Y-95.25
X132.588Y-60.415
X133.604Y-62.738
X136.398Y-92.71
X140.97Y-80.01
X140.97Y-81.28
X142.24Y-88.175
X146.05Y-37.084
X146.05Y-78.74
X147.066Y-80.772
X147.32Y-88.646
X148.59Y-36.322
X148.59Y-50.8
X148.849Y-88.552
X149.86Y-96.025
X151.13Y-53.213
X154.178Y-72.136
X154.94Y-61.087
X156.718Y-92.202
X157.988Y-72.898
X159.004Y-73.697
X160.02Y-74.422
X160.269Y-60.701
X161.29Y-60.706
X161.303Y-61.719
X162.052Y-80.367
X163.068Y-62.484
X163.068Y-72.136
X163.068Y-80.367
X163.195Y-82.042
X164.338Y-58.276
X165.1Y-70.358
X167.386Y-49.657
X167.386Y-66.04
X167.64Y-79.248
X168.91Y-77.978
X168.91Y-86.868
X168.91Y-96.012
X170.18Y-95.25
X170.688Y-72.898
X170.688Y-86.614
X171.196Y-71.628
X172.495Y-70.575
X172.72Y-86.614
X172.72Y-88.138
X174.538Y-74.402
X174.752Y-71.628
X175.26Y-51.562
X175.26Y-59.547
X175.768Y-72.898
X175.895Y-41.275
X176.53Y-45.466
X177.8Y-45.466
X177.8Y-50.292
X177.8Y-60.997
X177.8Y-96.012
X179.07Y-71.501
X179.214Y-42.455
X179.324Y-38.1
X179.324Y-39.624
X180.333Y-65.534
X180.34Y-45.466
X180.34Y-73.303
X181.61Y-60.272
X182.155Y-95.431
X182.88Y-45.466
X182.88Y-71.501
X182.88Y-80.518
X182.88Y-96.301
X183.908Y-66.805
X185.42Y-45.466
X185.42Y-78.777
X185.488Y-71.545
X187.415Y-80.264
X187.96Y-38.391
X189.23Y-37.338
X189.23Y-77.47
X189.357Y-81.28
X189.484Y-50.038
X190.5Y-39.19
X190.5Y-57.472
X190.572Y-80.065
X190.754Y-50.038
X191.262Y-65.786
X191.77Y-61.177
X193.04Y-39.915
X193.04Y-49.911
X194.818Y-57.912
X195.58Y-40.64
X195.707Y-53.34
X195.834Y-70.82
X195.834Y-73.279
X196.596Y-37.846
X196.596Y-44.704
X196.93Y-52.89
X197.358Y-41.021
X197.612Y-79.248
X197.803Y-53.547
X198.607Y-58.085
X198.628Y-62.484
X199.009Y-39.551
X199.39Y-54.102
X199.403Y-53.089
X199.41Y-51.046
X199.421Y-52.082
X199.644Y-79.121
X199.644Y-82.296
X199.898Y-60.452
X199.935Y-71.628
X200.152Y-58.061
X200.66Y-74.93
X200.66Y-77.978
X200.914Y-67.564
X201.676Y-63.246
X201.93Y-39.37
X201.93Y-81.28
X202.692Y-64.045
X203.2Y-40.095
X203.471Y-60.188
X204.275Y-75.337
X204.47Y-58.42
X204.47Y-86.905
X204.978Y-60.198
X207.01Y-87.63
X208.534Y-75.333
X208.783Y-55.113
X208.926Y-57.521
X208.926Y-58.546
X208.926Y-59.546
X208.926Y-60.546
X209.042Y-70.104
X209.042Y-73.152
X209.55Y-74.639
X213.36Y-73.152
X213.614Y-37.846
X214.435Y-44.54
X214.67Y-37.859
X215.16Y-45.72
X215.392Y-70.866
X215.683Y-37.846
X215.9Y-41.636
X215.9Y-43.18
X215.9Y-44.958
X215.982Y-73.369
X215.99Y-70.034
X216.916Y-72.607
X217.17Y-37.846
X217.678Y-46.736
X218.456Y-56.912
X219.207Y-70.363
X220.731Y-70.363
X222.85Y-40.603
X223.52Y-38.608
X223.774Y-90.17
X224.536Y-98.552
X224.755Y-66.828
X224.79Y-90.17
X226.06Y-38.608
X227.33Y-40.64
X227.33Y-67.564
X227.33Y-74.928
X228.6Y-42.418
X228.6Y-60.325
X228.694Y-85.041
X228.694Y-86.041
X229.362Y-57.404
X230.632Y-77.978
X231.14Y-41.656
X231.14Y-60.325
X231.394Y-77.216
X231.394Y-94.488
X232.156Y-76.454
X232.41Y-90.678
X233.209Y-93.943
X233.68Y-40.894
X233.68Y-60.325
X233.934Y-84.328
X234.008Y-94.668
X234.248Y-77.806
X235.212Y-74.203
X235.937Y-73.369
X236.22Y-40.132
X236.22Y-60.325
X236.671Y-72.644
X237.744Y-96.012
X238.76Y-39.335
X238.76Y-51.816
X239.638Y-80.273
X240.03Y-78.613
X241.3Y-64.262
X241.3Y-77.216
X241.554Y-93.943
X242.316Y-73.914
X242.57Y-58.928
X242.824Y-91.948
X244.602Y-76.2
X247.26Y-97.4
X247.65Y-39.37
X247.65Y-85.09
X250.19Y-40.169
X252.73Y-38.1
X252.73Y-40.895
X255.34Y-41.62
X255.874Y-61.685
X255.905Y-59.784
X257.81Y-42.418
X258.572Y-81.026
X258.572Y-91.948
X260.35Y-72.898
X261.62Y-54.864
X264.16Y-58.51
X265.395Y-83.347
X267.425Y-73.406
X268.034Y-58.61
X268.605Y-70.866
X269.875Y-93.98
X273.812Y-98.044
X274.701Y-83.312
X279.4Y-95.82
X282.575Y-67.31
X282.82Y-99.577
X285.369Y-99.568
X293.37Y-74.93
X293.37Y-77.47
T2
X158.115Y-63.898
X158.115Y-65.405
X224.282Y-83.566
X225.806Y-83.566
T3
X99.06Y-58.46
X99.06Y-63.46
X99.06Y-85.13
X99.06Y-90.13
X102.87Y-54.61
X102.87Y-57.15
X102.87Y-64.77
X102.87Y-83.82
X102.87Y-91.44
X105.41Y-54.61
X105.41Y-57.15
X105.41Y-64.77
X105.41Y-83.82
X105.41Y-91.44
X107.95Y-44.45
X107.95Y-52.07
X107.95Y-54.61
X107.95Y-57.15
X107.95Y-64.77
X107.95Y-83.82
X107.95Y-91.44
X107.99Y-71.12
X107.99Y-76.2
X107.99Y-80.01
X110.49Y-44.45
X110.49Y-52.07
X110.49Y-54.61
X110.49Y-57.15
X110.49Y-64.77
X110.49Y-83.82
X110.49Y-91.44
X112.99Y-71.12
X112.99Y-76.2
X112.99Y-80.01
X113.03Y-44.45
X113.03Y-52.07
X113.03Y-54.61
X113.03Y-57.15
X113.03Y-64.77
X113.03Y-83.82
X113.03Y-91.44
X115.57Y-44.45
X115.57Y-52.07
X115.57Y-54.61
X115.57Y-57.15
X115.57Y-64.77
X115.57Y-83.82
X115.57Y-91.44
X116.84Y-68.58
X116.84Y-81.28
X118.11Y-44.45
X118.11Y-52.07
X118.11Y-54.61
X118.11Y-57.15
X118.11Y-64.77
X118.11Y-83.82
X118.11Y-91.44
X120.65Y-44.45
X120.65Y-52.07
X120.65Y-54.61
X120.65Y-57.15
X120.65Y-64.77
X120.65Y-68.58
X120.65Y-81.28
X123.19Y-44.45
X123.19Y-52.07
X123.19Y-54.61
X123.19Y-57.15
X123.19Y-64.77
X125.73Y-44.45
X125.73Y-52.07
X125.73Y-54.61
X125.73Y-57.15
X125.73Y-64.77
X125.73Y-68.58
X125.73Y-81.28
X130.81Y-68.58
X130.81Y-81.28
X134.62Y-49.61
X134.62Y-54.61
X134.62Y-69.89
X134.62Y-74.89
X134.62Y-85.725
X134.62Y-90.725
X138.43Y-48.26
X138.43Y-55.88
X138.43Y-60.96
X138.43Y-68.58
X138.43Y-76.2
X138.43Y-83.82
X138.43Y-91.44
X139.7Y-34.33
X139.7Y-39.33
X140.97Y-48.26
X140.97Y-55.88
X140.97Y-68.58
X140.97Y-76.2
X140.97Y-83.82
X140.97Y-91.44
X143.51Y-33.02
X143.51Y-40.64
X143.51Y-48.26
X143.51Y-55.88
X143.51Y-68.58
X143.51Y-76.2
X143.51Y-83.82
X143.51Y-91.44
X146.05Y-33.02
X146.05Y-40.64
X146.05Y-48.26
X146.05Y-55.88
X146.05Y-68.58
X146.05Y-76.2
X146.05Y-83.82
X146.05Y-91.44
X148.59Y-33.02
X148.59Y-40.64
X148.59Y-48.26
X148.59Y-55.88
X148.59Y-68.58
X148.59Y-76.2
X148.59Y-83.82
X148.59Y-91.44
X151.13Y-33.02
X151.13Y-40.64
X151.13Y-48.26
X151.13Y-55.88
X151.13Y-60.96
X151.13Y-68.58
X151.13Y-76.2
X151.13Y-83.82
X151.13Y-91.44
X153.67Y-33.02
X153.67Y-40.64
X153.67Y-48.26
X153.67Y-55.88
X153.67Y-68.58
X153.67Y-76.2
X153.67Y-83.82
X153.67Y-91.44
X156.21Y-33.02
X156.21Y-40.64
X156.21Y-68.58
X156.21Y-76.2
X158.75Y-33.02
X158.75Y-40.64
X161.29Y-33.02
X161.29Y-40.64
X161.29Y-53.34
X161.29Y-66.04
X161.925Y-85.13
X161.925Y-90.13
X165.1Y-53.34
X165.1Y-66.04
X165.1Y-83.82
X165.1Y-91.44
X167.64Y-83.82
X167.64Y-91.44
X168.91Y-38.1
X168.91Y-43.1
X168.91Y-57.15
X168.91Y-62.15
X168.91Y-69.85
X168.91Y-74.85
X170.18Y-83.82
X170.18Y-91.44
X172.72Y-33.02
X172.72Y-48.26
X172.72Y-55.88
X172.72Y-63.5
X172.72Y-68.58
X172.72Y-76.2
X172.72Y-83.82
X172.72Y-91.44
X175.26Y-33.02
X175.26Y-48.26
X175.26Y-55.88
X175.26Y-63.5
X175.26Y-68.58
X175.26Y-76.2
X175.26Y-83.82
X175.26Y-91.44
X177.8Y-33.02
X177.8Y-48.26
X177.8Y-55.88
X177.8Y-63.5
X177.8Y-68.58
X177.8Y-76.2
X177.8Y-83.82
X177.8Y-91.44
X180.34Y-33.02
X180.34Y-48.26
X180.34Y-55.88
X180.34Y-63.5
X180.34Y-68.58
X180.34Y-76.2
X180.34Y-83.82
X180.34Y-91.44
X182.88Y-33.02
X182.88Y-48.26
X182.88Y-55.88
X182.88Y-63.5
X182.88Y-68.58
X182.88Y-76.2
X182.88Y-83.82
X182.88Y-91.44
X185.42Y-33.02
X185.42Y-48.26
X185.42Y-55.88
X185.42Y-63.5
X185.42Y-68.58
X185.42Y-76.2
X185.42Y-83.82
X185.42Y-91.44
X187.96Y-33.02
X187.96Y-48.26
X187.96Y-55.88
X187.96Y-63.5
X187.96Y-68.58
X187.96Y-76.2
X187.96Y-83.82
X187.96Y-91.44
X190.5Y-33.02
X190.5Y-48.26
X190.5Y-55.88
X190.5Y-63.5
X190.5Y-68.58
X190.5Y-76.2
X193.04Y-33.02
X193.04Y-48.26
X193.04Y-55.88
X193.04Y-63.5
X193.04Y-68.58
X193.04Y-76.2
X194.31Y-85.13
X194.31Y-90.13
X195.58Y-33.02
X195.58Y-48.26
X195.58Y-55.88
X195.58Y-63.5
X195.58Y-68.58
X195.58Y-76.2
X198.12Y-33.02
X198.12Y-48.26
X198.12Y-83.82
X198.12Y-91.44
X200.66Y-33.02
X200.66Y-48.26
X200.66Y-83.82
X200.66Y-91.44
X203.2Y-33.02
X203.2Y-48.26
X203.2Y-80.01
X203.2Y-83.82
X203.2Y-91.44
X205.74Y-33.02
X205.74Y-48.26
X205.74Y-80.01
X205.74Y-83.82
X205.74Y-91.44
X208.28Y-80.01
X208.28Y-83.82
X208.28Y-91.44
X210.82Y-80.01
X210.82Y-83.82
X210.82Y-91.44
X213.36Y-80.01
X213.36Y-83.82
X213.36Y-91.44
X215.9Y-80.01
X215.9Y-83.82
X215.9Y-91.44
X218.44Y-80.01
X218.44Y-83.82
X218.44Y-91.44
X219.71Y-38.1
X219.71Y-43.1
X219.71Y-61.0
X219.71Y-66.0
X220.98Y-80.01
X220.98Y-83.82
X220.98Y-91.44
X223.52Y-33.02
X223.52Y-48.26
X223.52Y-55.88
X223.52Y-71.12
X223.52Y-80.01
X226.06Y-33.02
X226.06Y-48.26
X226.06Y-55.88
X226.06Y-71.12
X226.06Y-80.01
X228.6Y-33.02
X228.6Y-48.26
X228.6Y-55.88
X228.6Y-71.12
X231.14Y-33.02
X231.14Y-48.26
X231.14Y-55.88
X231.14Y-71.12
X233.68Y-33.02
X233.68Y-48.26
X233.68Y-55.88
X233.68Y-71.12
X236.22Y-33.02
X236.22Y-48.26
X236.22Y-55.88
X236.22Y-71.12
X238.125Y-82.55
X238.125Y-87.55
X238.76Y-33.02
X238.76Y-48.26
X238.76Y-55.88
X238.76Y-71.12
X238.76Y-76.2
X241.3Y-33.02
X241.3Y-48.26
X241.3Y-55.88
X241.3Y-71.12
X241.3Y-81.28
X241.3Y-88.9
X243.84Y-33.02
X243.84Y-48.26
X243.84Y-55.88
X243.84Y-71.12
X243.84Y-81.28
X243.84Y-88.9
X245.11Y-93.98
X246.38Y-33.02
X246.38Y-48.26
X246.38Y-55.88
X246.38Y-71.12
X246.38Y-81.28
X246.38Y-88.9
X248.92Y-33.02
X248.92Y-48.26
X248.92Y-55.88
X248.92Y-71.12
X248.92Y-81.28
X248.92Y-88.9
X248.92Y-97.79
X251.46Y-33.02
X251.46Y-48.26
X251.46Y-55.88
X251.46Y-71.12
X251.46Y-76.2
X251.46Y-81.28
X251.46Y-88.9
X254.0Y-33.02
X254.0Y-48.26
X254.0Y-55.88
X254.0Y-71.12
X254.0Y-81.28
X254.0Y-88.9
X256.54Y-33.02
X256.54Y-48.26
X256.54Y-55.88
X256.54Y-71.12
X256.54Y-81.28
X256.54Y-88.9
X257.81Y-93.98
X259.08Y-33.02
X259.08Y-48.26
X260.35Y-66.08
X260.35Y-71.08
X260.985Y-82.55
X260.985Y-87.55
X261.62Y-33.02
X261.62Y-48.26
X261.62Y-97.79
X264.16Y-33.02
X264.16Y-48.26
X264.16Y-53.34
X264.16Y-55.88
X264.16Y-63.5
X264.16Y-66.04
X264.16Y-68.58
X264.16Y-76.2
X264.16Y-78.74
X264.16Y-81.28
X264.16Y-88.9
X264.16Y-93.98
X264.16Y-97.79
X266.7Y-33.02
X266.7Y-48.26
X266.7Y-55.88
X266.7Y-63.5
X266.7Y-68.58
X266.7Y-76.2
X266.7Y-81.28
X266.7Y-88.9
X269.16Y-53.34
X269.16Y-66.04
X269.16Y-78.74
X269.24Y-33.02
X269.24Y-48.26
X269.24Y-55.88
X269.24Y-63.5
X269.24Y-68.58
X269.24Y-76.2
X269.24Y-81.28
X269.24Y-88.9
X271.78Y-33.02
X271.78Y-48.26
X271.78Y-55.88
X271.78Y-63.5
X271.78Y-68.58
X271.78Y-76.2
X271.78Y-81.28
X271.78Y-88.9
X274.32Y-55.88
X274.32Y-63.5
X274.32Y-68.58
X274.32Y-76.2
X274.32Y-81.28
X274.32Y-88.9
X276.86Y-55.88
X276.86Y-63.5
X276.86Y-68.58
X276.86Y-76.2
X276.86Y-81.28
X276.86Y-88.9
X276.86Y-93.98
X276.86Y-97.79
X279.4Y-33.02
X279.4Y-55.88
X279.4Y-63.5
X279.4Y-68.58
X279.4Y-76.2
X279.4Y-81.28
X279.4Y-88.9
X283.21Y-91.44
X283.21Y-96.44
X285.75Y-91.52
X285.75Y-96.52
X292.1Y-33.02
X294.64Y-81.28
X294.64Y-88.9
X294.64Y-92.685
X294.64Y-95.185
T4
X107.95Y-49.53
X110.49Y-49.53
X113.03Y-49.53
X115.57Y-49.53
X118.11Y-49.53
X120.65Y-49.53
X123.19Y-49.53
X125.73Y-49.53
X287.02Y-48.26
X287.02Y-50.8
X287.02Y-53.34
X287.02Y-55.88
X287.02Y-58.42
X287.02Y-60.96
X287.02Y-63.5
X287.02Y-66.04
X287.02Y-68.58
X287.02Y-71.12
X287.02Y-73.66
X287.02Y-76.2
X287.02Y-78.74
X289.56Y-48.26
X289.56Y-50.8
X289.56Y-53.34
X289.56Y-55.88
X289.56Y-58.42
X289.56Y-60.96
X289.56Y-63.5
X289.56Y-66.04
X289.56Y-68.58
X289.56Y-71.12
X289.56Y-73.66
X289.56Y-76.2
X289.56Y-78.74
M30
