G04 #@! TF.GenerationSoftware,KiCad,Pcbnew,9.0.7*
G04 #@! TF.CreationDate,2026-03-29T22:08:35+02:00*
G04 #@! TF.ProjectId,Apple2Card,4170706c-6532-4436-9172-642e6b696361,rev?*
G04 #@! TF.SameCoordinates,Original*
G04 #@! TF.FileFunction,Copper,L1,Top*
G04 #@! TF.FilePolarity,Positive*
%FSLAX46Y46*%
G04 Gerber Fmt 4.6, Leading zero omitted, Abs format (unit mm)*
G04 Created by KiCad (PCBNEW 9.0.7) date 2026-03-29 22:08:35*
%MOMM*%
%LPD*%
G01*
G04 APERTURE LIST*
G04 Aperture macros list*
%AMRoundRect*
0 Rectangle with rounded corners*
0 $1 Rounding radius*
0 $2 $3 $4 $5 $6 $7 $8 $9 X,Y pos of 4 corners*
0 Add a 4 corners polygon primitive as box body*
4,1,4,$2,$3,$4,$5,$6,$7,$8,$9,$2,$3,0*
0 Add four circle primitives for the rounded corners*
1,1,$1+$1,$2,$3*
1,1,$1+$1,$4,$5*
1,1,$1+$1,$6,$7*
1,1,$1+$1,$8,$9*
0 Add four rect primitives between the rounded corners*
20,1,$1+$1,$2,$3,$4,$5,0*
20,1,$1+$1,$4,$5,$6,$7,0*
20,1,$1+$1,$6,$7,$8,$9,0*
20,1,$1+$1,$8,$9,$2,$3,0*%
G04 Aperture macros list end*
G04 #@! TA.AperFunction,ComponentPad*
%ADD10C,1.600000*%
G04 #@! TD*
G04 #@! TA.AperFunction,ComponentPad*
%ADD11RoundRect,0.250000X0.550000X-0.550000X0.550000X0.550000X-0.550000X0.550000X-0.550000X-0.550000X0*%
G04 #@! TD*
G04 #@! TA.AperFunction,ComponentPad*
%ADD12RoundRect,0.250000X-0.600000X-0.600000X0.600000X-0.600000X0.600000X0.600000X-0.600000X0.600000X0*%
G04 #@! TD*
G04 #@! TA.AperFunction,ComponentPad*
%ADD13C,1.700000*%
G04 #@! TD*
G04 #@! TA.AperFunction,ComponentPad*
%ADD14R,1.600000X1.600000*%
G04 #@! TD*
G04 #@! TA.AperFunction,SMDPad,CuDef*
%ADD15R,1.270000X8.530000*%
G04 #@! TD*
G04 #@! TA.AperFunction,SMDPad,CuDef*
%ADD16R,1.910000X8.530000*%
G04 #@! TD*
G04 #@! TA.AperFunction,ComponentPad*
%ADD17RoundRect,0.250000X-0.550000X0.550000X-0.550000X-0.550000X0.550000X-0.550000X0.550000X0.550000X0*%
G04 #@! TD*
G04 #@! TA.AperFunction,ComponentPad*
%ADD18R,1.700000X1.700000*%
G04 #@! TD*
G04 #@! TA.AperFunction,ViaPad*
%ADD19C,0.800000*%
G04 #@! TD*
G04 #@! TA.AperFunction,ViaPad*
%ADD20C,1.000000*%
G04 #@! TD*
G04 #@! TA.AperFunction,Conductor*
%ADD21C,0.250000*%
G04 #@! TD*
G04 #@! TA.AperFunction,Conductor*
%ADD22C,1.270000*%
G04 #@! TD*
G04 APERTURE END LIST*
D10*
X168910000Y-57150000D03*
X168910000Y-62150000D03*
X161290000Y-66040000D03*
X161290000Y-53340000D03*
X245110000Y-93980000D03*
X257810000Y-93980000D03*
X285750000Y-96520000D03*
X285750000Y-91520000D03*
D11*
X138430000Y-55880000D03*
D10*
X140970000Y-55880000D03*
X143510000Y-55880000D03*
X146050000Y-55880000D03*
X148590000Y-55880000D03*
X151130000Y-55880000D03*
X153670000Y-55880000D03*
X153670000Y-48260000D03*
X151130000Y-48260000D03*
X148590000Y-48260000D03*
X146050000Y-48260000D03*
X143510000Y-48260000D03*
X140970000Y-48260000D03*
X138430000Y-48260000D03*
D11*
X138430000Y-76200000D03*
D10*
X140970000Y-76200000D03*
X143510000Y-76200000D03*
X146050000Y-76200000D03*
X148590000Y-76200000D03*
X151130000Y-76200000D03*
X153670000Y-76200000D03*
X156210000Y-76200000D03*
X156210000Y-68580000D03*
X153670000Y-68580000D03*
X151130000Y-68580000D03*
X148590000Y-68580000D03*
X146050000Y-68580000D03*
X143510000Y-68580000D03*
X140970000Y-68580000D03*
X138430000Y-68580000D03*
D11*
X172720000Y-76200000D03*
D10*
X175260000Y-76200000D03*
X177800000Y-76200000D03*
X180340000Y-76200000D03*
X182880000Y-76200000D03*
X185420000Y-76200000D03*
X187960000Y-76200000D03*
X190500000Y-76200000D03*
X193040000Y-76200000D03*
X195580000Y-76200000D03*
X195580000Y-68580000D03*
X193040000Y-68580000D03*
X190500000Y-68580000D03*
X187960000Y-68580000D03*
X185420000Y-68580000D03*
X182880000Y-68580000D03*
X180340000Y-68580000D03*
X177800000Y-68580000D03*
X175260000Y-68580000D03*
X172720000Y-68580000D03*
X238760000Y-76200000D03*
X251460000Y-76200000D03*
D11*
X198120000Y-91440000D03*
D10*
X200660000Y-91440000D03*
X203200000Y-91440000D03*
X205740000Y-91440000D03*
X208280000Y-91440000D03*
X210820000Y-91440000D03*
X213360000Y-91440000D03*
X215900000Y-91440000D03*
X218440000Y-91440000D03*
X220980000Y-91440000D03*
X220980000Y-83820000D03*
X218440000Y-83820000D03*
X215900000Y-83820000D03*
X213360000Y-83820000D03*
X210820000Y-83820000D03*
X208280000Y-83820000D03*
X205740000Y-83820000D03*
X203200000Y-83820000D03*
X200660000Y-83820000D03*
X198120000Y-83820000D03*
X283210000Y-91440000D03*
X283210000Y-96440000D03*
X264160000Y-78740000D03*
X269160000Y-78740000D03*
X130810000Y-68580000D03*
X130810000Y-81280000D03*
D11*
X107950000Y-52070000D03*
D10*
X110490000Y-52070000D03*
X113030000Y-52070000D03*
X115570000Y-52070000D03*
X118110000Y-52070000D03*
X120650000Y-52070000D03*
X123190000Y-52070000D03*
X125730000Y-52070000D03*
X125730000Y-44450000D03*
X123190000Y-44450000D03*
X120650000Y-44450000D03*
X118110000Y-44450000D03*
X115570000Y-44450000D03*
X113030000Y-44450000D03*
X110490000Y-44450000D03*
X107950000Y-44450000D03*
X99060000Y-58460000D03*
X99060000Y-63460000D03*
D12*
X287020000Y-48260000D03*
D13*
X287020000Y-50800000D03*
X287020000Y-53340000D03*
X287020000Y-55880000D03*
X287020000Y-58420000D03*
X287020000Y-60960000D03*
X287020000Y-63500000D03*
X287020000Y-66040000D03*
X287020000Y-68580000D03*
X287020000Y-71120000D03*
X287020000Y-73660000D03*
X287020000Y-76200000D03*
X287020000Y-78740000D03*
X289560000Y-48260000D03*
X289560000Y-50800000D03*
X289560000Y-53340000D03*
X289560000Y-55880000D03*
X289560000Y-58420000D03*
X289560000Y-60960000D03*
X289560000Y-63500000D03*
X289560000Y-66040000D03*
X289560000Y-68580000D03*
X289560000Y-71120000D03*
X289560000Y-73660000D03*
X289560000Y-76200000D03*
X289560000Y-78740000D03*
D10*
X260985000Y-82550000D03*
X260985000Y-87550000D03*
X134620000Y-69890000D03*
X134620000Y-74890000D03*
D14*
X102870000Y-54610000D03*
D10*
X105410000Y-54610000D03*
X107950000Y-54610000D03*
X110490000Y-54610000D03*
X113030000Y-54610000D03*
X115570000Y-54610000D03*
X118110000Y-54610000D03*
X120650000Y-54610000D03*
X123190000Y-54610000D03*
X125730000Y-54610000D03*
X168910000Y-69850000D03*
X168910000Y-74850000D03*
X151130000Y-60960000D03*
X138430000Y-60960000D03*
D11*
X264160000Y-63500000D03*
D10*
X266700000Y-63500000D03*
X269240000Y-63500000D03*
X271780000Y-63500000D03*
X274320000Y-63500000D03*
X276860000Y-63500000D03*
X279400000Y-63500000D03*
X279400000Y-55880000D03*
X276860000Y-55880000D03*
X274320000Y-55880000D03*
X271780000Y-55880000D03*
X269240000Y-55880000D03*
X266700000Y-55880000D03*
X264160000Y-55880000D03*
X134620000Y-49610000D03*
X134620000Y-54610000D03*
X248920000Y-97790000D03*
X261620000Y-97790000D03*
D15*
X226686000Y-104580000D03*
X229480000Y-104580000D03*
X232020000Y-104580000D03*
X234560000Y-104580000D03*
X237100000Y-104580000D03*
X239640000Y-104580000D03*
X242180000Y-104580000D03*
X244720000Y-104580000D03*
X247260000Y-104580000D03*
X249800000Y-104580000D03*
X252340000Y-104580000D03*
X254880000Y-104580000D03*
X257420000Y-104580000D03*
X259960000Y-104580000D03*
X262500000Y-104580000D03*
X265040000Y-104580000D03*
X267580000Y-104580000D03*
X270120000Y-104580000D03*
X272660000Y-104580000D03*
X275200000Y-104580000D03*
X277740000Y-104580000D03*
X280280000Y-104580000D03*
X282820000Y-104580000D03*
X285360000Y-104580000D03*
D16*
X288154000Y-104580000D03*
D11*
X172720000Y-63500000D03*
D10*
X175260000Y-63500000D03*
X177800000Y-63500000D03*
X180340000Y-63500000D03*
X182880000Y-63500000D03*
X185420000Y-63500000D03*
X187960000Y-63500000D03*
X190500000Y-63500000D03*
X193040000Y-63500000D03*
X195580000Y-63500000D03*
X195580000Y-55880000D03*
X193040000Y-55880000D03*
X190500000Y-55880000D03*
X187960000Y-55880000D03*
X185420000Y-55880000D03*
X182880000Y-55880000D03*
X180340000Y-55880000D03*
X177800000Y-55880000D03*
X175260000Y-55880000D03*
X172720000Y-55880000D03*
X276860000Y-97790000D03*
X264160000Y-97790000D03*
X120650000Y-68580000D03*
X120650000Y-81280000D03*
X194310000Y-85130000D03*
X194310000Y-90130000D03*
X116840000Y-68580000D03*
X116840000Y-81280000D03*
X107990000Y-71120000D03*
X112990000Y-71120000D03*
D11*
X102870000Y-64770000D03*
D10*
X105410000Y-64770000D03*
X107950000Y-64770000D03*
X110490000Y-64770000D03*
X113030000Y-64770000D03*
X115570000Y-64770000D03*
X118110000Y-64770000D03*
X120650000Y-64770000D03*
X123190000Y-64770000D03*
X125730000Y-64770000D03*
X125730000Y-57150000D03*
X123190000Y-57150000D03*
X120650000Y-57150000D03*
X118110000Y-57150000D03*
X115570000Y-57150000D03*
X113030000Y-57150000D03*
X110490000Y-57150000D03*
X107950000Y-57150000D03*
X105410000Y-57150000D03*
X102870000Y-57150000D03*
D11*
X223520000Y-71120000D03*
D10*
X226060000Y-71120000D03*
X228600000Y-71120000D03*
X231140000Y-71120000D03*
X233680000Y-71120000D03*
X236220000Y-71120000D03*
X238760000Y-71120000D03*
X241300000Y-71120000D03*
X243840000Y-71120000D03*
X246380000Y-71120000D03*
X248920000Y-71120000D03*
X251460000Y-71120000D03*
X254000000Y-71120000D03*
X256540000Y-71120000D03*
X256540000Y-55880000D03*
X254000000Y-55880000D03*
X251460000Y-55880000D03*
X248920000Y-55880000D03*
X246380000Y-55880000D03*
X243840000Y-55880000D03*
X241300000Y-55880000D03*
X238760000Y-55880000D03*
X236220000Y-55880000D03*
X233680000Y-55880000D03*
X231140000Y-55880000D03*
X228600000Y-55880000D03*
X226060000Y-55880000D03*
X223520000Y-55880000D03*
D11*
X264160000Y-76200000D03*
D10*
X266700000Y-76200000D03*
X269240000Y-76200000D03*
X271780000Y-76200000D03*
X274320000Y-76200000D03*
X276860000Y-76200000D03*
X279400000Y-76200000D03*
X279400000Y-68580000D03*
X276860000Y-68580000D03*
X274320000Y-68580000D03*
X271780000Y-68580000D03*
X269240000Y-68580000D03*
X266700000Y-68580000D03*
X264160000Y-68580000D03*
X165100000Y-53340000D03*
X165100000Y-66040000D03*
D11*
X264160000Y-88900000D03*
D10*
X266700000Y-88900000D03*
X269240000Y-88900000D03*
X271780000Y-88900000D03*
X274320000Y-88900000D03*
X276860000Y-88900000D03*
X279400000Y-88900000D03*
X279400000Y-81280000D03*
X276860000Y-81280000D03*
X274320000Y-81280000D03*
X271780000Y-81280000D03*
X269240000Y-81280000D03*
X266700000Y-81280000D03*
X264160000Y-81280000D03*
X238125000Y-82550000D03*
X238125000Y-87550000D03*
D17*
X294640000Y-81280000D03*
D10*
X294640000Y-88900000D03*
D11*
X102870000Y-91440000D03*
D10*
X105410000Y-91440000D03*
X107950000Y-91440000D03*
X110490000Y-91440000D03*
X113030000Y-91440000D03*
X115570000Y-91440000D03*
X118110000Y-91440000D03*
X118110000Y-83820000D03*
X115570000Y-83820000D03*
X113030000Y-83820000D03*
X110490000Y-83820000D03*
X107950000Y-83820000D03*
X105410000Y-83820000D03*
X102870000Y-83820000D03*
X107990000Y-80010000D03*
X112990000Y-80010000D03*
X264160000Y-53340000D03*
X269160000Y-53340000D03*
X134620000Y-85725000D03*
X134620000Y-90725000D03*
X125730000Y-68580000D03*
X125730000Y-81280000D03*
D18*
X107950000Y-49530000D03*
D13*
X110490000Y-49530000D03*
X113030000Y-49530000D03*
X115570000Y-49530000D03*
X118110000Y-49530000D03*
X120650000Y-49530000D03*
X123190000Y-49530000D03*
X125730000Y-49530000D03*
D11*
X241300000Y-88900000D03*
D10*
X243840000Y-88900000D03*
X246380000Y-88900000D03*
X248920000Y-88900000D03*
X251460000Y-88900000D03*
X254000000Y-88900000D03*
X256540000Y-88900000D03*
X256540000Y-81280000D03*
X254000000Y-81280000D03*
X251460000Y-81280000D03*
X248920000Y-81280000D03*
X246380000Y-81280000D03*
X243840000Y-81280000D03*
X241300000Y-81280000D03*
X107990000Y-76200000D03*
X112990000Y-76200000D03*
D11*
X172720000Y-48260000D03*
D10*
X175260000Y-48260000D03*
X177800000Y-48260000D03*
X180340000Y-48260000D03*
X182880000Y-48260000D03*
X185420000Y-48260000D03*
X187960000Y-48260000D03*
X190500000Y-48260000D03*
X193040000Y-48260000D03*
X195580000Y-48260000D03*
X198120000Y-48260000D03*
X200660000Y-48260000D03*
X203200000Y-48260000D03*
X205740000Y-48260000D03*
X205740000Y-33020000D03*
X203200000Y-33020000D03*
X200660000Y-33020000D03*
X198120000Y-33020000D03*
X195580000Y-33020000D03*
X193040000Y-33020000D03*
X190500000Y-33020000D03*
X187960000Y-33020000D03*
X185420000Y-33020000D03*
X182880000Y-33020000D03*
X180340000Y-33020000D03*
X177800000Y-33020000D03*
X175260000Y-33020000D03*
X172720000Y-33020000D03*
D11*
X223520000Y-48260000D03*
D10*
X226060000Y-48260000D03*
X228600000Y-48260000D03*
X231140000Y-48260000D03*
X233680000Y-48260000D03*
X236220000Y-48260000D03*
X238760000Y-48260000D03*
X241300000Y-48260000D03*
X243840000Y-48260000D03*
X246380000Y-48260000D03*
X248920000Y-48260000D03*
X251460000Y-48260000D03*
X254000000Y-48260000D03*
X256540000Y-48260000D03*
X259080000Y-48260000D03*
X261620000Y-48260000D03*
X264160000Y-48260000D03*
X266700000Y-48260000D03*
X269240000Y-48260000D03*
X271780000Y-48260000D03*
X271780000Y-33020000D03*
X269240000Y-33020000D03*
X266700000Y-33020000D03*
X264160000Y-33020000D03*
X261620000Y-33020000D03*
X259080000Y-33020000D03*
X256540000Y-33020000D03*
X254000000Y-33020000D03*
X251460000Y-33020000D03*
X248920000Y-33020000D03*
X246380000Y-33020000D03*
X243840000Y-33020000D03*
X241300000Y-33020000D03*
X238760000Y-33020000D03*
X236220000Y-33020000D03*
X233680000Y-33020000D03*
X231140000Y-33020000D03*
X228600000Y-33020000D03*
X226060000Y-33020000D03*
X223520000Y-33020000D03*
X219710000Y-61000000D03*
X219710000Y-66000000D03*
X168910000Y-38100000D03*
X168910000Y-43100000D03*
D11*
X143510000Y-40640000D03*
D10*
X146050000Y-40640000D03*
X148590000Y-40640000D03*
X151130000Y-40640000D03*
X153670000Y-40640000D03*
X156210000Y-40640000D03*
X158750000Y-40640000D03*
X161290000Y-40640000D03*
X161290000Y-33020000D03*
X158750000Y-33020000D03*
X156210000Y-33020000D03*
X153670000Y-33020000D03*
X151130000Y-33020000D03*
X148590000Y-33020000D03*
X146050000Y-33020000D03*
X143510000Y-33020000D03*
D14*
X203200000Y-80010000D03*
D10*
X205740000Y-80010000D03*
X208280000Y-80010000D03*
X210820000Y-80010000D03*
X213360000Y-80010000D03*
X215900000Y-80010000D03*
X218440000Y-80010000D03*
X220980000Y-80010000D03*
X223520000Y-80010000D03*
X226060000Y-80010000D03*
D11*
X294640000Y-95185113D03*
D10*
X294640000Y-92685113D03*
X276860000Y-93980000D03*
X264160000Y-93980000D03*
X264160000Y-66040000D03*
X269160000Y-66040000D03*
X219710000Y-38100000D03*
X219710000Y-43100000D03*
X279400000Y-33020000D03*
X292100000Y-33020000D03*
X161925000Y-85130000D03*
X161925000Y-90130000D03*
X99060000Y-85130000D03*
X99060000Y-90130000D03*
D11*
X165100000Y-91440000D03*
D10*
X167640000Y-91440000D03*
X170180000Y-91440000D03*
X172720000Y-91440000D03*
X175260000Y-91440000D03*
X177800000Y-91440000D03*
X180340000Y-91440000D03*
X182880000Y-91440000D03*
X185420000Y-91440000D03*
X187960000Y-91440000D03*
X187960000Y-83820000D03*
X185420000Y-83820000D03*
X182880000Y-83820000D03*
X180340000Y-83820000D03*
X177800000Y-83820000D03*
X175260000Y-83820000D03*
X172720000Y-83820000D03*
X170180000Y-83820000D03*
X167640000Y-83820000D03*
X165100000Y-83820000D03*
X139700000Y-34330000D03*
X139700000Y-39330000D03*
X260350000Y-71080000D03*
X260350000Y-66080000D03*
D11*
X138430000Y-91440000D03*
D10*
X140970000Y-91440000D03*
X143510000Y-91440000D03*
X146050000Y-91440000D03*
X148590000Y-91440000D03*
X151130000Y-91440000D03*
X153670000Y-91440000D03*
X153670000Y-83820000D03*
X151130000Y-83820000D03*
X148590000Y-83820000D03*
X146050000Y-83820000D03*
X143510000Y-83820000D03*
X140970000Y-83820000D03*
X138430000Y-83820000D03*
D19*
X172494541Y-70575000D03*
X167386000Y-66040000D03*
X177800000Y-96012000D03*
X167386000Y-49657000D03*
X224536000Y-98552000D03*
X174538046Y-74402323D03*
X147320000Y-88646000D03*
X232156000Y-76454000D03*
X195580000Y-40640000D03*
X215160000Y-45720000D03*
X215990000Y-70033948D03*
X215392000Y-70866000D03*
X148848595Y-88552000D03*
X231394000Y-77216000D03*
X214435000Y-44540000D03*
X193040000Y-39915000D03*
X215900000Y-44958000D03*
X230632000Y-77978000D03*
X219206653Y-70362653D03*
X190500000Y-39190000D03*
X142240000Y-88175000D03*
X234248290Y-77805636D03*
X215900000Y-43180000D03*
X187960000Y-38391000D03*
X220730653Y-70362653D03*
X240030000Y-78613000D03*
X185420000Y-45466000D03*
X199409611Y-51045695D03*
X236220000Y-60325000D03*
X208926000Y-57520701D03*
X208926000Y-58546005D03*
X199420916Y-52082306D03*
X233680000Y-60325000D03*
X241554000Y-93943000D03*
X233209001Y-93943000D03*
X182880000Y-45466000D03*
X199402651Y-53089346D03*
X208926000Y-59546008D03*
X232410000Y-90678000D03*
X231140000Y-60325000D03*
X180340000Y-45466000D03*
X242824000Y-91948000D03*
X247260000Y-97400000D03*
X208926000Y-60546011D03*
X177800000Y-45466000D03*
X231394000Y-94488000D03*
X199390000Y-54102000D03*
X228600000Y-60325000D03*
X269875000Y-93980000D03*
D20*
X224282000Y-83566000D03*
X158115000Y-65405000D03*
X158115000Y-63898000D03*
X225806000Y-83566000D03*
D19*
X180340000Y-73303000D03*
X267425000Y-73406000D03*
X195834000Y-70820000D03*
X273812000Y-98044000D03*
X167640000Y-79248000D03*
X189484000Y-50038000D03*
X195834000Y-73279000D03*
X147066000Y-80772000D03*
X237744000Y-96012000D03*
X235212422Y-74203123D03*
X214670346Y-37858651D03*
X179324000Y-38100000D03*
X215981802Y-73369000D03*
X148590000Y-36322000D03*
X235937422Y-73369000D03*
X179324000Y-39624000D03*
X146050000Y-37084000D03*
X215683000Y-37846000D03*
X236671000Y-72644000D03*
X216916000Y-72607000D03*
X274701000Y-83312000D03*
X260350000Y-72898000D03*
X265395000Y-83347000D03*
X174752000Y-71628000D03*
X168910000Y-77978000D03*
X199644000Y-79121000D03*
X233934000Y-84328000D03*
X279400000Y-95820000D03*
X168910000Y-86868000D03*
X199644000Y-82296000D03*
X234008341Y-94668000D03*
X285369000Y-99568000D03*
X127762000Y-62865000D03*
X175260000Y-51562000D03*
X196930152Y-52890152D03*
X208783347Y-55113347D03*
X119380000Y-58928000D03*
X231140000Y-41656000D03*
X122682000Y-93472000D03*
X182880000Y-96301000D03*
X255340000Y-41620000D03*
X129540000Y-95250000D03*
X185488000Y-71545000D03*
X170180000Y-95250000D03*
X238760000Y-39335000D03*
X133604000Y-62738000D03*
X209042000Y-70104000D03*
X247650000Y-39370000D03*
X213360000Y-73152000D03*
X209042000Y-73152000D03*
X207010000Y-87630000D03*
X181610000Y-60272000D03*
X226060000Y-38608000D03*
X252730000Y-38100000D03*
X203200000Y-40095000D03*
X233680000Y-40894000D03*
X252730000Y-40895000D03*
X162052000Y-80367000D03*
X163068000Y-62484000D03*
X118110000Y-61214000D03*
X182880000Y-80518000D03*
X209550000Y-74639000D03*
X105156000Y-80518000D03*
X227330000Y-74928123D03*
X223520000Y-38608000D03*
X204470000Y-86905000D03*
X201930000Y-39370000D03*
X227330000Y-67564000D03*
X228600000Y-42418000D03*
X123571000Y-91985000D03*
X182155000Y-95431000D03*
X257810000Y-42418000D03*
X250190000Y-40169000D03*
X236220000Y-40132000D03*
X170688000Y-72898000D03*
X104140000Y-80518000D03*
X201930000Y-81280000D03*
X222850000Y-40603000D03*
X199009000Y-39551000D03*
X247650000Y-85090000D03*
X264160000Y-58510000D03*
X156718000Y-92202000D03*
X199935000Y-71628000D03*
X199898000Y-60452000D03*
X241300000Y-64262000D03*
X146050000Y-78740000D03*
X203470832Y-60188304D03*
X200660000Y-74930000D03*
X197802960Y-53546536D03*
X204470000Y-58420000D03*
X227330000Y-40640000D03*
X151130000Y-53213000D03*
X197358000Y-41021000D03*
X195707000Y-53340000D03*
X185420000Y-78777000D03*
X197612000Y-79248000D03*
X204978000Y-60198000D03*
X202692000Y-64045000D03*
X191770000Y-61177000D03*
X175895000Y-41275000D03*
X218455723Y-56911723D03*
X215900000Y-41636000D03*
X112268000Y-60960000D03*
X136398000Y-92710000D03*
X154178000Y-72136000D03*
X261620000Y-54864000D03*
X154940000Y-61087000D03*
X132588000Y-60415000D03*
X121793000Y-94234000D03*
X159004000Y-73697000D03*
X140970000Y-81280000D03*
X161290064Y-60705936D03*
X238760000Y-51816000D03*
X175260000Y-59547000D03*
X157988000Y-72898000D03*
X177800000Y-60997000D03*
X198628000Y-62484000D03*
X160269347Y-60701347D03*
X140970000Y-80010000D03*
X198606519Y-58084974D03*
X242570000Y-58928000D03*
X182880000Y-71501000D03*
X179070000Y-71501000D03*
X176530000Y-45466000D03*
X148590000Y-50800000D03*
X177800000Y-50292000D03*
X179214000Y-42455000D03*
X163068000Y-80367000D03*
X187415000Y-80264000D03*
X163068000Y-72136000D03*
X175768000Y-72898000D03*
X160020000Y-74422000D03*
X161302653Y-61718653D03*
X149860000Y-96025115D03*
X168910000Y-96012000D03*
X170688000Y-86614000D03*
X224790000Y-90170000D03*
X258572000Y-91948000D03*
X228694000Y-86041216D03*
X258572000Y-81026000D03*
X172720000Y-86614000D03*
X172720000Y-88138000D03*
X194818000Y-57912000D03*
X190500000Y-57472000D03*
X229362000Y-57404000D03*
X268034000Y-58610000D03*
X200152000Y-58060765D03*
X224754999Y-66827696D03*
X200914000Y-67564000D03*
X183908116Y-66804810D03*
X193040000Y-49911000D03*
X217678000Y-46736000D03*
X201676000Y-63246000D03*
X239638238Y-80273264D03*
X163195000Y-82042000D03*
X241300000Y-77216000D03*
X190572000Y-80065000D03*
X189357000Y-81280000D03*
X164338000Y-58276000D03*
X196596000Y-44704000D03*
X190754000Y-50038000D03*
X196596000Y-37846000D03*
X213614000Y-37846000D03*
X189230000Y-37338000D03*
X217170000Y-37846000D03*
X180333021Y-65534326D03*
X208534000Y-75333000D03*
X204274847Y-75337500D03*
X242316000Y-73914000D03*
X244602000Y-76200000D03*
X165100000Y-70358000D03*
X171196000Y-71628000D03*
X268605000Y-70866000D03*
X228694000Y-85041213D03*
X255905000Y-59784000D03*
X223774000Y-90170000D03*
X282575000Y-67310000D03*
X293370000Y-77470000D03*
X293370000Y-74930000D03*
X255874101Y-61684999D03*
X191262000Y-65786000D03*
X189230000Y-77470000D03*
X200660000Y-77978000D03*
X282820000Y-99577000D03*
D21*
X167386000Y-66040000D02*
X167386000Y-49657000D01*
X173990000Y-73854277D02*
X174538046Y-74402323D01*
X172494541Y-70640541D02*
X173990000Y-72136000D01*
X173990000Y-92202000D02*
X177800000Y-96012000D01*
X226686000Y-99813000D02*
X225425000Y-98552000D01*
X174538046Y-74402323D02*
X173990000Y-74950369D01*
X173990000Y-72136000D02*
X173990000Y-73854277D01*
X172494541Y-70575000D02*
X172494541Y-70640541D01*
X226686000Y-104580000D02*
X226686000Y-99813000D01*
X173990000Y-74950369D02*
X173990000Y-92202000D01*
X225425000Y-98552000D02*
X224536000Y-98552000D01*
X146050000Y-58420000D02*
X144780000Y-57150000D01*
X147792000Y-77304190D02*
X147320000Y-76832190D01*
X146050000Y-66677810D02*
X146050000Y-58420000D01*
X147320000Y-88646000D02*
X147320000Y-82931000D01*
X214612000Y-68655948D02*
X214612000Y-47255810D01*
X149860000Y-34290000D02*
X151130000Y-33020000D01*
X146869000Y-45663000D02*
X146869000Y-41723190D01*
X147320000Y-82931000D02*
X147792000Y-82459000D01*
X144780000Y-57150000D02*
X144780000Y-47752000D01*
X147320000Y-35052000D02*
X148082000Y-34290000D01*
X215160000Y-46707810D02*
X215160000Y-45720000D01*
X147792000Y-82459000D02*
X147792000Y-77304190D01*
X230435000Y-76454000D02*
X229419000Y-77470000D01*
X148082000Y-34290000D02*
X149860000Y-34290000D01*
X229419000Y-77470000D02*
X229419000Y-97976810D01*
X146869000Y-41723190D02*
X147320000Y-41272190D01*
X229480000Y-98037810D02*
X229480000Y-104580000D01*
X144780000Y-47752000D02*
X146869000Y-45663000D01*
X195580000Y-48260000D02*
X195580000Y-40640000D01*
X147320000Y-76832190D02*
X147320000Y-67947810D01*
X147320000Y-67947810D02*
X146050000Y-66677810D01*
X232156000Y-76454000D02*
X230435000Y-76454000D01*
X214612000Y-47255810D02*
X215160000Y-46707810D01*
X215990000Y-70033948D02*
X214612000Y-68655948D01*
X229419000Y-97976810D02*
X229480000Y-98037810D01*
X147320000Y-41272190D02*
X147320000Y-35052000D01*
X148848595Y-88552000D02*
X148938000Y-88552000D01*
X231394000Y-77216000D02*
X230378000Y-77216000D01*
X193040000Y-39915000D02*
X193040000Y-48260000D01*
X229906000Y-77677280D02*
X229906000Y-77688000D01*
X215392000Y-70866000D02*
X214161000Y-69635000D01*
X230342000Y-77252000D02*
X230331280Y-77252000D01*
X230331280Y-77252000D02*
X229906000Y-77677280D01*
X232020000Y-99940000D02*
X232020000Y-104580000D01*
X214161000Y-47069000D02*
X214435000Y-46795000D01*
X230378000Y-77216000D02*
X230342000Y-77252000D01*
X152400000Y-34290000D02*
X153670000Y-33020000D01*
X229870000Y-97790000D02*
X232020000Y-99940000D01*
X214435000Y-46795000D02*
X214435000Y-44540000D01*
X229906000Y-77688000D02*
X229870000Y-77724000D01*
X229870000Y-77724000D02*
X229870000Y-97790000D01*
X148938000Y-88552000D02*
X152400000Y-85090000D01*
X152400000Y-85090000D02*
X152400000Y-34290000D01*
X214161000Y-69635000D02*
X214161000Y-47069000D01*
X215900000Y-47378910D02*
X215900000Y-44958000D01*
X215063000Y-67743000D02*
X215063000Y-48215910D01*
X145507797Y-31750000D02*
X144780000Y-32477797D01*
X156210000Y-33020000D02*
X154940000Y-31750000D01*
X139700000Y-47498000D02*
X139700000Y-56388000D01*
X234560000Y-99940000D02*
X234560000Y-104580000D01*
X217678000Y-70358000D02*
X215063000Y-67743000D01*
X230632000Y-96012000D02*
X234560000Y-99940000D01*
X190500000Y-39190000D02*
X190500000Y-48260000D01*
X144780000Y-58928000D02*
X144780000Y-78740000D01*
X144780000Y-78740000D02*
X142240000Y-81280000D01*
X219206653Y-70362653D02*
X219202000Y-70358000D01*
X219202000Y-70358000D02*
X217678000Y-70358000D01*
X144780000Y-33528000D02*
X142240000Y-36068000D01*
X142240000Y-36068000D02*
X142240000Y-44958000D01*
X143002000Y-57150000D02*
X144780000Y-58928000D01*
X215063000Y-48215910D02*
X215900000Y-47378910D01*
X230632000Y-77978000D02*
X230632000Y-96012000D01*
X142240000Y-81280000D02*
X142240000Y-88175000D01*
X139700000Y-56388000D02*
X140462000Y-57150000D01*
X154940000Y-31750000D02*
X145507797Y-31750000D01*
X144780000Y-32477797D02*
X144780000Y-33528000D01*
X140462000Y-57150000D02*
X143002000Y-57150000D01*
X142240000Y-44958000D02*
X139700000Y-47498000D01*
X220436000Y-70057280D02*
X220010720Y-69632000D01*
X216662000Y-45222720D02*
X216662000Y-43942000D01*
X220730653Y-70362653D02*
X220436000Y-70068000D01*
X216408000Y-47508720D02*
X216408000Y-45476720D01*
X234880000Y-97720000D02*
X234880000Y-90108430D01*
X237100000Y-99940000D02*
X234880000Y-97720000D01*
X215514000Y-67556190D02*
X215514000Y-48402720D01*
X237100000Y-104580000D02*
X237100000Y-99940000D01*
X240030000Y-72390000D02*
X238760000Y-71120000D01*
X215514000Y-48402720D02*
X216408000Y-47508720D01*
X220010720Y-69632000D02*
X217589810Y-69632000D01*
X234867000Y-90095430D02*
X234867000Y-80563000D01*
X187960000Y-48260000D02*
X187960000Y-38391000D01*
X217589810Y-69632000D02*
X215514000Y-67556190D01*
X240030000Y-78613000D02*
X240030000Y-72390000D01*
X216408000Y-45476720D02*
X216662000Y-45222720D01*
X234867000Y-80563000D02*
X234251000Y-79947000D01*
X216662000Y-43942000D02*
X215900000Y-43180000D01*
X234251000Y-77808346D02*
X234248290Y-77805636D01*
X234880000Y-90108430D02*
X234867000Y-90095430D01*
X220436000Y-70068000D02*
X220436000Y-70057280D01*
X234251000Y-79947000D02*
X234251000Y-77808346D01*
X200739971Y-51641971D02*
X205952591Y-51641971D01*
X205952591Y-51641971D02*
X207347000Y-53036380D01*
X239640000Y-99940000D02*
X235331000Y-95631000D01*
X185420000Y-48260000D02*
X185420000Y-45466000D01*
X207347000Y-53036380D02*
X207347000Y-55941701D01*
X236220000Y-60325000D02*
X236220000Y-71120000D01*
X207347000Y-55941701D02*
X208926000Y-57520701D01*
X235318000Y-89908620D02*
X235318000Y-75683225D01*
X235331000Y-95631000D02*
X235331000Y-89921620D01*
X239640000Y-104580000D02*
X239640000Y-99940000D01*
X234486423Y-72853577D02*
X236220000Y-71120000D01*
X235331000Y-89921620D02*
X235318000Y-89908620D01*
X234486423Y-74851648D02*
X234486423Y-72853577D01*
X199409611Y-51045695D02*
X200143695Y-51045695D01*
X200143695Y-51045695D02*
X200739971Y-51641971D01*
X235318000Y-75683225D02*
X234486423Y-74851648D01*
X233820000Y-77208620D02*
X233820000Y-77205810D01*
X233934000Y-72644000D02*
X233680000Y-72390000D01*
X206896000Y-56516005D02*
X206896000Y-53223190D01*
X205765781Y-52092971D02*
X199431581Y-52092971D01*
X233172000Y-93905999D02*
X233172000Y-77856620D01*
X233820000Y-77205810D02*
X233877000Y-77148810D01*
X199431581Y-52092971D02*
X199420916Y-52082306D01*
X206896000Y-53223190D02*
X205765781Y-52092971D01*
X182880000Y-48260000D02*
X182880000Y-45466000D01*
X242180000Y-94352000D02*
X242180000Y-104580000D01*
X241554000Y-93943000D02*
X241771000Y-93943000D01*
X241771000Y-93943000D02*
X242180000Y-94352000D01*
X233680000Y-72390000D02*
X233680000Y-71120000D01*
X233877000Y-77148810D02*
X233877000Y-77146000D01*
X233209001Y-93943000D02*
X233172000Y-93905999D01*
X233934000Y-77089000D02*
X233934000Y-72644000D01*
X233877000Y-77146000D02*
X233934000Y-77089000D01*
X233172000Y-77856620D02*
X233820000Y-77208620D01*
X233680000Y-60325000D02*
X233680000Y-71120000D01*
X208926000Y-58546005D02*
X206896000Y-56516005D01*
X233369000Y-77021810D02*
X233369000Y-77019000D01*
X233426000Y-73406000D02*
X231140000Y-71120000D01*
X232410000Y-77980810D02*
X233369000Y-77021810D01*
X243586000Y-92710000D02*
X243586000Y-96774000D01*
X233426000Y-76962000D02*
X233426000Y-73406000D01*
X206445000Y-57091725D02*
X206445000Y-53410000D01*
X244720000Y-97908000D02*
X244720000Y-104580000D01*
X200694029Y-52543971D02*
X200148654Y-53089346D01*
X208926000Y-59546008D02*
X208899283Y-59546008D01*
X205578971Y-52543971D02*
X200694029Y-52543971D01*
X231140000Y-60325000D02*
X231140000Y-71120000D01*
X242824000Y-91948000D02*
X243586000Y-92710000D01*
X200148654Y-53089346D02*
X199402651Y-53089346D01*
X180340000Y-48260000D02*
X180340000Y-45466000D01*
X208899283Y-59546008D02*
X206445000Y-57091725D01*
X206445000Y-53410000D02*
X205578971Y-52543971D01*
X232410000Y-90678000D02*
X232410000Y-77980810D01*
X233369000Y-77019000D02*
X233426000Y-76962000D01*
X243586000Y-96774000D02*
X244720000Y-97908000D01*
X231394000Y-94488000D02*
X231394000Y-78359000D01*
X208899283Y-60546011D02*
X208926000Y-60546011D01*
X232918000Y-73660000D02*
X231648000Y-72390000D01*
X231648000Y-72390000D02*
X229870000Y-72390000D01*
X228600000Y-60325000D02*
X228600000Y-71120000D01*
X177800000Y-48260000D02*
X177800000Y-45466000D01*
X205994000Y-53596810D02*
X205994000Y-57640728D01*
X205994000Y-57640728D02*
X208899283Y-60546011D01*
X205392161Y-52994971D02*
X205994000Y-53596810D01*
X200314971Y-54102000D02*
X201422000Y-52994971D01*
X232918000Y-76835000D02*
X232918000Y-73660000D01*
X229870000Y-72390000D02*
X228600000Y-71120000D01*
X231394000Y-78359000D02*
X232918000Y-76835000D01*
X201422000Y-52994971D02*
X205392161Y-52994971D01*
X247260000Y-104580000D02*
X247260000Y-97400000D01*
X199390000Y-54102000D02*
X200314971Y-54102000D01*
X269875000Y-93980000D02*
X269875000Y-100705000D01*
X269875000Y-100705000D02*
X270120000Y-100950000D01*
X270120000Y-100950000D02*
X270120000Y-104580000D01*
D22*
X292608000Y-95185113D02*
X291529887Y-96263226D01*
X138430000Y-83820000D02*
X136525000Y-81915000D01*
X262524000Y-77206762D02*
X263153238Y-77836000D01*
X136525000Y-81915000D02*
X136525000Y-69850000D01*
X97155000Y-60960000D02*
X97155000Y-83225000D01*
X102870000Y-54610000D02*
X102870000Y-57150000D01*
X136525000Y-69850000D02*
X134660000Y-69850000D01*
X298450000Y-85090000D02*
X298450000Y-35560000D01*
X262255000Y-65266370D02*
X263028630Y-66040000D01*
X138430000Y-48260000D02*
X137080000Y-49610000D01*
X97155000Y-60365000D02*
X97155000Y-60960000D01*
X171450000Y-69850000D02*
X168910000Y-69850000D01*
X264160000Y-68580000D02*
X262524000Y-70216000D01*
X223520000Y-61000000D02*
X219710000Y-61000000D01*
X291529887Y-96328113D02*
X291338000Y-96520000D01*
X99060000Y-58460000D02*
X97155000Y-60365000D01*
X172720000Y-34290000D02*
X172720000Y-33020000D01*
X221615000Y-53975000D02*
X221615000Y-40005000D01*
X137080000Y-49610000D02*
X134620000Y-49610000D01*
X137160000Y-69850000D02*
X136525000Y-69850000D01*
X294640000Y-88900000D02*
X292608000Y-90932000D01*
X136525000Y-50165000D02*
X136525000Y-66675000D01*
X99060000Y-85130000D02*
X101560000Y-85130000D01*
X138430000Y-83820000D02*
X136525000Y-85725000D01*
X136525000Y-66675000D02*
X138430000Y-68580000D01*
X165100000Y-83820000D02*
X163790000Y-85130000D01*
X294640000Y-88900000D02*
X298450000Y-85090000D01*
X97155000Y-83225000D02*
X99060000Y-85130000D01*
X165100000Y-83820000D02*
X165100000Y-73660000D01*
X291338000Y-96520000D02*
X288290000Y-96520000D01*
X137160000Y-36870000D02*
X139700000Y-34330000D01*
X163790000Y-85130000D02*
X161925000Y-85130000D01*
X172720000Y-55880000D02*
X171450000Y-57150000D01*
X101560000Y-58460000D02*
X99060000Y-58460000D01*
X172720000Y-68580000D02*
X171450000Y-69850000D01*
X101560000Y-85130000D02*
X102870000Y-83820000D01*
X171450000Y-57150000D02*
X170815000Y-57150000D01*
X138430000Y-48260000D02*
X137160000Y-46990000D01*
X298450000Y-35560000D02*
X294005000Y-31115000D01*
X223520000Y-61000000D02*
X223520000Y-71120000D01*
X136525000Y-81915000D02*
X135890000Y-81280000D01*
X136525000Y-85725000D02*
X134620000Y-85725000D01*
X291529887Y-96263226D02*
X291529887Y-96328113D01*
X172720000Y-51435000D02*
X171084000Y-49799000D01*
X292608000Y-95185113D02*
X294640000Y-95185113D01*
X102870000Y-57150000D02*
X101560000Y-58460000D01*
X281305000Y-31115000D02*
X279400000Y-33020000D01*
X171084000Y-40274000D02*
X168910000Y-38100000D01*
X135890000Y-81280000D02*
X130810000Y-81280000D01*
X264160000Y-66040000D02*
X264160000Y-68580000D01*
X263153238Y-77836000D02*
X263256000Y-77836000D01*
X165100000Y-73660000D02*
X168910000Y-69850000D01*
X137160000Y-46990000D02*
X137160000Y-36870000D01*
X294005000Y-31115000D02*
X281305000Y-31115000D01*
X264160000Y-78740000D02*
X264160000Y-81280000D01*
X285750000Y-96520000D02*
X288290000Y-96520000D01*
X172720000Y-55880000D02*
X172720000Y-51435000D01*
X263028630Y-66040000D02*
X264160000Y-66040000D01*
X223520000Y-55880000D02*
X223520000Y-61000000D01*
X262524000Y-70216000D02*
X262524000Y-77206762D01*
X221615000Y-40005000D02*
X219710000Y-38100000D01*
X171084000Y-49799000D02*
X171084000Y-40274000D01*
X168910000Y-38100000D02*
X172720000Y-34290000D01*
X138430000Y-68580000D02*
X137160000Y-69850000D01*
X223520000Y-55880000D02*
X221615000Y-53975000D01*
X262255000Y-57785000D02*
X262255000Y-65266370D01*
X263256000Y-77836000D02*
X264160000Y-78740000D01*
D21*
X288290000Y-104444000D02*
X288154000Y-104580000D01*
D22*
X292608000Y-90932000D02*
X292608000Y-95185113D01*
X170815000Y-57150000D02*
X168910000Y-57150000D01*
X264160000Y-53340000D02*
X264160000Y-55880000D01*
X288290000Y-96520000D02*
X288290000Y-104444000D01*
X170815000Y-57150000D02*
X170815000Y-66675000D01*
X264160000Y-55880000D02*
X262255000Y-57785000D01*
X170815000Y-66675000D02*
X172720000Y-68580000D01*
X99060000Y-95250000D02*
X101346000Y-97536000D01*
X219710000Y-43100000D02*
X219710000Y-57404000D01*
X122428000Y-87122000D02*
X122428000Y-79502000D01*
X158115000Y-56261000D02*
X157734000Y-55880000D01*
X292100000Y-59372500D02*
X291147500Y-58420000D01*
X220980000Y-95250000D02*
X220980000Y-91440000D01*
X289560000Y-73660000D02*
X291465000Y-73660000D01*
X101346000Y-97536000D02*
X134620000Y-97536000D01*
X291147500Y-58420000D02*
X292100000Y-57467500D01*
X118110000Y-91440000D02*
X122428000Y-87122000D01*
X287020000Y-68580000D02*
X284480000Y-71120000D01*
X224282000Y-83566000D02*
X225806000Y-83566000D01*
X156210000Y-71755000D02*
X156210000Y-76200000D01*
X292100000Y-48895000D02*
X291465000Y-48260000D01*
X134620000Y-96520000D02*
X134620000Y-90725000D01*
X119126000Y-76200000D02*
X112990000Y-76200000D01*
X187960000Y-91440000D02*
X187960000Y-97536000D01*
X292100000Y-57467500D02*
X292100000Y-53975000D01*
X291465000Y-73660000D02*
X292100000Y-73025000D01*
X192532000Y-82423000D02*
X192532000Y-88352000D01*
X292100000Y-52705000D02*
X292100000Y-48895000D01*
X279400000Y-63500000D02*
X279400000Y-60325000D01*
X197104000Y-61976000D02*
X197104000Y-57404000D01*
X195580000Y-76200000D02*
X195580000Y-79375000D01*
X217678000Y-59436000D02*
X217678000Y-63968000D01*
X153670000Y-97536000D02*
X218694000Y-97536000D01*
X284480000Y-74930000D02*
X283210000Y-76200000D01*
X281305000Y-54610000D02*
X280035000Y-53340000D01*
X134620000Y-97536000D02*
X134620000Y-96520000D01*
X217678000Y-63968000D02*
X219710000Y-66000000D01*
X112990000Y-71120000D02*
X112990000Y-76200000D01*
D21*
X238125000Y-86047405D02*
X238125000Y-87550000D01*
D22*
X238045000Y-87630000D02*
X238125000Y-87550000D01*
X118110000Y-91440000D02*
X118110000Y-97536000D01*
X156210000Y-86360000D02*
X153670000Y-88900000D01*
X192532000Y-88352000D02*
X194310000Y-90130000D01*
X279400000Y-60325000D02*
X281305000Y-58420000D01*
X280035000Y-53340000D02*
X269160000Y-53340000D01*
X194310000Y-90130000D02*
X194310000Y-97536000D01*
X284480000Y-71120000D02*
X284480000Y-74930000D01*
D21*
X242408798Y-82711202D02*
X241461202Y-82711202D01*
D22*
X122428000Y-79502000D02*
X119126000Y-76200000D01*
X220980000Y-91440000D02*
X220980000Y-86868000D01*
X291465000Y-53340000D02*
X292100000Y-52705000D01*
X281305000Y-58420000D02*
X281305000Y-54610000D01*
D21*
X257770000Y-66080000D02*
X256540000Y-67310000D01*
D22*
X291465000Y-53340000D02*
X289560000Y-53340000D01*
X112990000Y-76200000D02*
X112990000Y-80010000D01*
X158115000Y-69850000D02*
X156210000Y-71755000D01*
X156210000Y-76200000D02*
X156210000Y-86360000D01*
X158115000Y-63898000D02*
X158115000Y-56261000D01*
X195580000Y-79375000D02*
X192532000Y-82423000D01*
X219710000Y-57404000D02*
X217678000Y-59436000D01*
X125730000Y-49530000D02*
X128998000Y-52798000D01*
X289560000Y-58420000D02*
X291147500Y-58420000D01*
X220980000Y-86868000D02*
X224282000Y-83566000D01*
X157734000Y-55880000D02*
X153670000Y-55880000D01*
X153670000Y-88900000D02*
X153670000Y-91440000D01*
X195580000Y-64770000D02*
X195580000Y-63500000D01*
X197104000Y-57404000D02*
X195580000Y-55880000D01*
X153670000Y-91440000D02*
X153670000Y-97536000D01*
X161925000Y-97536000D02*
X161925000Y-90130000D01*
X292100000Y-73025000D02*
X292100000Y-59372500D01*
X198120000Y-73660000D02*
X198120000Y-67310000D01*
D21*
X260350000Y-66080000D02*
X257770000Y-66080000D01*
D22*
X125730000Y-49530000D02*
X125730000Y-44450000D01*
X283210000Y-76200000D02*
X279400000Y-76200000D01*
X128998000Y-63534000D02*
X127762000Y-64770000D01*
D21*
X241461202Y-82711202D02*
X238125000Y-86047405D01*
D22*
X291465000Y-48260000D02*
X289560000Y-48260000D01*
X127762000Y-64770000D02*
X125730000Y-64770000D01*
X149606000Y-97536000D02*
X153162000Y-97536000D01*
X218694000Y-97536000D02*
X220980000Y-95250000D01*
X198120000Y-67310000D02*
X195580000Y-64770000D01*
X161290000Y-48260000D02*
X161290000Y-40640000D01*
X158115000Y-63898000D02*
X158115000Y-69850000D01*
X153670000Y-97536000D02*
X153162000Y-97536000D01*
X195580000Y-76200000D02*
X198120000Y-73660000D01*
X292100000Y-53975000D02*
X291465000Y-53340000D01*
X158115000Y-51435000D02*
X161290000Y-48260000D01*
X99060000Y-90130000D02*
X99060000Y-95250000D01*
X128998000Y-52798000D02*
X128998000Y-63534000D01*
D21*
X256540000Y-67310000D02*
X256540000Y-71120000D01*
X243840000Y-81280000D02*
X242408798Y-82711202D01*
D22*
X283210000Y-91440000D02*
X283210000Y-76200000D01*
X158115000Y-56261000D02*
X158115000Y-51435000D01*
X134620000Y-97536000D02*
X149606000Y-97536000D01*
X195580000Y-63500000D02*
X197104000Y-61976000D01*
D21*
X189230000Y-64042203D02*
X189230000Y-54864000D01*
X194818000Y-66802000D02*
X193040000Y-65024000D01*
X195580000Y-66802000D02*
X194818000Y-66802000D01*
X271399000Y-95631000D02*
X273812000Y-98044000D01*
X189484000Y-54610000D02*
X189484000Y-50038000D01*
X267970000Y-73951000D02*
X267970000Y-89222405D01*
X193040000Y-65024000D02*
X193040000Y-63500000D01*
X180340000Y-76200000D02*
X180340000Y-73303000D01*
X271399000Y-92651405D02*
X271399000Y-95631000D01*
X191770000Y-64770000D02*
X189957797Y-64770000D01*
X196850000Y-68072000D02*
X195580000Y-66802000D01*
X189957797Y-64770000D02*
X189230000Y-64042203D01*
X195834000Y-70820000D02*
X196850000Y-69804000D01*
X167640000Y-79248000D02*
X166370000Y-80518000D01*
X166370000Y-90170000D02*
X165100000Y-91440000D01*
X166370000Y-80518000D02*
X166370000Y-90170000D01*
X193040000Y-63500000D02*
X191770000Y-64770000D01*
X195834000Y-73279000D02*
X195834000Y-70820000D01*
X267970000Y-89222405D02*
X271399000Y-92651405D01*
X267425000Y-73406000D02*
X267970000Y-73951000D01*
X189230000Y-54864000D02*
X189484000Y-54610000D01*
X196850000Y-69804000D02*
X196850000Y-68072000D01*
X147066000Y-80772000D02*
X147066000Y-77216000D01*
X235212423Y-74938423D02*
X235769000Y-75495000D01*
X235212422Y-74203123D02*
X235212423Y-74203124D01*
X235769000Y-75495000D02*
X235769000Y-89721810D01*
X147066000Y-77216000D02*
X146050000Y-76200000D01*
X235769000Y-89721810D02*
X237744000Y-91696810D01*
X235212423Y-74203124D02*
X235212423Y-74938423D01*
X237744000Y-91696810D02*
X237744000Y-96012000D01*
X250046000Y-104334000D02*
X249800000Y-104580000D01*
X236220000Y-88832810D02*
X238516190Y-91129000D01*
X235946000Y-74886913D02*
X236220000Y-75160913D01*
X148590000Y-36322000D02*
X148590000Y-40640000D01*
X235946000Y-74873000D02*
X235946000Y-74886913D01*
X180340000Y-37084000D02*
X179324000Y-38100000D01*
X214670346Y-37858651D02*
X214630000Y-37898997D01*
X248863000Y-91129000D02*
X250046000Y-92312000D01*
X146050000Y-55880000D02*
X146050000Y-50038000D01*
X147320000Y-41910000D02*
X148590000Y-40640000D01*
X214630000Y-40640000D02*
X213259000Y-42011000D01*
X235937422Y-73369000D02*
X235937422Y-74864422D01*
X214720000Y-73369000D02*
X215981802Y-73369000D01*
X250046000Y-92312000D02*
X250046000Y-104334000D01*
X147320000Y-48768000D02*
X147320000Y-41910000D01*
X235937422Y-74864422D02*
X235946000Y-74873000D01*
X180340000Y-33020000D02*
X180340000Y-37084000D01*
X146050000Y-50038000D02*
X147320000Y-48768000D01*
X238516190Y-91129000D02*
X248863000Y-91129000D01*
X214630000Y-37898997D02*
X214630000Y-40640000D01*
X213259000Y-71908000D02*
X214720000Y-73369000D01*
X213259000Y-42011000D02*
X213259000Y-71908000D01*
X236220000Y-75160913D02*
X236220000Y-88832810D01*
X236671000Y-72644000D02*
X236671000Y-88646000D01*
X146050000Y-40640000D02*
X146050000Y-43942000D01*
X146050000Y-37084000D02*
X146050000Y-40640000D01*
X214595810Y-72607000D02*
X216916000Y-72607000D01*
X252340000Y-92066000D02*
X252340000Y-104580000D01*
X213710000Y-42197810D02*
X213710000Y-71721190D01*
X216879000Y-72644000D02*
X216916000Y-72607000D01*
X215683000Y-40224810D02*
X213710000Y-42197810D01*
X146050000Y-43942000D02*
X142240000Y-47752000D01*
X142240000Y-54610000D02*
X140970000Y-55880000D01*
X213710000Y-71721190D02*
X214595810Y-72607000D01*
X250952000Y-90678000D02*
X252340000Y-92066000D01*
X182880000Y-33020000D02*
X182880000Y-36068000D01*
X142240000Y-47752000D02*
X142240000Y-54610000D01*
X182880000Y-36068000D02*
X179324000Y-39624000D01*
X236671000Y-88646000D02*
X238703000Y-90678000D01*
X238703000Y-90678000D02*
X250952000Y-90678000D01*
X215683000Y-37846000D02*
X215683000Y-40224810D01*
X254880000Y-104580000D02*
X254880000Y-96910000D01*
X254880000Y-96910000D02*
X257810000Y-93980000D01*
X275590000Y-84201000D02*
X275590000Y-89916000D01*
X175265360Y-74463360D02*
X175260000Y-74468720D01*
X262382000Y-80830595D02*
X260350000Y-78798595D01*
X174752000Y-73279000D02*
X175265360Y-73792360D01*
X274701000Y-83312000D02*
X275590000Y-84201000D01*
X260350000Y-78798595D02*
X260350000Y-72898000D01*
X175260000Y-74468720D02*
X175260000Y-76200000D01*
X265395000Y-83347000D02*
X263687000Y-83347000D01*
X174752000Y-71628000D02*
X174752000Y-73279000D01*
X175265360Y-73792360D02*
X175265360Y-74463360D01*
X275336000Y-90170000D02*
X275336000Y-104444000D01*
X275590000Y-89916000D02*
X275336000Y-90170000D01*
X275336000Y-104444000D02*
X275200000Y-104580000D01*
X262382000Y-82042000D02*
X262382000Y-80830595D01*
X263687000Y-83347000D02*
X262382000Y-82042000D01*
X233934000Y-94593659D02*
X233934000Y-84328000D01*
X234008341Y-94668000D02*
X233934000Y-94593659D01*
X279400000Y-95820000D02*
X279908000Y-96328000D01*
X199644000Y-79121000D02*
X199644000Y-82296000D01*
X168910000Y-86868000D02*
X168910000Y-77978000D01*
X279908000Y-96328000D02*
X279908000Y-98044000D01*
X279908000Y-98044000D02*
X277740000Y-100212000D01*
X277740000Y-100212000D02*
X277740000Y-104580000D01*
X285360000Y-104580000D02*
X285360000Y-99577000D01*
X285360000Y-99577000D02*
X285369000Y-99568000D01*
X294005000Y-76200000D02*
X289560000Y-76200000D01*
X294640000Y-76835000D02*
X294005000Y-76200000D01*
X294640000Y-81280000D02*
X294640000Y-76835000D01*
X125730000Y-52070000D02*
X125730000Y-54610000D01*
X127762000Y-62865000D02*
X127762000Y-56642000D01*
X127762000Y-56642000D02*
X125730000Y-54610000D01*
X107950000Y-52070000D02*
X107950000Y-54610000D01*
X201198380Y-50074000D02*
X201556380Y-50432000D01*
X197426848Y-52890152D02*
X197866000Y-52451000D01*
X197866000Y-52451000D02*
X197866000Y-51297280D01*
X205380430Y-50432000D02*
X207798000Y-52849570D01*
X196930152Y-52890152D02*
X197426848Y-52890152D01*
X174134000Y-50436000D02*
X175260000Y-51562000D01*
X177800000Y-41656000D02*
X174134000Y-45322000D01*
X199089280Y-50074000D02*
X201198380Y-50074000D01*
X144780000Y-44450000D02*
X140970000Y-48260000D01*
X197866000Y-51297280D02*
X199089280Y-50074000D01*
X207798000Y-54128000D02*
X208783347Y-55113347D01*
X177800000Y-33020000D02*
X177800000Y-41656000D01*
X201556380Y-50432000D02*
X205380430Y-50432000D01*
X174134000Y-45322000D02*
X174134000Y-50436000D01*
X146050000Y-33020000D02*
X144780000Y-34290000D01*
X207798000Y-52849570D02*
X207798000Y-54128000D01*
X144780000Y-34290000D02*
X144780000Y-44450000D01*
X120650000Y-64770000D02*
X120650000Y-58928000D01*
X118110000Y-52070000D02*
X118110000Y-54610000D01*
X119380000Y-57658000D02*
X119380000Y-55880000D01*
X120650000Y-58928000D02*
X119380000Y-57658000D01*
X119380000Y-55880000D02*
X118110000Y-54610000D01*
X121920000Y-65278000D02*
X121920000Y-55880000D01*
X120650000Y-52070000D02*
X120650000Y-54610000D01*
X121920000Y-55880000D02*
X120650000Y-54610000D01*
X121158000Y-66040000D02*
X121920000Y-65278000D01*
X115570000Y-64770000D02*
X116840000Y-66040000D01*
X116840000Y-66040000D02*
X121158000Y-66040000D01*
X124460000Y-51435000D02*
X123825000Y-50800000D01*
X115570000Y-52070000D02*
X115570000Y-54610000D01*
X124460000Y-55880000D02*
X124460000Y-51435000D01*
X125730000Y-57150000D02*
X124460000Y-55880000D01*
X123825000Y-50800000D02*
X116840000Y-50800000D01*
X116840000Y-50800000D02*
X115570000Y-52070000D01*
X110490000Y-52070000D02*
X110490000Y-54610000D01*
X113030000Y-52070000D02*
X113030000Y-54610000D01*
X123190000Y-52070000D02*
X123190000Y-54610000D01*
X119380000Y-58928000D02*
X119380000Y-59055000D01*
X115570000Y-59690000D02*
X110490000Y-64770000D01*
X119380000Y-59055000D02*
X118745000Y-59690000D01*
X118745000Y-59690000D02*
X115570000Y-59690000D01*
X231140000Y-41656000D02*
X231140000Y-33020000D01*
X211455000Y-36832810D02*
X206516190Y-31894000D01*
X123389000Y-89209000D02*
X122682000Y-89916000D01*
X204326000Y-31894000D02*
X203200000Y-33020000D01*
X255340000Y-41620000D02*
X255270000Y-41690000D01*
X206516190Y-31894000D02*
X204326000Y-31894000D01*
X210820000Y-91440000D02*
X212090000Y-90170000D01*
X213360000Y-76205620D02*
X211455000Y-74300620D01*
X211455000Y-74300620D02*
X211455000Y-36832810D01*
X212090000Y-81280000D02*
X213360000Y-80010000D01*
X255270000Y-54610000D02*
X254000000Y-55880000D01*
X182880000Y-96301000D02*
X182880000Y-91440000D01*
X123389000Y-64969000D02*
X123389000Y-89209000D01*
X122682000Y-89916000D02*
X122682000Y-93472000D01*
X212090000Y-90170000D02*
X212090000Y-81280000D01*
X213360000Y-80010000D02*
X213360000Y-76205620D01*
X123190000Y-64770000D02*
X123389000Y-64969000D01*
X255270000Y-41690000D02*
X255270000Y-54610000D01*
X212808000Y-72600000D02*
X212808000Y-36111177D01*
X219710000Y-83185000D02*
X220345000Y-82550000D01*
X201105380Y-31299000D02*
X199203190Y-31299000D01*
X213360000Y-73152000D02*
X212808000Y-72600000D01*
X218440000Y-91440000D02*
X219710000Y-90170000D01*
X199203190Y-31299000D02*
X198752190Y-31750000D01*
X212808000Y-36111177D02*
X207237823Y-30541000D01*
X220345000Y-82550000D02*
X222250000Y-82550000D01*
X247650000Y-54610000D02*
X246380000Y-55880000D01*
X129540000Y-67691000D02*
X133604000Y-63627000D01*
X201556380Y-30848000D02*
X201105380Y-31299000D01*
X170180000Y-95250000D02*
X170180000Y-91440000D01*
X203765570Y-30541000D02*
X203458570Y-30848000D01*
X213360000Y-73152000D02*
X214503000Y-74295000D01*
X222250000Y-82550000D02*
X223520000Y-81280000D01*
X185420000Y-71477000D02*
X185488000Y-71545000D01*
X196850000Y-31750000D02*
X195580000Y-33020000D01*
X238760000Y-33020000D02*
X238760000Y-39335000D01*
X133604000Y-63627000D02*
X133604000Y-62738000D01*
X209042000Y-70104000D02*
X209042000Y-73152000D01*
X221615000Y-74295000D02*
X223520000Y-76200000D01*
X207237823Y-30541000D02*
X203765570Y-30541000D01*
X198752190Y-31750000D02*
X196850000Y-31750000D01*
X185420000Y-68580000D02*
X185420000Y-71477000D01*
X223520000Y-76200000D02*
X223520000Y-80010000D01*
X219710000Y-90170000D02*
X219710000Y-83185000D01*
X129540000Y-95250000D02*
X129540000Y-67691000D01*
X214503000Y-74295000D02*
X221615000Y-74295000D01*
X203458570Y-30848000D02*
X201556380Y-30848000D01*
X223520000Y-81280000D02*
X223520000Y-80010000D01*
X247650000Y-39370000D02*
X247650000Y-54610000D01*
X184150000Y-77868000D02*
X181754000Y-80264000D01*
X205105000Y-46355000D02*
X203200000Y-46355000D01*
X210553000Y-74674240D02*
X210553000Y-46723000D01*
X181754000Y-80264000D02*
X181754000Y-82406000D01*
X203200000Y-40095000D02*
X203200000Y-46355000D01*
X226060000Y-33020000D02*
X226060000Y-38608000D01*
X254518720Y-38100000D02*
X260206000Y-43787280D01*
X184150000Y-68072000D02*
X184150000Y-77868000D01*
X203200000Y-46355000D02*
X203200000Y-48260000D01*
X260206000Y-58378405D02*
X254000000Y-64584405D01*
X254000000Y-64584405D02*
X254000000Y-71120000D01*
X181610000Y-60272000D02*
X181610000Y-66548000D01*
X210553000Y-46723000D02*
X210185000Y-46355000D01*
X211455000Y-75576240D02*
X210553000Y-74674240D01*
X260206000Y-43787280D02*
X260206000Y-58378405D01*
X210185000Y-46355000D02*
X205105000Y-46355000D01*
X211455000Y-76835000D02*
X211455000Y-75576240D01*
X183388000Y-67310000D02*
X184150000Y-68072000D01*
X181610000Y-66548000D02*
X182372000Y-67310000D01*
X207010000Y-87630000D02*
X207010000Y-81280000D01*
X207010000Y-90170000D02*
X205740000Y-91440000D01*
X208280000Y-80010000D02*
X211455000Y-76835000D01*
X207010000Y-87630000D02*
X207010000Y-90170000D01*
X181754000Y-82406000D02*
X180340000Y-83820000D01*
X182372000Y-67310000D02*
X183388000Y-67310000D01*
X252730000Y-38100000D02*
X254518720Y-38100000D01*
X207010000Y-81280000D02*
X208280000Y-80010000D01*
X182880000Y-82042000D02*
X181610000Y-83312000D01*
X162052000Y-80367000D02*
X162052000Y-68326000D01*
X182880000Y-80518000D02*
X182880000Y-82042000D01*
X215900000Y-80010000D02*
X215900000Y-76200000D01*
X181610000Y-84430405D02*
X180340000Y-85700405D01*
X162052000Y-68326000D02*
X163068000Y-67310000D01*
X204139190Y-31443000D02*
X203832190Y-31750000D01*
X181610000Y-83312000D02*
X181610000Y-84430405D01*
X213256190Y-75464000D02*
X211906000Y-74113810D01*
X180340000Y-85700405D02*
X180340000Y-91440000D01*
X215164000Y-75464000D02*
X213256190Y-75464000D01*
X214630000Y-81280000D02*
X215900000Y-80010000D01*
X211906000Y-36646000D02*
X206703000Y-31443000D01*
X211906000Y-74113810D02*
X211906000Y-36646000D01*
X213360000Y-91440000D02*
X214630000Y-90170000D01*
X203832190Y-31750000D02*
X201930000Y-31750000D01*
X252730000Y-40895000D02*
X252730000Y-54610000D01*
X252730000Y-54610000D02*
X251460000Y-55880000D01*
X118110000Y-61214000D02*
X118110000Y-64770000D01*
X215900000Y-76200000D02*
X215164000Y-75464000D01*
X206703000Y-31443000D02*
X204139190Y-31443000D01*
X163068000Y-67310000D02*
X163068000Y-62484000D01*
X233680000Y-40894000D02*
X233680000Y-33020000D01*
X214630000Y-90170000D02*
X214630000Y-81280000D01*
X201930000Y-31750000D02*
X200660000Y-33020000D01*
X209550000Y-74639000D02*
X209841000Y-74639000D01*
X201930000Y-49530000D02*
X200660000Y-48260000D01*
X201930000Y-39370000D02*
X200660000Y-40640000D01*
X106680000Y-65278000D02*
X106680000Y-63500000D01*
X210102000Y-74378000D02*
X210102000Y-51989810D01*
X227330000Y-74928123D02*
X227330000Y-67564000D01*
X106680000Y-63500000D02*
X113030000Y-57150000D01*
X209841000Y-74639000D02*
X210102000Y-74378000D01*
X223520000Y-33020000D02*
X223520000Y-38608000D01*
X210102000Y-51989810D02*
X207642190Y-49530000D01*
X204470000Y-90170000D02*
X203200000Y-91440000D01*
X209550000Y-74639000D02*
X209550000Y-76200000D01*
X204470000Y-81280000D02*
X205740000Y-80010000D01*
X105156000Y-80518000D02*
X105156000Y-66802000D01*
X207642190Y-49530000D02*
X201930000Y-49530000D01*
X105156000Y-66802000D02*
X106680000Y-65278000D01*
X204470000Y-86905000D02*
X204470000Y-81280000D01*
X204470000Y-86905000D02*
X204470000Y-90170000D01*
X200660000Y-40640000D02*
X200660000Y-48260000D01*
X209550000Y-76200000D02*
X205740000Y-80010000D01*
X211004000Y-74487430D02*
X211004000Y-37019620D01*
X123571000Y-91985000D02*
X123481000Y-91985000D01*
X181610000Y-85090000D02*
X182880000Y-83820000D01*
X212090000Y-78740000D02*
X212090000Y-75573430D01*
X124316000Y-79646000D02*
X124316000Y-58276000D01*
X209550000Y-81280000D02*
X210820000Y-80010000D01*
X211004000Y-37019620D02*
X207004380Y-33020000D01*
X123571000Y-89789000D02*
X123952000Y-89408000D01*
X257810000Y-54610000D02*
X256540000Y-55880000D01*
X212090000Y-75573430D02*
X211004000Y-74487430D01*
X257810000Y-42418000D02*
X257810000Y-54610000D01*
X208280000Y-91440000D02*
X209550000Y-90170000D01*
X182155000Y-95431000D02*
X182118000Y-95394000D01*
X207004380Y-33020000D02*
X205740000Y-33020000D01*
X123952000Y-89408000D02*
X123952000Y-80010000D01*
X124316000Y-58276000D02*
X123190000Y-57150000D01*
X123952000Y-80010000D02*
X124316000Y-79646000D01*
X181610000Y-92456000D02*
X181610000Y-85090000D01*
X228600000Y-42418000D02*
X228600000Y-33020000D01*
X123571000Y-91895000D02*
X123571000Y-89789000D01*
X209550000Y-90170000D02*
X209550000Y-81280000D01*
X182118000Y-92964000D02*
X181610000Y-92456000D01*
X182118000Y-95394000D02*
X182118000Y-92964000D01*
X123481000Y-91985000D02*
X123571000Y-91895000D01*
X210820000Y-80010000D02*
X212090000Y-78740000D01*
X203952380Y-30992000D02*
X203645380Y-31299000D01*
X170688000Y-72898000D02*
X171450000Y-73660000D01*
X215900000Y-91440000D02*
X217170000Y-90170000D01*
X212357000Y-36297987D02*
X207051013Y-30992000D01*
X250190000Y-54610000D02*
X248920000Y-55880000D01*
X218440000Y-76200000D02*
X217253000Y-75013000D01*
X201743190Y-31299000D02*
X201292190Y-31750000D01*
X217253000Y-75013000D02*
X213443000Y-75013000D01*
X172720000Y-90170000D02*
X172720000Y-91440000D01*
X218440000Y-80010000D02*
X218440000Y-76200000D01*
X171450000Y-88900000D02*
X172720000Y-90170000D01*
X217170000Y-90170000D02*
X217170000Y-81280000D01*
X212357000Y-73927000D02*
X212357000Y-36297987D01*
X203645380Y-31299000D02*
X201743190Y-31299000D01*
X250190000Y-40169000D02*
X250190000Y-54610000D01*
X201292190Y-31750000D02*
X199390000Y-31750000D01*
X213443000Y-75013000D02*
X212357000Y-73927000D01*
X217170000Y-81280000D02*
X218440000Y-80010000D01*
X207051013Y-30992000D02*
X203952380Y-30992000D01*
X236220000Y-40132000D02*
X236220000Y-33020000D01*
X199390000Y-31750000D02*
X198120000Y-33020000D01*
X171450000Y-73660000D02*
X171450000Y-88900000D01*
X209651000Y-68352000D02*
X201930000Y-76073000D01*
X201930000Y-90170000D02*
X200660000Y-91440000D01*
X201743190Y-49981000D02*
X207455380Y-49981000D01*
X198120000Y-48260000D02*
X199390000Y-49530000D01*
X209651000Y-52176620D02*
X209651000Y-68352000D01*
X247650000Y-85090000D02*
X247650000Y-72390000D01*
X104140000Y-60960000D02*
X107950000Y-57150000D01*
X222850000Y-40603000D02*
X223520000Y-41273000D01*
X199009000Y-47371000D02*
X198120000Y-48260000D01*
X223520000Y-41273000D02*
X223520000Y-48260000D01*
X104140000Y-80518000D02*
X104140000Y-60960000D01*
X199009000Y-39551000D02*
X199009000Y-47371000D01*
X199390000Y-49530000D02*
X201292190Y-49530000D01*
X201292190Y-49530000D02*
X201743190Y-49981000D01*
X201930000Y-81280000D02*
X201930000Y-90170000D01*
X247650000Y-72390000D02*
X248920000Y-71120000D01*
X207455380Y-49981000D02*
X209651000Y-52176620D01*
X201930000Y-76073000D02*
X201930000Y-81280000D01*
X264160000Y-63500000D02*
X264160000Y-58510000D01*
X199898000Y-60632000D02*
X199935000Y-60669000D01*
X158623000Y-92202000D02*
X159385000Y-91440000D01*
X159385000Y-83820000D02*
X161290000Y-81915000D01*
X161290000Y-81915000D02*
X161290000Y-66040000D01*
X199935000Y-60669000D02*
X199935000Y-71628000D01*
X199898000Y-60452000D02*
X199898000Y-60632000D01*
X159385000Y-91440000D02*
X159385000Y-83820000D01*
X156718000Y-92202000D02*
X158623000Y-92202000D01*
X241300000Y-55880000D02*
X241300000Y-64262000D01*
X146050000Y-83820000D02*
X146050000Y-78740000D01*
X203454000Y-66421000D02*
X200660000Y-69215000D01*
X203454000Y-60205136D02*
X203454000Y-66421000D01*
X200660000Y-69215000D02*
X200660000Y-74930000D01*
X203470832Y-60188304D02*
X203454000Y-60205136D01*
X197802960Y-53546536D02*
X199374424Y-55118000D01*
X199374424Y-55118000D02*
X201168000Y-55118000D01*
X201168000Y-55118000D02*
X204470000Y-58420000D01*
X229726000Y-54466000D02*
X231140000Y-55880000D01*
X195707000Y-52070000D02*
X196706000Y-51071000D01*
X229726000Y-45068000D02*
X229726000Y-54466000D01*
X196706000Y-51071000D02*
X196706000Y-48081595D01*
X227330000Y-40640000D02*
X227330000Y-42672000D01*
X195707000Y-53340000D02*
X195707000Y-52070000D01*
X197358000Y-47429595D02*
X197358000Y-41021000D01*
X227330000Y-42672000D02*
X229726000Y-45068000D01*
X151130000Y-55880000D02*
X151130000Y-53213000D01*
X196706000Y-48081595D02*
X197358000Y-47429595D01*
X185420000Y-78777000D02*
X185420000Y-83820000D01*
X201386000Y-75230720D02*
X201386000Y-69126810D01*
X197612000Y-76962000D02*
X198918000Y-75656000D01*
X201386000Y-69126810D02*
X204978000Y-65534810D01*
X200960720Y-75656000D02*
X201386000Y-75230720D01*
X198918000Y-75656000D02*
X200960720Y-75656000D01*
X204978000Y-65534810D02*
X204978000Y-60198000D01*
X197612000Y-79248000D02*
X197612000Y-76962000D01*
X202692000Y-64045000D02*
X202692000Y-57279810D01*
X193675000Y-31750000D02*
X189230000Y-31750000D01*
X199187614Y-55569000D02*
X197891150Y-54272536D01*
X202692000Y-57279810D02*
X200981190Y-55569000D01*
X197528536Y-54272536D02*
X197415000Y-54159000D01*
X194875000Y-54159000D02*
X194310000Y-53594000D01*
X200981190Y-55569000D02*
X199187614Y-55569000D01*
X189230000Y-31750000D02*
X187960000Y-33020000D01*
X194310000Y-32385000D02*
X193675000Y-31750000D01*
X194310000Y-53594000D02*
X194310000Y-32385000D01*
X197891150Y-54272536D02*
X197528536Y-54272536D01*
X197415000Y-54159000D02*
X194875000Y-54159000D01*
X175260000Y-48260000D02*
X176022000Y-49022000D01*
X173990000Y-55118000D02*
X173990000Y-64132190D01*
X176530000Y-66672190D02*
X176530000Y-90170000D01*
X173990000Y-64132190D02*
X176530000Y-66672190D01*
X176022000Y-49022000D02*
X176022000Y-53086000D01*
X176530000Y-90170000D02*
X175260000Y-91440000D01*
X176022000Y-53086000D02*
X173990000Y-55118000D01*
X191770000Y-61177000D02*
X191770000Y-34290000D01*
X191770000Y-34290000D02*
X193040000Y-33020000D01*
X186690000Y-36068000D02*
X186690000Y-65278000D01*
X189230000Y-70104000D02*
X186690000Y-72644000D01*
X190500000Y-33020000D02*
X189738000Y-33020000D01*
X189230000Y-67818000D02*
X189230000Y-70104000D01*
X186690000Y-65278000D02*
X189230000Y-67818000D01*
X186690000Y-90170000D02*
X185420000Y-91440000D01*
X189738000Y-33020000D02*
X186690000Y-36068000D01*
X186690000Y-72644000D02*
X186690000Y-90170000D01*
X184150000Y-48768000D02*
X184150000Y-43180000D01*
X180594000Y-64770000D02*
X180017596Y-64770000D01*
X181102000Y-65278000D02*
X180594000Y-64770000D01*
X179360000Y-72354000D02*
X179370720Y-72354000D01*
X179070000Y-63822404D02*
X179070000Y-50038000D01*
X179070000Y-90170000D02*
X179070000Y-72644000D01*
X179796000Y-71918000D02*
X181610000Y-70104000D01*
X181102000Y-67310000D02*
X181102000Y-65278000D01*
X179370720Y-72354000D02*
X179796000Y-71928720D01*
X179722000Y-49386000D02*
X183532000Y-49386000D01*
X177800000Y-91440000D02*
X179070000Y-90170000D01*
X179070000Y-50038000D02*
X179722000Y-49386000D01*
X180017596Y-64770000D02*
X179070000Y-63822404D01*
X181610000Y-67818000D02*
X181102000Y-67310000D01*
X179796000Y-71928720D02*
X179796000Y-71918000D01*
X183532000Y-49386000D02*
X184150000Y-48768000D01*
X184150000Y-43180000D02*
X185420000Y-41910000D01*
X179070000Y-72644000D02*
X179360000Y-72354000D01*
X181610000Y-70104000D02*
X181610000Y-67818000D01*
X185420000Y-41910000D02*
X185420000Y-33020000D01*
X175895000Y-41275000D02*
X175260000Y-40640000D01*
X215900000Y-41636000D02*
X216662000Y-41636000D01*
X215965000Y-48589530D02*
X215965000Y-54421000D01*
X175260000Y-40640000D02*
X175260000Y-33020000D01*
X216859000Y-47695530D02*
X215965000Y-48589530D01*
X217113000Y-42087000D02*
X217113000Y-45409530D01*
X215965000Y-54421000D02*
X218455723Y-56911723D01*
X217113000Y-45409530D02*
X216859000Y-45663530D01*
X216859000Y-45663530D02*
X216859000Y-47695530D01*
X216662000Y-41636000D02*
X217113000Y-42087000D01*
X107990000Y-71120000D02*
X110490000Y-73620000D01*
X110490000Y-73620000D02*
X110490000Y-83820000D01*
X107950000Y-91440000D02*
X106680000Y-90170000D01*
X109220000Y-65312203D02*
X106680000Y-67852203D01*
X106680000Y-74890000D02*
X107990000Y-76200000D01*
X106680000Y-90170000D02*
X106680000Y-77510000D01*
X106680000Y-77510000D02*
X107990000Y-76200000D01*
X106680000Y-67852203D02*
X106680000Y-74890000D01*
X112268000Y-60960000D02*
X109220000Y-64008000D01*
X109220000Y-64008000D02*
X109220000Y-65312203D01*
X119507000Y-69723000D02*
X120650000Y-68580000D01*
X111760000Y-80518000D02*
X111760000Y-70612000D01*
X112649000Y-69723000D02*
X119507000Y-69723000D01*
X113157000Y-81915000D02*
X111760000Y-80518000D01*
X115570000Y-83820000D02*
X113665000Y-81915000D01*
X113665000Y-81915000D02*
X113157000Y-81915000D01*
X111760000Y-70612000D02*
X112649000Y-69723000D01*
X253549000Y-37649000D02*
X254705530Y-37649000D01*
X136398000Y-92710000D02*
X137160000Y-91948000D01*
X137160000Y-91948000D02*
X137160000Y-87630000D01*
X254705530Y-37649000D02*
X262890000Y-45833470D01*
X262890000Y-53594000D02*
X261620000Y-54864000D01*
X154940000Y-61087000D02*
X154940000Y-71374000D01*
X138430000Y-81026000D02*
X138430000Y-76200000D01*
X248920000Y-33020000D02*
X253549000Y-37649000D01*
X137160000Y-87630000D02*
X139700000Y-85090000D01*
X139700000Y-82296000D02*
X138430000Y-81026000D01*
X154940000Y-71374000D02*
X154178000Y-72136000D01*
X262890000Y-45833470D02*
X262890000Y-53594000D01*
X139700000Y-85090000D02*
X139700000Y-82296000D01*
X109076000Y-84946000D02*
X107950000Y-83820000D01*
X116840000Y-81280000D02*
X116840000Y-84142405D01*
X116840000Y-84142405D02*
X116036405Y-84946000D01*
X116036405Y-84946000D02*
X109076000Y-84946000D01*
X123444000Y-94234000D02*
X121793000Y-94234000D01*
X125222000Y-80010000D02*
X124460000Y-80772000D01*
X128016000Y-80010000D02*
X125222000Y-80010000D01*
X129089000Y-78937000D02*
X128016000Y-80010000D01*
X129089000Y-66615190D02*
X129089000Y-78937000D01*
X124460000Y-80772000D02*
X124460000Y-93218000D01*
X131826000Y-63878190D02*
X129089000Y-66615190D01*
X124460000Y-93218000D02*
X123444000Y-94234000D01*
X132588000Y-60415000D02*
X131826000Y-61177000D01*
X131826000Y-61177000D02*
X131826000Y-63878190D01*
X120650000Y-81280000D02*
X119380000Y-82550000D01*
X119380000Y-82550000D02*
X119380000Y-87630000D01*
X119380000Y-87630000D02*
X115570000Y-91440000D01*
X175260000Y-63500000D02*
X175260000Y-59547000D01*
X238760000Y-51816000D02*
X240030000Y-50546000D01*
X161290064Y-60705936D02*
X159569000Y-62427000D01*
X143510000Y-78740000D02*
X140970000Y-81280000D01*
X159569000Y-73132000D02*
X159004000Y-73697000D01*
X143510000Y-76200000D02*
X143510000Y-78740000D01*
X240030000Y-34290000D02*
X241300000Y-33020000D01*
X159569000Y-62427000D02*
X159569000Y-73132000D01*
X240030000Y-50546000D02*
X240030000Y-34290000D01*
X177800000Y-63500000D02*
X177800000Y-60997000D01*
X242570000Y-34290000D02*
X242570000Y-58928000D01*
X140970000Y-80010000D02*
X140970000Y-76200000D01*
X243840000Y-33020000D02*
X242570000Y-34290000D01*
X159118000Y-61852694D02*
X159118000Y-71768000D01*
X160269347Y-60701347D02*
X159118000Y-61852694D01*
X159118000Y-71768000D02*
X157988000Y-72898000D01*
X198628000Y-62484000D02*
X198628000Y-58106455D01*
X198628000Y-58106455D02*
X198606519Y-58084974D01*
X179070000Y-71501000D02*
X179070000Y-68072000D01*
X182880000Y-71501000D02*
X182880000Y-76200000D01*
X176657000Y-45593000D02*
X176530000Y-45466000D01*
X176657000Y-65659000D02*
X176657000Y-45593000D01*
X179070000Y-68072000D02*
X176657000Y-65659000D01*
X165100000Y-36830000D02*
X161290000Y-33020000D01*
X165100000Y-53340000D02*
X165100000Y-36830000D01*
X146050000Y-91440000D02*
X143510000Y-88900000D01*
X149860000Y-82550000D02*
X149860000Y-57150000D01*
X143510000Y-88900000D02*
X143510000Y-83820000D01*
X149860000Y-57150000D02*
X148590000Y-55880000D01*
X148590000Y-55880000D02*
X148590000Y-50800000D01*
X151130000Y-83820000D02*
X149860000Y-82550000D01*
X147320000Y-67310000D02*
X147320000Y-50038000D01*
X149860000Y-49530000D02*
X151130000Y-48260000D01*
X147320000Y-50038000D02*
X147828000Y-49530000D01*
X148590000Y-68580000D02*
X147320000Y-67310000D01*
X147828000Y-49530000D02*
X149860000Y-49530000D01*
X179214000Y-42455000D02*
X179214000Y-48878000D01*
X179214000Y-48878000D02*
X177800000Y-50292000D01*
X187960000Y-80809000D02*
X187960000Y-83820000D01*
X187415000Y-80264000D02*
X187960000Y-80809000D01*
X163068000Y-80367000D02*
X163068000Y-72136000D01*
X175768000Y-72898000D02*
X175768000Y-71120000D01*
X160020000Y-62992000D02*
X160020000Y-74422000D01*
X173990000Y-69342000D02*
X173990000Y-64770000D01*
X161302653Y-61718653D02*
X161293347Y-61718653D01*
X175768000Y-71120000D02*
X173990000Y-69342000D01*
X173990000Y-64770000D02*
X172720000Y-63500000D01*
X161293347Y-61718653D02*
X160020000Y-62992000D01*
X149860000Y-91117596D02*
X149860000Y-96025115D01*
X149961600Y-95923515D02*
X149961600Y-95910400D01*
X148590000Y-83820000D02*
X148123595Y-84286405D01*
X168910000Y-89651810D02*
X168910000Y-96012000D01*
X148123595Y-84286405D02*
X148123595Y-89381190D01*
X148123595Y-89381190D02*
X149860000Y-91117596D01*
X149860000Y-96025115D02*
X149961600Y-95923515D01*
X170688000Y-86614000D02*
X170688000Y-87873810D01*
X170688000Y-87873810D02*
X168910000Y-89651810D01*
X228694000Y-86041216D02*
X226315284Y-86041216D01*
X224790000Y-87566500D02*
X224790000Y-90170000D01*
X226315284Y-86041216D02*
X224790000Y-87566500D01*
X258572000Y-81026000D02*
X258572000Y-91948000D01*
X172720000Y-88138000D02*
X172720000Y-86614000D01*
X200152000Y-58060765D02*
X200152000Y-58928000D01*
X271780000Y-33020000D02*
X268034000Y-36766000D01*
X227330000Y-64252695D02*
X227330000Y-58420000D01*
X191443000Y-61903000D02*
X193113000Y-61903000D01*
X224754999Y-66827696D02*
X227330000Y-64252695D01*
X227330000Y-58420000D02*
X228346000Y-57404000D01*
X193113000Y-61903000D02*
X194818000Y-60198000D01*
X190500000Y-60960000D02*
X191443000Y-61903000D01*
X228346000Y-57404000D02*
X229362000Y-57404000D01*
X190500000Y-57472000D02*
X190500000Y-60960000D01*
X200914000Y-59690000D02*
X200914000Y-67564000D01*
X268034000Y-54610000D02*
X268034000Y-58610000D01*
X194818000Y-60198000D02*
X194818000Y-57912000D01*
X200152000Y-58928000D02*
X200914000Y-59690000D01*
X268034000Y-36766000D02*
X268034000Y-54610000D01*
X185420000Y-72768190D02*
X185420000Y-76200000D01*
X184150000Y-59690000D02*
X184150000Y-65278000D01*
X186690000Y-71498190D02*
X185420000Y-72768190D01*
X186690000Y-67818000D02*
X186690000Y-71498190D01*
X184150000Y-65278000D02*
X186690000Y-67818000D01*
X180340000Y-55880000D02*
X184150000Y-59690000D01*
X183908116Y-66804810D02*
X182880000Y-65776694D01*
X182880000Y-65776694D02*
X182880000Y-63500000D01*
X216408000Y-38110720D02*
X217678000Y-39380720D01*
X257302000Y-31242000D02*
X259080000Y-33020000D01*
X216408000Y-33565000D02*
X218731000Y-31242000D01*
X193040000Y-55880000D02*
X193040000Y-49911000D01*
X217678000Y-39380720D02*
X217678000Y-46736000D01*
X218731000Y-31242000D02*
X257302000Y-31242000D01*
X216408000Y-33565000D02*
X216408000Y-38110720D01*
X189230000Y-72898000D02*
X189230000Y-74930000D01*
X189230000Y-74930000D02*
X187960000Y-76200000D01*
X193912000Y-62374000D02*
X192134000Y-62374000D01*
X187960000Y-64008000D02*
X191770000Y-67818000D01*
X195580000Y-60706000D02*
X193912000Y-62374000D01*
X200794380Y-56020000D02*
X199000804Y-56020000D01*
X187960000Y-63500000D02*
X187960000Y-64008000D01*
X191770000Y-62738000D02*
X191770000Y-63246000D01*
X191770000Y-67818000D02*
X191770000Y-70358000D01*
X197704340Y-54723536D02*
X197341726Y-54723536D01*
X275590000Y-67310000D02*
X271780000Y-63500000D01*
X192134000Y-62374000D02*
X191770000Y-62738000D01*
X201676000Y-63246000D02*
X201676000Y-56901620D01*
X191516000Y-63500000D02*
X190500000Y-63500000D01*
X195037797Y-54610000D02*
X194310000Y-55337797D01*
X276860000Y-80010000D02*
X275590000Y-78740000D01*
X194310000Y-56202404D02*
X195580000Y-57472404D01*
X195580000Y-57472404D02*
X195580000Y-60706000D01*
X194310000Y-55337797D02*
X194310000Y-56202404D01*
X275590000Y-78740000D02*
X275590000Y-67310000D01*
X197341726Y-54723536D02*
X197228190Y-54610000D01*
X197228190Y-54610000D02*
X195037797Y-54610000D01*
X191770000Y-63246000D02*
X191516000Y-63500000D01*
X199000804Y-56020000D02*
X197704340Y-54723536D01*
X201676000Y-56901620D02*
X200794380Y-56020000D01*
X276860000Y-81280000D02*
X276860000Y-80010000D01*
X191770000Y-70358000D02*
X189230000Y-72898000D01*
X241300000Y-78611502D02*
X241300000Y-77216000D01*
X271780000Y-73660000D02*
X274320000Y-71120000D01*
X163830000Y-81407000D02*
X163195000Y-82042000D01*
X271780000Y-76200000D02*
X271780000Y-73660000D01*
X163830000Y-58784000D02*
X163830000Y-81407000D01*
X189357000Y-81280000D02*
X190572000Y-80065000D01*
X274320000Y-71120000D02*
X274320000Y-68580000D01*
X190572000Y-80065000D02*
X190500000Y-79993000D01*
X239638238Y-80273264D02*
X241300000Y-78611502D01*
X164338000Y-58276000D02*
X163830000Y-58784000D01*
X190500000Y-79993000D02*
X190500000Y-76200000D01*
X261874000Y-30734000D02*
X216154000Y-30734000D01*
X196596000Y-37846000D02*
X196596000Y-44704000D01*
X264160000Y-33020000D02*
X261874000Y-30734000D01*
X190754000Y-52070000D02*
X190754000Y-50038000D01*
X213614000Y-33274000D02*
X213614000Y-37846000D01*
X190500000Y-52324000D02*
X190754000Y-52070000D01*
X216154000Y-30734000D02*
X213614000Y-33274000D01*
X190500000Y-55880000D02*
X190500000Y-52324000D01*
X251460000Y-33020000D02*
X251460000Y-32258000D01*
X251460000Y-32258000D02*
X250952000Y-31750000D01*
X250952000Y-31750000D02*
X219710000Y-31750000D01*
X187960000Y-50535280D02*
X189230000Y-49265280D01*
X189230000Y-49265280D02*
X189230000Y-37338000D01*
X219710000Y-31750000D02*
X217170000Y-34290000D01*
X217170000Y-34290000D02*
X217170000Y-37846000D01*
X187960000Y-55880000D02*
X187960000Y-50535280D01*
X269240000Y-68580000D02*
X270510000Y-67310000D01*
X270510000Y-67310000D02*
X270510000Y-62992000D01*
X180340000Y-68580000D02*
X180340000Y-65541305D01*
X266700000Y-59182000D02*
X266700000Y-55880000D01*
X180340000Y-65541305D02*
X180333021Y-65534326D01*
X270510000Y-62992000D02*
X266700000Y-59182000D01*
X265430000Y-60325000D02*
X265430000Y-36830000D01*
X265430000Y-36830000D02*
X269240000Y-33020000D01*
X242316000Y-73914000D02*
X244602000Y-76200000D01*
X267970000Y-69088000D02*
X267970000Y-62865000D01*
X204329347Y-75337500D02*
X204333847Y-75333000D01*
X266700000Y-76200000D02*
X266700000Y-70358000D01*
X204333847Y-75333000D02*
X208534000Y-75333000D01*
X204274847Y-75337500D02*
X204329347Y-75337500D01*
X267970000Y-62865000D02*
X265430000Y-60325000D01*
X266700000Y-70358000D02*
X267970000Y-69088000D01*
X172720000Y-76200000D02*
X172720000Y-72136000D01*
X172212000Y-71628000D02*
X171196000Y-71628000D01*
X165100000Y-66040000D02*
X165100000Y-70358000D01*
X172720000Y-72136000D02*
X172212000Y-71628000D01*
X269240000Y-71501000D02*
X269240000Y-76200000D01*
X268605000Y-70866000D02*
X269240000Y-71501000D01*
X250190000Y-87630000D02*
X248920000Y-88900000D01*
X250190000Y-65499000D02*
X250190000Y-87630000D01*
X255905000Y-59784000D02*
X250190000Y-65499000D01*
X223774000Y-87376000D02*
X223774000Y-90170000D01*
X226108787Y-85041213D02*
X223774000Y-87376000D01*
X228694000Y-85041213D02*
X226108787Y-85041213D01*
X266700000Y-78740000D02*
X264160000Y-76200000D01*
X266700000Y-85725000D02*
X266700000Y-81280000D01*
X266700000Y-68580000D02*
X264160000Y-71120000D01*
X271780000Y-83820000D02*
X274320000Y-81280000D01*
X264160000Y-88265000D02*
X266700000Y-85725000D01*
X282575000Y-67310000D02*
X282575000Y-42545000D01*
X264160000Y-88900000D02*
X264160000Y-88265000D01*
X264160000Y-71120000D02*
X264160000Y-76200000D01*
X282575000Y-42545000D02*
X292100000Y-33020000D01*
X266700000Y-81280000D02*
X266700000Y-78740000D01*
X271780000Y-88900000D02*
X271780000Y-83820000D01*
X288290000Y-77470000D02*
X287020000Y-78740000D01*
X293370000Y-77470000D02*
X288290000Y-77470000D01*
X288290000Y-74930000D02*
X287020000Y-76200000D01*
X293370000Y-74930000D02*
X288290000Y-74930000D01*
X276860000Y-76200000D02*
X276860000Y-73025000D01*
X276860000Y-73025000D02*
X278130000Y-71755000D01*
X278130000Y-57150000D02*
X276860000Y-55880000D01*
X278130000Y-71755000D02*
X278130000Y-57150000D01*
X275590000Y-64296203D02*
X275590000Y-62230000D01*
X276860000Y-68580000D02*
X276860000Y-65566203D01*
X275590000Y-62230000D02*
X269240000Y-55880000D01*
X276860000Y-65566203D02*
X275590000Y-64296203D01*
X252730000Y-83566000D02*
X250641000Y-85655000D01*
X250641000Y-85655000D02*
X250641000Y-87816810D01*
X250190000Y-88267810D02*
X250190000Y-89408000D01*
X247650000Y-90170000D02*
X246380000Y-88900000D01*
X252730000Y-64829100D02*
X252730000Y-83566000D01*
X255874101Y-61684999D02*
X252730000Y-64829100D01*
X250641000Y-87816810D02*
X250190000Y-88267810D01*
X249428000Y-90170000D02*
X247650000Y-90170000D01*
X250190000Y-89408000D02*
X249428000Y-90170000D01*
X271780000Y-81280000D02*
X270654000Y-80154000D01*
X278130000Y-96520000D02*
X278130000Y-83185000D01*
X270654000Y-80154000D02*
X270654000Y-69706000D01*
X274828000Y-80010000D02*
X273050000Y-80010000D01*
X275590000Y-81788000D02*
X275590000Y-80772000D01*
X276860000Y-97790000D02*
X278130000Y-96520000D01*
X276208000Y-82406000D02*
X275590000Y-81788000D01*
X278130000Y-83185000D02*
X277351000Y-82406000D01*
X275590000Y-80772000D02*
X274828000Y-80010000D01*
X277351000Y-82406000D02*
X276208000Y-82406000D01*
X273050000Y-80010000D02*
X271780000Y-81280000D01*
X270654000Y-69706000D02*
X271780000Y-68580000D01*
X251460000Y-76200000D02*
X251460000Y-81280000D01*
X258278000Y-73152000D02*
X260350000Y-71080000D01*
X254000000Y-74168000D02*
X255016000Y-73152000D01*
X255016000Y-73152000D02*
X258278000Y-73152000D01*
X254000000Y-81280000D02*
X254000000Y-74168000D01*
X266700000Y-88900000D02*
X266700000Y-93345000D01*
X262255000Y-97790000D02*
X261620000Y-97790000D01*
X266700000Y-93345000D02*
X262255000Y-97790000D01*
X270510000Y-82550000D02*
X269240000Y-81280000D01*
X271313595Y-90170000D02*
X270510000Y-89366405D01*
X274320000Y-88900000D02*
X273050000Y-90170000D01*
X273050000Y-90170000D02*
X271313595Y-90170000D01*
X270510000Y-89366405D02*
X270510000Y-82550000D01*
X102870000Y-59690000D02*
X102870000Y-64770000D01*
X105410000Y-57150000D02*
X102870000Y-59690000D01*
X194310000Y-69088000D02*
X189681000Y-73717000D01*
X200660000Y-83820000D02*
X200660000Y-77978000D01*
X192058202Y-65786000D02*
X194310000Y-68037798D01*
X189681000Y-73717000D02*
X189681000Y-75116810D01*
X189681000Y-75116810D02*
X189230000Y-75567810D01*
X191262000Y-65786000D02*
X192058202Y-65786000D01*
X189230000Y-75567810D02*
X189230000Y-77470000D01*
X194310000Y-68037798D02*
X194310000Y-69088000D01*
X282820000Y-104580000D02*
X282820000Y-99577000D01*
M02*
