G04 #@! TF.GenerationSoftware,KiCad,Pcbnew,9.0.7*
G04 #@! TF.CreationDate,2026-03-29T22:08:35+02:00*
G04 #@! TF.ProjectId,Apple2Card,4170706c-6532-4436-9172-642e6b696361,rev?*
G04 #@! TF.SameCoordinates,Original*
G04 #@! TF.FileFunction,Soldermask,Top*
G04 #@! TF.FilePolarity,Negative*
%FSLAX46Y46*%
G04 Gerber Fmt 4.6, Leading zero omitted, Abs format (unit mm)*
G04 Created by KiCad (PCBNEW 9.0.7) date 2026-03-29 22:08:35*
%MOMM*%
%LPD*%
G01*
G04 APERTURE LIST*
G04 Aperture macros list*
%AMRoundRect*
0 Rectangle with rounded corners*
0 $1 Rounding radius*
0 $2 $3 $4 $5 $6 $7 $8 $9 X,Y pos of 4 corners*
0 Add a 4 corners polygon primitive as box body*
4,1,4,$2,$3,$4,$5,$6,$7,$8,$9,$2,$3,0*
0 Add four circle primitives for the rounded corners*
1,1,$1+$1,$2,$3*
1,1,$1+$1,$4,$5*
1,1,$1+$1,$6,$7*
1,1,$1+$1,$8,$9*
0 Add four rect primitives between the rounded corners*
20,1,$1+$1,$2,$3,$4,$5,0*
20,1,$1+$1,$4,$5,$6,$7,0*
20,1,$1+$1,$6,$7,$8,$9,0*
20,1,$1+$1,$8,$9,$2,$3,0*%
G04 Aperture macros list end*
%ADD10C,1.600000*%
%ADD11RoundRect,0.250000X0.550000X-0.550000X0.550000X0.550000X-0.550000X0.550000X-0.550000X-0.550000X0*%
%ADD12RoundRect,0.250000X-0.600000X-0.600000X0.600000X-0.600000X0.600000X0.600000X-0.600000X0.600000X0*%
%ADD13C,1.700000*%
%ADD14R,1.600000X1.600000*%
%ADD15R,1.270000X8.530000*%
%ADD16R,1.910000X8.530000*%
%ADD17RoundRect,0.250000X-0.550000X0.550000X-0.550000X-0.550000X0.550000X-0.550000X0.550000X0.550000X0*%
%ADD18R,1.700000X1.700000*%
G04 APERTURE END LIST*
D10*
X168910000Y-57150000D03*
X168910000Y-62150000D03*
X161290000Y-66040000D03*
X161290000Y-53340000D03*
X245110000Y-93980000D03*
X257810000Y-93980000D03*
X285750000Y-96520000D03*
X285750000Y-91520000D03*
D11*
X138430000Y-55880000D03*
D10*
X140970000Y-55880000D03*
X143510000Y-55880000D03*
X146050000Y-55880000D03*
X148590000Y-55880000D03*
X151130000Y-55880000D03*
X153670000Y-55880000D03*
X153670000Y-48260000D03*
X151130000Y-48260000D03*
X148590000Y-48260000D03*
X146050000Y-48260000D03*
X143510000Y-48260000D03*
X140970000Y-48260000D03*
X138430000Y-48260000D03*
D11*
X138430000Y-76200000D03*
D10*
X140970000Y-76200000D03*
X143510000Y-76200000D03*
X146050000Y-76200000D03*
X148590000Y-76200000D03*
X151130000Y-76200000D03*
X153670000Y-76200000D03*
X156210000Y-76200000D03*
X156210000Y-68580000D03*
X153670000Y-68580000D03*
X151130000Y-68580000D03*
X148590000Y-68580000D03*
X146050000Y-68580000D03*
X143510000Y-68580000D03*
X140970000Y-68580000D03*
X138430000Y-68580000D03*
D11*
X172720000Y-76200000D03*
D10*
X175260000Y-76200000D03*
X177800000Y-76200000D03*
X180340000Y-76200000D03*
X182880000Y-76200000D03*
X185420000Y-76200000D03*
X187960000Y-76200000D03*
X190500000Y-76200000D03*
X193040000Y-76200000D03*
X195580000Y-76200000D03*
X195580000Y-68580000D03*
X193040000Y-68580000D03*
X190500000Y-68580000D03*
X187960000Y-68580000D03*
X185420000Y-68580000D03*
X182880000Y-68580000D03*
X180340000Y-68580000D03*
X177800000Y-68580000D03*
X175260000Y-68580000D03*
X172720000Y-68580000D03*
X238760000Y-76200000D03*
X251460000Y-76200000D03*
D11*
X198120000Y-91440000D03*
D10*
X200660000Y-91440000D03*
X203200000Y-91440000D03*
X205740000Y-91440000D03*
X208280000Y-91440000D03*
X210820000Y-91440000D03*
X213360000Y-91440000D03*
X215900000Y-91440000D03*
X218440000Y-91440000D03*
X220980000Y-91440000D03*
X220980000Y-83820000D03*
X218440000Y-83820000D03*
X215900000Y-83820000D03*
X213360000Y-83820000D03*
X210820000Y-83820000D03*
X208280000Y-83820000D03*
X205740000Y-83820000D03*
X203200000Y-83820000D03*
X200660000Y-83820000D03*
X198120000Y-83820000D03*
X283210000Y-91440000D03*
X283210000Y-96440000D03*
X264160000Y-78740000D03*
X269160000Y-78740000D03*
X130810000Y-68580000D03*
X130810000Y-81280000D03*
D11*
X107950000Y-52070000D03*
D10*
X110490000Y-52070000D03*
X113030000Y-52070000D03*
X115570000Y-52070000D03*
X118110000Y-52070000D03*
X120650000Y-52070000D03*
X123190000Y-52070000D03*
X125730000Y-52070000D03*
X125730000Y-44450000D03*
X123190000Y-44450000D03*
X120650000Y-44450000D03*
X118110000Y-44450000D03*
X115570000Y-44450000D03*
X113030000Y-44450000D03*
X110490000Y-44450000D03*
X107950000Y-44450000D03*
X99060000Y-58460000D03*
X99060000Y-63460000D03*
D12*
X287020000Y-48260000D03*
D13*
X287020000Y-50800000D03*
X287020000Y-53340000D03*
X287020000Y-55880000D03*
X287020000Y-58420000D03*
X287020000Y-60960000D03*
X287020000Y-63500000D03*
X287020000Y-66040000D03*
X287020000Y-68580000D03*
X287020000Y-71120000D03*
X287020000Y-73660000D03*
X287020000Y-76200000D03*
X287020000Y-78740000D03*
X289560000Y-48260000D03*
X289560000Y-50800000D03*
X289560000Y-53340000D03*
X289560000Y-55880000D03*
X289560000Y-58420000D03*
X289560000Y-60960000D03*
X289560000Y-63500000D03*
X289560000Y-66040000D03*
X289560000Y-68580000D03*
X289560000Y-71120000D03*
X289560000Y-73660000D03*
X289560000Y-76200000D03*
X289560000Y-78740000D03*
D10*
X260985000Y-82550000D03*
X260985000Y-87550000D03*
X134620000Y-69890000D03*
X134620000Y-74890000D03*
D14*
X102870000Y-54610000D03*
D10*
X105410000Y-54610000D03*
X107950000Y-54610000D03*
X110490000Y-54610000D03*
X113030000Y-54610000D03*
X115570000Y-54610000D03*
X118110000Y-54610000D03*
X120650000Y-54610000D03*
X123190000Y-54610000D03*
X125730000Y-54610000D03*
X168910000Y-69850000D03*
X168910000Y-74850000D03*
X151130000Y-60960000D03*
X138430000Y-60960000D03*
D11*
X264160000Y-63500000D03*
D10*
X266700000Y-63500000D03*
X269240000Y-63500000D03*
X271780000Y-63500000D03*
X274320000Y-63500000D03*
X276860000Y-63500000D03*
X279400000Y-63500000D03*
X279400000Y-55880000D03*
X276860000Y-55880000D03*
X274320000Y-55880000D03*
X271780000Y-55880000D03*
X269240000Y-55880000D03*
X266700000Y-55880000D03*
X264160000Y-55880000D03*
X134620000Y-49610000D03*
X134620000Y-54610000D03*
X248920000Y-97790000D03*
X261620000Y-97790000D03*
D15*
X226686000Y-104580000D03*
X229480000Y-104580000D03*
X232020000Y-104580000D03*
X234560000Y-104580000D03*
X237100000Y-104580000D03*
X239640000Y-104580000D03*
X242180000Y-104580000D03*
X244720000Y-104580000D03*
X247260000Y-104580000D03*
X249800000Y-104580000D03*
X252340000Y-104580000D03*
X254880000Y-104580000D03*
X257420000Y-104580000D03*
X259960000Y-104580000D03*
X262500000Y-104580000D03*
X265040000Y-104580000D03*
X267580000Y-104580000D03*
X270120000Y-104580000D03*
X272660000Y-104580000D03*
X275200000Y-104580000D03*
X277740000Y-104580000D03*
X280280000Y-104580000D03*
X282820000Y-104580000D03*
X285360000Y-104580000D03*
D16*
X288154000Y-104580000D03*
D11*
X172720000Y-63500000D03*
D10*
X175260000Y-63500000D03*
X177800000Y-63500000D03*
X180340000Y-63500000D03*
X182880000Y-63500000D03*
X185420000Y-63500000D03*
X187960000Y-63500000D03*
X190500000Y-63500000D03*
X193040000Y-63500000D03*
X195580000Y-63500000D03*
X195580000Y-55880000D03*
X193040000Y-55880000D03*
X190500000Y-55880000D03*
X187960000Y-55880000D03*
X185420000Y-55880000D03*
X182880000Y-55880000D03*
X180340000Y-55880000D03*
X177800000Y-55880000D03*
X175260000Y-55880000D03*
X172720000Y-55880000D03*
X276860000Y-97790000D03*
X264160000Y-97790000D03*
X120650000Y-68580000D03*
X120650000Y-81280000D03*
X194310000Y-85130000D03*
X194310000Y-90130000D03*
X116840000Y-68580000D03*
X116840000Y-81280000D03*
X107990000Y-71120000D03*
X112990000Y-71120000D03*
D11*
X102870000Y-64770000D03*
D10*
X105410000Y-64770000D03*
X107950000Y-64770000D03*
X110490000Y-64770000D03*
X113030000Y-64770000D03*
X115570000Y-64770000D03*
X118110000Y-64770000D03*
X120650000Y-64770000D03*
X123190000Y-64770000D03*
X125730000Y-64770000D03*
X125730000Y-57150000D03*
X123190000Y-57150000D03*
X120650000Y-57150000D03*
X118110000Y-57150000D03*
X115570000Y-57150000D03*
X113030000Y-57150000D03*
X110490000Y-57150000D03*
X107950000Y-57150000D03*
X105410000Y-57150000D03*
X102870000Y-57150000D03*
D11*
X223520000Y-71120000D03*
D10*
X226060000Y-71120000D03*
X228600000Y-71120000D03*
X231140000Y-71120000D03*
X233680000Y-71120000D03*
X236220000Y-71120000D03*
X238760000Y-71120000D03*
X241300000Y-71120000D03*
X243840000Y-71120000D03*
X246380000Y-71120000D03*
X248920000Y-71120000D03*
X251460000Y-71120000D03*
X254000000Y-71120000D03*
X256540000Y-71120000D03*
X256540000Y-55880000D03*
X254000000Y-55880000D03*
X251460000Y-55880000D03*
X248920000Y-55880000D03*
X246380000Y-55880000D03*
X243840000Y-55880000D03*
X241300000Y-55880000D03*
X238760000Y-55880000D03*
X236220000Y-55880000D03*
X233680000Y-55880000D03*
X231140000Y-55880000D03*
X228600000Y-55880000D03*
X226060000Y-55880000D03*
X223520000Y-55880000D03*
D11*
X264160000Y-76200000D03*
D10*
X266700000Y-76200000D03*
X269240000Y-76200000D03*
X271780000Y-76200000D03*
X274320000Y-76200000D03*
X276860000Y-76200000D03*
X279400000Y-76200000D03*
X279400000Y-68580000D03*
X276860000Y-68580000D03*
X274320000Y-68580000D03*
X271780000Y-68580000D03*
X269240000Y-68580000D03*
X266700000Y-68580000D03*
X264160000Y-68580000D03*
X165100000Y-53340000D03*
X165100000Y-66040000D03*
D11*
X264160000Y-88900000D03*
D10*
X266700000Y-88900000D03*
X269240000Y-88900000D03*
X271780000Y-88900000D03*
X274320000Y-88900000D03*
X276860000Y-88900000D03*
X279400000Y-88900000D03*
X279400000Y-81280000D03*
X276860000Y-81280000D03*
X274320000Y-81280000D03*
X271780000Y-81280000D03*
X269240000Y-81280000D03*
X266700000Y-81280000D03*
X264160000Y-81280000D03*
X238125000Y-82550000D03*
X238125000Y-87550000D03*
D17*
X294640000Y-81280000D03*
D10*
X294640000Y-88900000D03*
D11*
X102870000Y-91440000D03*
D10*
X105410000Y-91440000D03*
X107950000Y-91440000D03*
X110490000Y-91440000D03*
X113030000Y-91440000D03*
X115570000Y-91440000D03*
X118110000Y-91440000D03*
X118110000Y-83820000D03*
X115570000Y-83820000D03*
X113030000Y-83820000D03*
X110490000Y-83820000D03*
X107950000Y-83820000D03*
X105410000Y-83820000D03*
X102870000Y-83820000D03*
X107990000Y-80010000D03*
X112990000Y-80010000D03*
X264160000Y-53340000D03*
X269160000Y-53340000D03*
X134620000Y-85725000D03*
X134620000Y-90725000D03*
X125730000Y-68580000D03*
X125730000Y-81280000D03*
D18*
X107950000Y-49530000D03*
D13*
X110490000Y-49530000D03*
X113030000Y-49530000D03*
X115570000Y-49530000D03*
X118110000Y-49530000D03*
X120650000Y-49530000D03*
X123190000Y-49530000D03*
X125730000Y-49530000D03*
D11*
X241300000Y-88900000D03*
D10*
X243840000Y-88900000D03*
X246380000Y-88900000D03*
X248920000Y-88900000D03*
X251460000Y-88900000D03*
X254000000Y-88900000D03*
X256540000Y-88900000D03*
X256540000Y-81280000D03*
X254000000Y-81280000D03*
X251460000Y-81280000D03*
X248920000Y-81280000D03*
X246380000Y-81280000D03*
X243840000Y-81280000D03*
X241300000Y-81280000D03*
X107990000Y-76200000D03*
X112990000Y-76200000D03*
D11*
X172720000Y-48260000D03*
D10*
X175260000Y-48260000D03*
X177800000Y-48260000D03*
X180340000Y-48260000D03*
X182880000Y-48260000D03*
X185420000Y-48260000D03*
X187960000Y-48260000D03*
X190500000Y-48260000D03*
X193040000Y-48260000D03*
X195580000Y-48260000D03*
X198120000Y-48260000D03*
X200660000Y-48260000D03*
X203200000Y-48260000D03*
X205740000Y-48260000D03*
X205740000Y-33020000D03*
X203200000Y-33020000D03*
X200660000Y-33020000D03*
X198120000Y-33020000D03*
X195580000Y-33020000D03*
X193040000Y-33020000D03*
X190500000Y-33020000D03*
X187960000Y-33020000D03*
X185420000Y-33020000D03*
X182880000Y-33020000D03*
X180340000Y-33020000D03*
X177800000Y-33020000D03*
X175260000Y-33020000D03*
X172720000Y-33020000D03*
D11*
X223520000Y-48260000D03*
D10*
X226060000Y-48260000D03*
X228600000Y-48260000D03*
X231140000Y-48260000D03*
X233680000Y-48260000D03*
X236220000Y-48260000D03*
X238760000Y-48260000D03*
X241300000Y-48260000D03*
X243840000Y-48260000D03*
X246380000Y-48260000D03*
X248920000Y-48260000D03*
X251460000Y-48260000D03*
X254000000Y-48260000D03*
X256540000Y-48260000D03*
X259080000Y-48260000D03*
X261620000Y-48260000D03*
X264160000Y-48260000D03*
X266700000Y-48260000D03*
X269240000Y-48260000D03*
X271780000Y-48260000D03*
X271780000Y-33020000D03*
X269240000Y-33020000D03*
X266700000Y-33020000D03*
X264160000Y-33020000D03*
X261620000Y-33020000D03*
X259080000Y-33020000D03*
X256540000Y-33020000D03*
X254000000Y-33020000D03*
X251460000Y-33020000D03*
X248920000Y-33020000D03*
X246380000Y-33020000D03*
X243840000Y-33020000D03*
X241300000Y-33020000D03*
X238760000Y-33020000D03*
X236220000Y-33020000D03*
X233680000Y-33020000D03*
X231140000Y-33020000D03*
X228600000Y-33020000D03*
X226060000Y-33020000D03*
X223520000Y-33020000D03*
X219710000Y-61000000D03*
X219710000Y-66000000D03*
X168910000Y-38100000D03*
X168910000Y-43100000D03*
D11*
X143510000Y-40640000D03*
D10*
X146050000Y-40640000D03*
X148590000Y-40640000D03*
X151130000Y-40640000D03*
X153670000Y-40640000D03*
X156210000Y-40640000D03*
X158750000Y-40640000D03*
X161290000Y-40640000D03*
X161290000Y-33020000D03*
X158750000Y-33020000D03*
X156210000Y-33020000D03*
X153670000Y-33020000D03*
X151130000Y-33020000D03*
X148590000Y-33020000D03*
X146050000Y-33020000D03*
X143510000Y-33020000D03*
D14*
X203200000Y-80010000D03*
D10*
X205740000Y-80010000D03*
X208280000Y-80010000D03*
X210820000Y-80010000D03*
X213360000Y-80010000D03*
X215900000Y-80010000D03*
X218440000Y-80010000D03*
X220980000Y-80010000D03*
X223520000Y-80010000D03*
X226060000Y-80010000D03*
D11*
X294640000Y-95185113D03*
D10*
X294640000Y-92685113D03*
X276860000Y-93980000D03*
X264160000Y-93980000D03*
X264160000Y-66040000D03*
X269160000Y-66040000D03*
X219710000Y-38100000D03*
X219710000Y-43100000D03*
X279400000Y-33020000D03*
X292100000Y-33020000D03*
X161925000Y-85130000D03*
X161925000Y-90130000D03*
X99060000Y-85130000D03*
X99060000Y-90130000D03*
D11*
X165100000Y-91440000D03*
D10*
X167640000Y-91440000D03*
X170180000Y-91440000D03*
X172720000Y-91440000D03*
X175260000Y-91440000D03*
X177800000Y-91440000D03*
X180340000Y-91440000D03*
X182880000Y-91440000D03*
X185420000Y-91440000D03*
X187960000Y-91440000D03*
X187960000Y-83820000D03*
X185420000Y-83820000D03*
X182880000Y-83820000D03*
X180340000Y-83820000D03*
X177800000Y-83820000D03*
X175260000Y-83820000D03*
X172720000Y-83820000D03*
X170180000Y-83820000D03*
X167640000Y-83820000D03*
X165100000Y-83820000D03*
X139700000Y-34330000D03*
X139700000Y-39330000D03*
X260350000Y-71080000D03*
X260350000Y-66080000D03*
D11*
X138430000Y-91440000D03*
D10*
X140970000Y-91440000D03*
X143510000Y-91440000D03*
X146050000Y-91440000D03*
X148590000Y-91440000D03*
X151130000Y-91440000D03*
X153670000Y-91440000D03*
X153670000Y-83820000D03*
X151130000Y-83820000D03*
X148590000Y-83820000D03*
X146050000Y-83820000D03*
X143510000Y-83820000D03*
X140970000Y-83820000D03*
X138430000Y-83820000D03*
M02*
