G04 #@! TF.GenerationSoftware,KiCad,Pcbnew,9.0.7*
G04 #@! TF.CreationDate,2026-03-29T22:08:35+02:00*
G04 #@! TF.ProjectId,Apple2Card,4170706c-6532-4436-9172-642e6b696361,rev?*
G04 #@! TF.SameCoordinates,Original*
G04 #@! TF.FileFunction,Copper,L2,Bot*
G04 #@! TF.FilePolarity,Positive*
%FSLAX46Y46*%
G04 Gerber Fmt 4.6, Leading zero omitted, Abs format (unit mm)*
G04 Created by KiCad (PCBNEW 9.0.7) date 2026-03-29 22:08:35*
%MOMM*%
%LPD*%
G01*
G04 APERTURE LIST*
G04 Aperture macros list*
%AMRoundRect*
0 Rectangle with rounded corners*
0 $1 Rounding radius*
0 $2 $3 $4 $5 $6 $7 $8 $9 X,Y pos of 4 corners*
0 Add a 4 corners polygon primitive as box body*
4,1,4,$2,$3,$4,$5,$6,$7,$8,$9,$2,$3,0*
0 Add four circle primitives for the rounded corners*
1,1,$1+$1,$2,$3*
1,1,$1+$1,$4,$5*
1,1,$1+$1,$6,$7*
1,1,$1+$1,$8,$9*
0 Add four rect primitives between the rounded corners*
20,1,$1+$1,$2,$3,$4,$5,0*
20,1,$1+$1,$4,$5,$6,$7,0*
20,1,$1+$1,$6,$7,$8,$9,0*
20,1,$1+$1,$8,$9,$2,$3,0*%
G04 Aperture macros list end*
G04 #@! TA.AperFunction,ComponentPad*
%ADD10C,1.600000*%
G04 #@! TD*
G04 #@! TA.AperFunction,ComponentPad*
%ADD11RoundRect,0.250000X0.550000X-0.550000X0.550000X0.550000X-0.550000X0.550000X-0.550000X-0.550000X0*%
G04 #@! TD*
G04 #@! TA.AperFunction,ComponentPad*
%ADD12RoundRect,0.250000X-0.600000X-0.600000X0.600000X-0.600000X0.600000X0.600000X-0.600000X0.600000X0*%
G04 #@! TD*
G04 #@! TA.AperFunction,ComponentPad*
%ADD13C,1.700000*%
G04 #@! TD*
G04 #@! TA.AperFunction,ComponentPad*
%ADD14R,1.600000X1.600000*%
G04 #@! TD*
G04 #@! TA.AperFunction,SMDPad,CuDef*
%ADD15R,1.910000X8.530000*%
G04 #@! TD*
G04 #@! TA.AperFunction,SMDPad,CuDef*
%ADD16R,1.270000X8.530000*%
G04 #@! TD*
G04 #@! TA.AperFunction,ComponentPad*
%ADD17RoundRect,0.250000X-0.550000X0.550000X-0.550000X-0.550000X0.550000X-0.550000X0.550000X0.550000X0*%
G04 #@! TD*
G04 #@! TA.AperFunction,ComponentPad*
%ADD18R,1.700000X1.700000*%
G04 #@! TD*
G04 #@! TA.AperFunction,ViaPad*
%ADD19C,0.800000*%
G04 #@! TD*
G04 #@! TA.AperFunction,ViaPad*
%ADD20C,1.000000*%
G04 #@! TD*
G04 #@! TA.AperFunction,Conductor*
%ADD21C,0.250000*%
G04 #@! TD*
G04 #@! TA.AperFunction,Conductor*
%ADD22C,1.270000*%
G04 #@! TD*
G04 #@! TA.AperFunction,Conductor*
%ADD23C,0.200000*%
G04 #@! TD*
G04 APERTURE END LIST*
D10*
X168910000Y-57150000D03*
X168910000Y-62150000D03*
X161290000Y-66040000D03*
X161290000Y-53340000D03*
X245110000Y-93980000D03*
X257810000Y-93980000D03*
X285750000Y-96520000D03*
X285750000Y-91520000D03*
D11*
X138430000Y-55880000D03*
D10*
X140970000Y-55880000D03*
X143510000Y-55880000D03*
X146050000Y-55880000D03*
X148590000Y-55880000D03*
X151130000Y-55880000D03*
X153670000Y-55880000D03*
X153670000Y-48260000D03*
X151130000Y-48260000D03*
X148590000Y-48260000D03*
X146050000Y-48260000D03*
X143510000Y-48260000D03*
X140970000Y-48260000D03*
X138430000Y-48260000D03*
D11*
X138430000Y-76200000D03*
D10*
X140970000Y-76200000D03*
X143510000Y-76200000D03*
X146050000Y-76200000D03*
X148590000Y-76200000D03*
X151130000Y-76200000D03*
X153670000Y-76200000D03*
X156210000Y-76200000D03*
X156210000Y-68580000D03*
X153670000Y-68580000D03*
X151130000Y-68580000D03*
X148590000Y-68580000D03*
X146050000Y-68580000D03*
X143510000Y-68580000D03*
X140970000Y-68580000D03*
X138430000Y-68580000D03*
D11*
X172720000Y-76200000D03*
D10*
X175260000Y-76200000D03*
X177800000Y-76200000D03*
X180340000Y-76200000D03*
X182880000Y-76200000D03*
X185420000Y-76200000D03*
X187960000Y-76200000D03*
X190500000Y-76200000D03*
X193040000Y-76200000D03*
X195580000Y-76200000D03*
X195580000Y-68580000D03*
X193040000Y-68580000D03*
X190500000Y-68580000D03*
X187960000Y-68580000D03*
X185420000Y-68580000D03*
X182880000Y-68580000D03*
X180340000Y-68580000D03*
X177800000Y-68580000D03*
X175260000Y-68580000D03*
X172720000Y-68580000D03*
X238760000Y-76200000D03*
X251460000Y-76200000D03*
D11*
X198120000Y-91440000D03*
D10*
X200660000Y-91440000D03*
X203200000Y-91440000D03*
X205740000Y-91440000D03*
X208280000Y-91440000D03*
X210820000Y-91440000D03*
X213360000Y-91440000D03*
X215900000Y-91440000D03*
X218440000Y-91440000D03*
X220980000Y-91440000D03*
X220980000Y-83820000D03*
X218440000Y-83820000D03*
X215900000Y-83820000D03*
X213360000Y-83820000D03*
X210820000Y-83820000D03*
X208280000Y-83820000D03*
X205740000Y-83820000D03*
X203200000Y-83820000D03*
X200660000Y-83820000D03*
X198120000Y-83820000D03*
X283210000Y-91440000D03*
X283210000Y-96440000D03*
X264160000Y-78740000D03*
X269160000Y-78740000D03*
X130810000Y-68580000D03*
X130810000Y-81280000D03*
D11*
X107950000Y-52070000D03*
D10*
X110490000Y-52070000D03*
X113030000Y-52070000D03*
X115570000Y-52070000D03*
X118110000Y-52070000D03*
X120650000Y-52070000D03*
X123190000Y-52070000D03*
X125730000Y-52070000D03*
X125730000Y-44450000D03*
X123190000Y-44450000D03*
X120650000Y-44450000D03*
X118110000Y-44450000D03*
X115570000Y-44450000D03*
X113030000Y-44450000D03*
X110490000Y-44450000D03*
X107950000Y-44450000D03*
X99060000Y-58460000D03*
X99060000Y-63460000D03*
D12*
X287020000Y-48260000D03*
D13*
X287020000Y-50800000D03*
X287020000Y-53340000D03*
X287020000Y-55880000D03*
X287020000Y-58420000D03*
X287020000Y-60960000D03*
X287020000Y-63500000D03*
X287020000Y-66040000D03*
X287020000Y-68580000D03*
X287020000Y-71120000D03*
X287020000Y-73660000D03*
X287020000Y-76200000D03*
X287020000Y-78740000D03*
X289560000Y-48260000D03*
X289560000Y-50800000D03*
X289560000Y-53340000D03*
X289560000Y-55880000D03*
X289560000Y-58420000D03*
X289560000Y-60960000D03*
X289560000Y-63500000D03*
X289560000Y-66040000D03*
X289560000Y-68580000D03*
X289560000Y-71120000D03*
X289560000Y-73660000D03*
X289560000Y-76200000D03*
X289560000Y-78740000D03*
D10*
X260985000Y-82550000D03*
X260985000Y-87550000D03*
X134620000Y-69890000D03*
X134620000Y-74890000D03*
D14*
X102870000Y-54610000D03*
D10*
X105410000Y-54610000D03*
X107950000Y-54610000D03*
X110490000Y-54610000D03*
X113030000Y-54610000D03*
X115570000Y-54610000D03*
X118110000Y-54610000D03*
X120650000Y-54610000D03*
X123190000Y-54610000D03*
X125730000Y-54610000D03*
X168910000Y-69850000D03*
X168910000Y-74850000D03*
X151130000Y-60960000D03*
X138430000Y-60960000D03*
D11*
X264160000Y-63500000D03*
D10*
X266700000Y-63500000D03*
X269240000Y-63500000D03*
X271780000Y-63500000D03*
X274320000Y-63500000D03*
X276860000Y-63500000D03*
X279400000Y-63500000D03*
X279400000Y-55880000D03*
X276860000Y-55880000D03*
X274320000Y-55880000D03*
X271780000Y-55880000D03*
X269240000Y-55880000D03*
X266700000Y-55880000D03*
X264160000Y-55880000D03*
X134620000Y-49610000D03*
X134620000Y-54610000D03*
X248920000Y-97790000D03*
X261620000Y-97790000D03*
D15*
X288154000Y-104580000D03*
D16*
X285360000Y-104580000D03*
X282820000Y-104580000D03*
X280280000Y-104580000D03*
X277740000Y-104580000D03*
X275200000Y-104580000D03*
X272660000Y-104580000D03*
X270120000Y-104580000D03*
X267580000Y-104580000D03*
X265040000Y-104580000D03*
X262500000Y-104580000D03*
X259960000Y-104580000D03*
X257420000Y-104580000D03*
X254880000Y-104580000D03*
X252340000Y-104580000D03*
X249800000Y-104580000D03*
X247260000Y-104580000D03*
X244720000Y-104580000D03*
X242180000Y-104580000D03*
X239640000Y-104580000D03*
X237100000Y-104580000D03*
X234560000Y-104580000D03*
X232020000Y-104580000D03*
X229480000Y-104580000D03*
X226686000Y-104580000D03*
D11*
X172720000Y-63500000D03*
D10*
X175260000Y-63500000D03*
X177800000Y-63500000D03*
X180340000Y-63500000D03*
X182880000Y-63500000D03*
X185420000Y-63500000D03*
X187960000Y-63500000D03*
X190500000Y-63500000D03*
X193040000Y-63500000D03*
X195580000Y-63500000D03*
X195580000Y-55880000D03*
X193040000Y-55880000D03*
X190500000Y-55880000D03*
X187960000Y-55880000D03*
X185420000Y-55880000D03*
X182880000Y-55880000D03*
X180340000Y-55880000D03*
X177800000Y-55880000D03*
X175260000Y-55880000D03*
X172720000Y-55880000D03*
X276860000Y-97790000D03*
X264160000Y-97790000D03*
X120650000Y-68580000D03*
X120650000Y-81280000D03*
X194310000Y-85130000D03*
X194310000Y-90130000D03*
X116840000Y-68580000D03*
X116840000Y-81280000D03*
X107990000Y-71120000D03*
X112990000Y-71120000D03*
D11*
X102870000Y-64770000D03*
D10*
X105410000Y-64770000D03*
X107950000Y-64770000D03*
X110490000Y-64770000D03*
X113030000Y-64770000D03*
X115570000Y-64770000D03*
X118110000Y-64770000D03*
X120650000Y-64770000D03*
X123190000Y-64770000D03*
X125730000Y-64770000D03*
X125730000Y-57150000D03*
X123190000Y-57150000D03*
X120650000Y-57150000D03*
X118110000Y-57150000D03*
X115570000Y-57150000D03*
X113030000Y-57150000D03*
X110490000Y-57150000D03*
X107950000Y-57150000D03*
X105410000Y-57150000D03*
X102870000Y-57150000D03*
D11*
X223520000Y-71120000D03*
D10*
X226060000Y-71120000D03*
X228600000Y-71120000D03*
X231140000Y-71120000D03*
X233680000Y-71120000D03*
X236220000Y-71120000D03*
X238760000Y-71120000D03*
X241300000Y-71120000D03*
X243840000Y-71120000D03*
X246380000Y-71120000D03*
X248920000Y-71120000D03*
X251460000Y-71120000D03*
X254000000Y-71120000D03*
X256540000Y-71120000D03*
X256540000Y-55880000D03*
X254000000Y-55880000D03*
X251460000Y-55880000D03*
X248920000Y-55880000D03*
X246380000Y-55880000D03*
X243840000Y-55880000D03*
X241300000Y-55880000D03*
X238760000Y-55880000D03*
X236220000Y-55880000D03*
X233680000Y-55880000D03*
X231140000Y-55880000D03*
X228600000Y-55880000D03*
X226060000Y-55880000D03*
X223520000Y-55880000D03*
D11*
X264160000Y-76200000D03*
D10*
X266700000Y-76200000D03*
X269240000Y-76200000D03*
X271780000Y-76200000D03*
X274320000Y-76200000D03*
X276860000Y-76200000D03*
X279400000Y-76200000D03*
X279400000Y-68580000D03*
X276860000Y-68580000D03*
X274320000Y-68580000D03*
X271780000Y-68580000D03*
X269240000Y-68580000D03*
X266700000Y-68580000D03*
X264160000Y-68580000D03*
X165100000Y-53340000D03*
X165100000Y-66040000D03*
D11*
X264160000Y-88900000D03*
D10*
X266700000Y-88900000D03*
X269240000Y-88900000D03*
X271780000Y-88900000D03*
X274320000Y-88900000D03*
X276860000Y-88900000D03*
X279400000Y-88900000D03*
X279400000Y-81280000D03*
X276860000Y-81280000D03*
X274320000Y-81280000D03*
X271780000Y-81280000D03*
X269240000Y-81280000D03*
X266700000Y-81280000D03*
X264160000Y-81280000D03*
X238125000Y-82550000D03*
X238125000Y-87550000D03*
D17*
X294640000Y-81280000D03*
D10*
X294640000Y-88900000D03*
D11*
X102870000Y-91440000D03*
D10*
X105410000Y-91440000D03*
X107950000Y-91440000D03*
X110490000Y-91440000D03*
X113030000Y-91440000D03*
X115570000Y-91440000D03*
X118110000Y-91440000D03*
X118110000Y-83820000D03*
X115570000Y-83820000D03*
X113030000Y-83820000D03*
X110490000Y-83820000D03*
X107950000Y-83820000D03*
X105410000Y-83820000D03*
X102870000Y-83820000D03*
X107990000Y-80010000D03*
X112990000Y-80010000D03*
X264160000Y-53340000D03*
X269160000Y-53340000D03*
X134620000Y-85725000D03*
X134620000Y-90725000D03*
X125730000Y-68580000D03*
X125730000Y-81280000D03*
D18*
X107950000Y-49530000D03*
D13*
X110490000Y-49530000D03*
X113030000Y-49530000D03*
X115570000Y-49530000D03*
X118110000Y-49530000D03*
X120650000Y-49530000D03*
X123190000Y-49530000D03*
X125730000Y-49530000D03*
D11*
X241300000Y-88900000D03*
D10*
X243840000Y-88900000D03*
X246380000Y-88900000D03*
X248920000Y-88900000D03*
X251460000Y-88900000D03*
X254000000Y-88900000D03*
X256540000Y-88900000D03*
X256540000Y-81280000D03*
X254000000Y-81280000D03*
X251460000Y-81280000D03*
X248920000Y-81280000D03*
X246380000Y-81280000D03*
X243840000Y-81280000D03*
X241300000Y-81280000D03*
X107990000Y-76200000D03*
X112990000Y-76200000D03*
D11*
X172720000Y-48260000D03*
D10*
X175260000Y-48260000D03*
X177800000Y-48260000D03*
X180340000Y-48260000D03*
X182880000Y-48260000D03*
X185420000Y-48260000D03*
X187960000Y-48260000D03*
X190500000Y-48260000D03*
X193040000Y-48260000D03*
X195580000Y-48260000D03*
X198120000Y-48260000D03*
X200660000Y-48260000D03*
X203200000Y-48260000D03*
X205740000Y-48260000D03*
X205740000Y-33020000D03*
X203200000Y-33020000D03*
X200660000Y-33020000D03*
X198120000Y-33020000D03*
X195580000Y-33020000D03*
X193040000Y-33020000D03*
X190500000Y-33020000D03*
X187960000Y-33020000D03*
X185420000Y-33020000D03*
X182880000Y-33020000D03*
X180340000Y-33020000D03*
X177800000Y-33020000D03*
X175260000Y-33020000D03*
X172720000Y-33020000D03*
D11*
X223520000Y-48260000D03*
D10*
X226060000Y-48260000D03*
X228600000Y-48260000D03*
X231140000Y-48260000D03*
X233680000Y-48260000D03*
X236220000Y-48260000D03*
X238760000Y-48260000D03*
X241300000Y-48260000D03*
X243840000Y-48260000D03*
X246380000Y-48260000D03*
X248920000Y-48260000D03*
X251460000Y-48260000D03*
X254000000Y-48260000D03*
X256540000Y-48260000D03*
X259080000Y-48260000D03*
X261620000Y-48260000D03*
X264160000Y-48260000D03*
X266700000Y-48260000D03*
X269240000Y-48260000D03*
X271780000Y-48260000D03*
X271780000Y-33020000D03*
X269240000Y-33020000D03*
X266700000Y-33020000D03*
X264160000Y-33020000D03*
X261620000Y-33020000D03*
X259080000Y-33020000D03*
X256540000Y-33020000D03*
X254000000Y-33020000D03*
X251460000Y-33020000D03*
X248920000Y-33020000D03*
X246380000Y-33020000D03*
X243840000Y-33020000D03*
X241300000Y-33020000D03*
X238760000Y-33020000D03*
X236220000Y-33020000D03*
X233680000Y-33020000D03*
X231140000Y-33020000D03*
X228600000Y-33020000D03*
X226060000Y-33020000D03*
X223520000Y-33020000D03*
X219710000Y-61000000D03*
X219710000Y-66000000D03*
X168910000Y-38100000D03*
X168910000Y-43100000D03*
D11*
X143510000Y-40640000D03*
D10*
X146050000Y-40640000D03*
X148590000Y-40640000D03*
X151130000Y-40640000D03*
X153670000Y-40640000D03*
X156210000Y-40640000D03*
X158750000Y-40640000D03*
X161290000Y-40640000D03*
X161290000Y-33020000D03*
X158750000Y-33020000D03*
X156210000Y-33020000D03*
X153670000Y-33020000D03*
X151130000Y-33020000D03*
X148590000Y-33020000D03*
X146050000Y-33020000D03*
X143510000Y-33020000D03*
D14*
X203200000Y-80010000D03*
D10*
X205740000Y-80010000D03*
X208280000Y-80010000D03*
X210820000Y-80010000D03*
X213360000Y-80010000D03*
X215900000Y-80010000D03*
X218440000Y-80010000D03*
X220980000Y-80010000D03*
X223520000Y-80010000D03*
X226060000Y-80010000D03*
D11*
X294640000Y-95185113D03*
D10*
X294640000Y-92685113D03*
X276860000Y-93980000D03*
X264160000Y-93980000D03*
X264160000Y-66040000D03*
X269160000Y-66040000D03*
X219710000Y-38100000D03*
X219710000Y-43100000D03*
X279400000Y-33020000D03*
X292100000Y-33020000D03*
X161925000Y-85130000D03*
X161925000Y-90130000D03*
X99060000Y-85130000D03*
X99060000Y-90130000D03*
D11*
X165100000Y-91440000D03*
D10*
X167640000Y-91440000D03*
X170180000Y-91440000D03*
X172720000Y-91440000D03*
X175260000Y-91440000D03*
X177800000Y-91440000D03*
X180340000Y-91440000D03*
X182880000Y-91440000D03*
X185420000Y-91440000D03*
X187960000Y-91440000D03*
X187960000Y-83820000D03*
X185420000Y-83820000D03*
X182880000Y-83820000D03*
X180340000Y-83820000D03*
X177800000Y-83820000D03*
X175260000Y-83820000D03*
X172720000Y-83820000D03*
X170180000Y-83820000D03*
X167640000Y-83820000D03*
X165100000Y-83820000D03*
X139700000Y-34330000D03*
X139700000Y-39330000D03*
X260350000Y-71080000D03*
X260350000Y-66080000D03*
D11*
X138430000Y-91440000D03*
D10*
X140970000Y-91440000D03*
X143510000Y-91440000D03*
X146050000Y-91440000D03*
X148590000Y-91440000D03*
X151130000Y-91440000D03*
X153670000Y-91440000D03*
X153670000Y-83820000D03*
X151130000Y-83820000D03*
X148590000Y-83820000D03*
X146050000Y-83820000D03*
X143510000Y-83820000D03*
X140970000Y-83820000D03*
X138430000Y-83820000D03*
D19*
X172494541Y-70575000D03*
X167386000Y-66040000D03*
X177800000Y-96012000D03*
X167386000Y-49657000D03*
X224536000Y-98552000D03*
X174538046Y-74402323D03*
X147320000Y-88646000D03*
X232156000Y-76454000D03*
X195580000Y-40640000D03*
X215160000Y-45720000D03*
X215990000Y-70033948D03*
X215392000Y-70866000D03*
X148848595Y-88552000D03*
X231394000Y-77216000D03*
X214435000Y-44540000D03*
X193040000Y-39915000D03*
X215900000Y-44958000D03*
X230632000Y-77978000D03*
X219206653Y-70362653D03*
X190500000Y-39190000D03*
X142240000Y-88175000D03*
X234248290Y-77805636D03*
X215900000Y-43180000D03*
X187960000Y-38391000D03*
X220730653Y-70362653D03*
X240030000Y-78613000D03*
X185420000Y-45466000D03*
X199409611Y-51045695D03*
X236220000Y-60325000D03*
X208926000Y-57520701D03*
X208926000Y-58546005D03*
X199420916Y-52082306D03*
X233680000Y-60325000D03*
X241554000Y-93943000D03*
X233209001Y-93943000D03*
X182880000Y-45466000D03*
X199402651Y-53089346D03*
X208926000Y-59546008D03*
X232410000Y-90678000D03*
X231140000Y-60325000D03*
X180340000Y-45466000D03*
X242824000Y-91948000D03*
X247260000Y-97400000D03*
X208926000Y-60546011D03*
X177800000Y-45466000D03*
X231394000Y-94488000D03*
X199390000Y-54102000D03*
X228600000Y-60325000D03*
X269875000Y-93980000D03*
D20*
X224282000Y-83566000D03*
X158115000Y-65405000D03*
X158115000Y-63898000D03*
X225806000Y-83566000D03*
D19*
X180340000Y-73303000D03*
X267425000Y-73406000D03*
X195834000Y-70820000D03*
X273812000Y-98044000D03*
X167640000Y-79248000D03*
X189484000Y-50038000D03*
X195834000Y-73279000D03*
X147066000Y-80772000D03*
X237744000Y-96012000D03*
X235212422Y-74203123D03*
X214670346Y-37858651D03*
X179324000Y-38100000D03*
X215981802Y-73369000D03*
X148590000Y-36322000D03*
X235937422Y-73369000D03*
X179324000Y-39624000D03*
X146050000Y-37084000D03*
X215683000Y-37846000D03*
X236671000Y-72644000D03*
X216916000Y-72607000D03*
X274701000Y-83312000D03*
X260350000Y-72898000D03*
X265395000Y-83347000D03*
X174752000Y-71628000D03*
X168910000Y-77978000D03*
X199644000Y-79121000D03*
X233934000Y-84328000D03*
X279400000Y-95820000D03*
X168910000Y-86868000D03*
X199644000Y-82296000D03*
X234008341Y-94668000D03*
X285369000Y-99568000D03*
X127762000Y-62865000D03*
X175260000Y-51562000D03*
X196930152Y-52890152D03*
X208783347Y-55113347D03*
X119380000Y-58928000D03*
X231140000Y-41656000D03*
X122682000Y-93472000D03*
X182880000Y-96301000D03*
X255340000Y-41620000D03*
X129540000Y-95250000D03*
X185488000Y-71545000D03*
X170180000Y-95250000D03*
X238760000Y-39335000D03*
X133604000Y-62738000D03*
X209042000Y-70104000D03*
X247650000Y-39370000D03*
X213360000Y-73152000D03*
X209042000Y-73152000D03*
X207010000Y-87630000D03*
X181610000Y-60272000D03*
X226060000Y-38608000D03*
X252730000Y-38100000D03*
X203200000Y-40095000D03*
X233680000Y-40894000D03*
X252730000Y-40895000D03*
X162052000Y-80367000D03*
X163068000Y-62484000D03*
X118110000Y-61214000D03*
X182880000Y-80518000D03*
X209550000Y-74639000D03*
X105156000Y-80518000D03*
X227330000Y-74928123D03*
X223520000Y-38608000D03*
X204470000Y-86905000D03*
X201930000Y-39370000D03*
X227330000Y-67564000D03*
X228600000Y-42418000D03*
X123571000Y-91985000D03*
X182155000Y-95431000D03*
X257810000Y-42418000D03*
X250190000Y-40169000D03*
X236220000Y-40132000D03*
X170688000Y-72898000D03*
X104140000Y-80518000D03*
X201930000Y-81280000D03*
X222850000Y-40603000D03*
X199009000Y-39551000D03*
X247650000Y-85090000D03*
X264160000Y-58510000D03*
X156718000Y-92202000D03*
X199935000Y-71628000D03*
X199898000Y-60452000D03*
X241300000Y-64262000D03*
X146050000Y-78740000D03*
X203470832Y-60188304D03*
X200660000Y-74930000D03*
X197802960Y-53546536D03*
X204470000Y-58420000D03*
X227330000Y-40640000D03*
X151130000Y-53213000D03*
X197358000Y-41021000D03*
X195707000Y-53340000D03*
X185420000Y-78777000D03*
X197612000Y-79248000D03*
X204978000Y-60198000D03*
X202692000Y-64045000D03*
X191770000Y-61177000D03*
X175895000Y-41275000D03*
X218455723Y-56911723D03*
X215900000Y-41636000D03*
X112268000Y-60960000D03*
X136398000Y-92710000D03*
X154178000Y-72136000D03*
X261620000Y-54864000D03*
X154940000Y-61087000D03*
X132588000Y-60415000D03*
X121793000Y-94234000D03*
X159004000Y-73697000D03*
X140970000Y-81280000D03*
X161290064Y-60705936D03*
X238760000Y-51816000D03*
X175260000Y-59547000D03*
X157988000Y-72898000D03*
X177800000Y-60997000D03*
X198628000Y-62484000D03*
X160269347Y-60701347D03*
X140970000Y-80010000D03*
X198606519Y-58084974D03*
X242570000Y-58928000D03*
X182880000Y-71501000D03*
X179070000Y-71501000D03*
X176530000Y-45466000D03*
X148590000Y-50800000D03*
X177800000Y-50292000D03*
X179214000Y-42455000D03*
X163068000Y-80367000D03*
X187415000Y-80264000D03*
X163068000Y-72136000D03*
X175768000Y-72898000D03*
X160020000Y-74422000D03*
X161302653Y-61718653D03*
X149860000Y-96025115D03*
X168910000Y-96012000D03*
X170688000Y-86614000D03*
X224790000Y-90170000D03*
X258572000Y-91948000D03*
X228694000Y-86041216D03*
X258572000Y-81026000D03*
X172720000Y-86614000D03*
X172720000Y-88138000D03*
X194818000Y-57912000D03*
X190500000Y-57472000D03*
X229362000Y-57404000D03*
X268034000Y-58610000D03*
X200152000Y-58060765D03*
X224754999Y-66827696D03*
X200914000Y-67564000D03*
X183908116Y-66804810D03*
X193040000Y-49911000D03*
X217678000Y-46736000D03*
X201676000Y-63246000D03*
X239638238Y-80273264D03*
X163195000Y-82042000D03*
X241300000Y-77216000D03*
X190572000Y-80065000D03*
X189357000Y-81280000D03*
X164338000Y-58276000D03*
X196596000Y-44704000D03*
X190754000Y-50038000D03*
X196596000Y-37846000D03*
X213614000Y-37846000D03*
X189230000Y-37338000D03*
X217170000Y-37846000D03*
X180333021Y-65534326D03*
X208534000Y-75333000D03*
X204274847Y-75337500D03*
X242316000Y-73914000D03*
X244602000Y-76200000D03*
X165100000Y-70358000D03*
X171196000Y-71628000D03*
X268605000Y-70866000D03*
X228694000Y-85041213D03*
X255905000Y-59784000D03*
X223774000Y-90170000D03*
X282575000Y-67310000D03*
X293370000Y-77470000D03*
X293370000Y-74930000D03*
X255874101Y-61684999D03*
X191262000Y-65786000D03*
X189230000Y-77470000D03*
X200660000Y-77978000D03*
X282820000Y-99577000D03*
D21*
X147320000Y-52070000D02*
X143510000Y-48260000D01*
X176022000Y-74422000D02*
X177800000Y-76200000D01*
X172494541Y-69972771D02*
X172494541Y-70575000D01*
X150114000Y-52070000D02*
X147320000Y-52070000D01*
X180340000Y-98552000D02*
X177800000Y-96012000D01*
X174557723Y-74422000D02*
X176022000Y-74422000D01*
X152527000Y-49657000D02*
X150114000Y-52070000D01*
X174538046Y-74402323D02*
X174557723Y-74422000D01*
X167386000Y-66040000D02*
X168561770Y-66040000D01*
X167386000Y-49657000D02*
X152527000Y-49657000D01*
X168561770Y-66040000D02*
X172494541Y-69972771D01*
X224536000Y-98552000D02*
X180340000Y-98552000D01*
X215990000Y-70033948D02*
X217872242Y-70033948D01*
X215160000Y-45720000D02*
X213995000Y-45720000D01*
X240403620Y-73292000D02*
X238425885Y-73292000D01*
X245110000Y-72390000D02*
X243207810Y-72390000D01*
X142947810Y-89465000D02*
X141410810Y-89465000D01*
X238050430Y-68497000D02*
X238645431Y-69092000D01*
X213995000Y-45720000D02*
X213176000Y-44901000D01*
X238645431Y-69092000D02*
X239600025Y-69092000D01*
X140674810Y-88729000D02*
X115103190Y-88729000D01*
X104140000Y-90170000D02*
X102870000Y-91440000D01*
X213176000Y-44901000D02*
X198939000Y-44901000D01*
X245110000Y-69850000D02*
X246380000Y-71120000D01*
X242756810Y-72841000D02*
X240854620Y-72841000D01*
X198939000Y-44901000D02*
X195580000Y-48260000D01*
X143766810Y-88646000D02*
X142947810Y-89465000D01*
X183144190Y-40640000D02*
X178318190Y-35814000D01*
X217872242Y-70033948D02*
X219409190Y-68497000D01*
X239600025Y-69092000D02*
X239907025Y-69399000D01*
X242756810Y-69399000D02*
X243207810Y-69850000D01*
X115103190Y-88729000D02*
X113662190Y-90170000D01*
X195580000Y-40640000D02*
X183144190Y-40640000D01*
X243207810Y-69850000D02*
X245110000Y-69850000D01*
X240854620Y-72841000D02*
X240403620Y-73292000D01*
X243207810Y-72390000D02*
X242756810Y-72841000D01*
X153924000Y-35814000D02*
X151130000Y-33020000D01*
X246380000Y-71120000D02*
X245110000Y-72390000D01*
X141410810Y-89465000D02*
X140674810Y-88729000D01*
X235263885Y-76454000D02*
X232156000Y-76454000D01*
X239907025Y-69399000D02*
X242756810Y-69399000D01*
X219409190Y-68497000D02*
X238050430Y-68497000D01*
X113662190Y-90170000D02*
X104140000Y-90170000D01*
X238425885Y-73292000D02*
X235263885Y-76454000D01*
X147320000Y-88646000D02*
X143766810Y-88646000D01*
X178318190Y-35814000D02*
X153924000Y-35814000D01*
X231430000Y-76200000D02*
X231394000Y-76200000D01*
X148481798Y-88918798D02*
X148272500Y-89128095D01*
X140488000Y-89180000D02*
X115290000Y-89180000D01*
X235388075Y-75692000D02*
X231891280Y-75692000D01*
X214435000Y-44540000D02*
X214345000Y-44450000D01*
X147992596Y-89408000D02*
X143642620Y-89408000D01*
X198628000Y-44450000D02*
X196088000Y-46990000D01*
X237863620Y-68948000D02*
X238458621Y-69543000D01*
X235550038Y-75530038D02*
X235388075Y-75692000D01*
X143642620Y-89408000D02*
X143134620Y-89916000D01*
X183057000Y-39915000D02*
X178448000Y-35306000D01*
X240667810Y-72390000D02*
X240216810Y-72841000D01*
X242570000Y-72390000D02*
X240667810Y-72390000D01*
X194310000Y-46990000D02*
X193040000Y-48260000D01*
X231891280Y-75692000D02*
X231430000Y-76153280D01*
X115290000Y-89180000D02*
X113030000Y-91440000D01*
X143134620Y-89916000D02*
X141224000Y-89916000D01*
X231430000Y-76153280D02*
X231430000Y-76200000D01*
X215392000Y-70866000D02*
X217678000Y-70866000D01*
X214345000Y-44450000D02*
X198628000Y-44450000D01*
X243840000Y-71120000D02*
X242570000Y-72390000D01*
X240216810Y-72841000D02*
X238239075Y-72841000D01*
X239720215Y-69850000D02*
X242570000Y-69850000D01*
X242570000Y-69850000D02*
X243840000Y-71120000D01*
X148272500Y-89128095D02*
X148848595Y-88552000D01*
X238239075Y-72841000D02*
X235550038Y-75530038D01*
X141224000Y-89916000D02*
X140488000Y-89180000D01*
X231394000Y-76200000D02*
X231394000Y-77216000D01*
X239413215Y-69543000D02*
X239720215Y-69850000D01*
X219596000Y-68948000D02*
X237863620Y-68948000D01*
X155956000Y-35306000D02*
X153670000Y-33020000D01*
X217678000Y-70866000D02*
X219596000Y-68948000D01*
X193040000Y-39915000D02*
X183057000Y-39915000D01*
X148848595Y-88552000D02*
X148481798Y-88918798D01*
X178448000Y-35306000D02*
X155956000Y-35306000D01*
X238458621Y-69543000D02*
X239413215Y-69543000D01*
X148481798Y-88918798D02*
X147992596Y-89408000D01*
X196088000Y-46990000D02*
X194310000Y-46990000D01*
X105410000Y-83820000D02*
X108585000Y-86995000D01*
X190426000Y-39116000D02*
X182895810Y-39116000D01*
X142240000Y-88175000D02*
X141396430Y-88175000D01*
X238052265Y-72390000D02*
X235258265Y-75184000D01*
X109417000Y-87827000D02*
X108585000Y-86995000D01*
X230632000Y-76200000D02*
X230632000Y-77978000D01*
X238282703Y-70004892D02*
X237676810Y-69399000D01*
X238293595Y-69994000D02*
X238282703Y-70004892D01*
X157988000Y-34798000D02*
X156210000Y-33020000D01*
X214757000Y-43815000D02*
X194945000Y-43815000D01*
X235258265Y-75184000D02*
X231648000Y-75184000D01*
X240030000Y-72390000D02*
X238052265Y-72390000D01*
X141048430Y-87827000D02*
X109417000Y-87827000D01*
X220170306Y-69399000D02*
X219206653Y-70362653D01*
X239226405Y-69994000D02*
X238293595Y-69994000D01*
X239717405Y-70485000D02*
X239226405Y-69994000D01*
X182895810Y-39116000D02*
X178577810Y-34798000D01*
X141396430Y-88175000D02*
X141048430Y-87827000D01*
X190500000Y-39190000D02*
X190426000Y-39116000D01*
X215900000Y-44958000D02*
X214757000Y-43815000D01*
X241300000Y-71120000D02*
X240030000Y-72390000D01*
X240665000Y-70485000D02*
X239717405Y-70485000D01*
X194945000Y-43815000D02*
X190500000Y-48260000D01*
X237676810Y-69399000D02*
X220170306Y-69399000D01*
X231648000Y-75184000D02*
X230632000Y-76200000D01*
X178577810Y-34798000D02*
X157988000Y-34798000D01*
X241300000Y-71120000D02*
X240665000Y-70485000D01*
X215900000Y-43180000D02*
X193040000Y-43180000D01*
X178707620Y-34290000D02*
X160020000Y-34290000D01*
X182808620Y-38391000D02*
X178707620Y-34290000D01*
X240792000Y-79375000D02*
X247015000Y-79375000D01*
X234293654Y-77851000D02*
X234248290Y-77805636D01*
X240030000Y-78613000D02*
X239268000Y-77851000D01*
X247015000Y-79375000D02*
X248920000Y-81280000D01*
X238760000Y-71120000D02*
X237490000Y-69850000D01*
X239268000Y-77851000D02*
X234293654Y-77851000D01*
X221243306Y-69850000D02*
X220730653Y-70362653D01*
X187960000Y-38391000D02*
X182808620Y-38391000D01*
X160020000Y-34290000D02*
X158750000Y-33020000D01*
X193040000Y-43180000D02*
X187960000Y-48260000D01*
X240030000Y-78613000D02*
X240792000Y-79375000D01*
X237490000Y-69850000D02*
X221243306Y-69850000D01*
X210737000Y-58337000D02*
X228525430Y-58337000D01*
X187579000Y-50419000D02*
X187600785Y-50419000D01*
X193675000Y-50419000D02*
X198782916Y-50419000D01*
X185420000Y-48260000D02*
X187579000Y-50419000D01*
X198782916Y-50419000D02*
X199409611Y-51045695D01*
X187600785Y-50419000D02*
X187981785Y-50800000D01*
X230734628Y-58644008D02*
X231075620Y-58985000D01*
X193294000Y-50800000D02*
X193675000Y-50419000D01*
X175514000Y-43180000D02*
X183134000Y-43180000D01*
X209920701Y-57520701D02*
X210737000Y-58337000D01*
X235331000Y-59436000D02*
X236220000Y-60325000D01*
X183134000Y-43180000D02*
X185420000Y-45466000D01*
X158750000Y-40640000D02*
X162477000Y-44367000D01*
X233428810Y-59436000D02*
X235331000Y-59436000D01*
X231075620Y-58985000D02*
X232977810Y-58985000D01*
X232977810Y-58985000D02*
X233428810Y-59436000D01*
X187981785Y-50800000D02*
X193294000Y-50800000D01*
X228525430Y-58337000D02*
X228832438Y-58644008D01*
X208926000Y-57520701D02*
X209920701Y-57520701D01*
X228832438Y-58644008D02*
X230734628Y-58644008D01*
X162477000Y-44367000D02*
X174327000Y-44367000D01*
X174327000Y-44367000D02*
X175514000Y-43180000D01*
X182880000Y-48260000D02*
X184150000Y-49530000D01*
X175700810Y-43631000D02*
X174513810Y-44818000D01*
X184150000Y-49530000D02*
X186052190Y-49530000D01*
X157480000Y-41910000D02*
X156210000Y-40640000D01*
X230888810Y-59436000D02*
X232791000Y-59436000D01*
X241554000Y-93943000D02*
X233209001Y-93943000D01*
X182880000Y-45466000D02*
X181045000Y-43631000D01*
X210308195Y-58546005D02*
X210550190Y-58788000D01*
X208926000Y-58546005D02*
X210308195Y-58546005D01*
X230547818Y-59095008D02*
X230888810Y-59436000D01*
X187773190Y-51251000D02*
X198589610Y-51251000D01*
X198589610Y-51251000D02*
X199420916Y-52082306D01*
X186052190Y-49530000D02*
X187773190Y-51251000D01*
X232791000Y-59436000D02*
X233680000Y-60325000D01*
X210550190Y-58788000D02*
X228338620Y-58788000D01*
X174513810Y-44818000D02*
X162290190Y-44818000D01*
X181045000Y-43631000D02*
X175700810Y-43631000D01*
X228338620Y-58788000D02*
X228645628Y-59095008D01*
X162290190Y-44818000D02*
X159382190Y-41910000D01*
X159382190Y-41910000D02*
X157480000Y-41910000D01*
X228645628Y-59095008D02*
X230547818Y-59095008D01*
X198015305Y-51702000D02*
X199402651Y-53089346D01*
X210627504Y-59239000D02*
X210320496Y-59546008D01*
X187586380Y-51702000D02*
X198015305Y-51702000D01*
X157293190Y-42361000D02*
X156842190Y-41910000D01*
X180340000Y-45466000D02*
X178956000Y-44082000D01*
X228151810Y-59239000D02*
X210627504Y-59239000D01*
X159195380Y-42361000D02*
X157293190Y-42361000D01*
X210320496Y-59546008D02*
X208926000Y-59546008D01*
X231140000Y-60325000D02*
X230361008Y-59546008D01*
X228458818Y-59546008D02*
X228151810Y-59239000D01*
X154940000Y-41910000D02*
X153670000Y-40640000D01*
X156842190Y-41910000D02*
X154940000Y-41910000D01*
X175887620Y-44082000D02*
X174700620Y-45269000D01*
X233680000Y-91948000D02*
X232410000Y-90678000D01*
X162103380Y-45269000D02*
X159195380Y-42361000D01*
X183963190Y-49981000D02*
X185865380Y-49981000D01*
X174700620Y-45269000D02*
X162103380Y-45269000D01*
X230361008Y-59546008D02*
X228458818Y-59546008D01*
X181610000Y-49530000D02*
X183512190Y-49530000D01*
X178956000Y-44082000D02*
X175887620Y-44082000D01*
X183512190Y-49530000D02*
X183963190Y-49981000D01*
X242824000Y-91948000D02*
X233680000Y-91948000D01*
X185865380Y-49981000D02*
X187586380Y-51702000D01*
X180340000Y-48260000D02*
X181610000Y-49530000D01*
X245872000Y-96012000D02*
X244726190Y-96012000D01*
X157106380Y-42812000D02*
X156655380Y-42361000D01*
X185678570Y-50432000D02*
X187399570Y-52153000D01*
X232399165Y-95493165D02*
X231394000Y-94488000D01*
X154753190Y-42361000D02*
X154302190Y-41910000D01*
X159008570Y-42812000D02*
X157106380Y-42812000D01*
X187399570Y-52153000D02*
X197441000Y-52153000D01*
X161916570Y-45720000D02*
X159008570Y-42812000D01*
X234209896Y-95493165D02*
X232399165Y-95493165D01*
X227965000Y-59690000D02*
X210820000Y-59690000D01*
X228600000Y-60325000D02*
X227965000Y-59690000D01*
X156655380Y-42361000D02*
X154753190Y-42361000D01*
X234417061Y-95286000D02*
X234209896Y-95493165D01*
X210820000Y-59690000D02*
X209963989Y-60546011D01*
X209963989Y-60546011D02*
X208926000Y-60546011D01*
X180972190Y-49530000D02*
X181423190Y-49981000D01*
X183325380Y-49981000D02*
X183776380Y-50432000D01*
X177800000Y-45466000D02*
X176867000Y-44533000D01*
X244726190Y-96012000D02*
X244000190Y-95286000D01*
X197441000Y-52153000D02*
X199390000Y-54102000D01*
X183776380Y-50432000D02*
X185678570Y-50432000D01*
X244000190Y-95286000D02*
X234417061Y-95286000D01*
X247260000Y-97400000D02*
X245872000Y-96012000D01*
X177800000Y-48260000D02*
X179070000Y-49530000D01*
X176867000Y-44533000D02*
X176074430Y-44533000D01*
X181423190Y-49981000D02*
X183325380Y-49981000D01*
X174887430Y-45720000D02*
X161916570Y-45720000D01*
X176074430Y-44533000D02*
X174887430Y-45720000D01*
X179070000Y-49530000D02*
X180972190Y-49530000D01*
X152400000Y-41910000D02*
X151130000Y-40640000D01*
X154302190Y-41910000D02*
X152400000Y-41910000D01*
X269875000Y-93980000D02*
X269875000Y-92710000D01*
X269875000Y-92710000D02*
X268294000Y-91129000D01*
X268294000Y-91129000D02*
X243529000Y-91129000D01*
X243529000Y-91129000D02*
X241300000Y-88900000D01*
D22*
X168910000Y-57150000D02*
X165100000Y-57150000D01*
X241681000Y-83566000D02*
X241300000Y-83185000D01*
X248611000Y-30789000D02*
X246380000Y-33020000D01*
X139700000Y-34330000D02*
X131278000Y-34330000D01*
X264160000Y-82550000D02*
X260985000Y-82550000D01*
X246380000Y-33020000D02*
X244348000Y-30988000D01*
X277169000Y-30789000D02*
X248611000Y-30789000D01*
X165100000Y-57150000D02*
X161290000Y-53340000D01*
X241300000Y-81280000D02*
X241300000Y-82550000D01*
X194310000Y-85130000D02*
X196810000Y-85130000D01*
X134660000Y-69850000D02*
X134620000Y-69890000D01*
X200279000Y-81026000D02*
X198882000Y-81026000D01*
X264160000Y-81280000D02*
X264160000Y-82550000D01*
X259969000Y-83566000D02*
X241681000Y-83566000D01*
X141010000Y-33020000D02*
X139700000Y-34330000D01*
X246380000Y-34925000D02*
X246380000Y-33020000D01*
X279400000Y-33020000D02*
X277169000Y-30789000D01*
X260985000Y-82550000D02*
X259969000Y-83566000D01*
X125984000Y-39624000D02*
X105410000Y-39624000D01*
X201295000Y-80010000D02*
X200279000Y-81026000D01*
X203200000Y-80010000D02*
X201295000Y-80010000D01*
X280162000Y-87122000D02*
X277622000Y-84582000D01*
X221742000Y-38100000D02*
X222758000Y-37084000D01*
X241300000Y-83185000D02*
X241300000Y-81280000D01*
X264414000Y-84582000D02*
X264160000Y-84328000D01*
X102870000Y-42164000D02*
X102870000Y-54610000D01*
X172720000Y-30988000D02*
X172720000Y-33020000D01*
X226822000Y-78232000D02*
X204978000Y-78232000D01*
X222758000Y-37084000D02*
X244221000Y-37084000D01*
X204978000Y-78232000D02*
X203200000Y-80010000D01*
X198120000Y-81788000D02*
X198120000Y-83820000D01*
X196810000Y-85130000D02*
X198120000Y-83820000D01*
X236637000Y-81062000D02*
X229652000Y-81062000D01*
X264160000Y-84328000D02*
X264160000Y-81280000D01*
X145542000Y-30988000D02*
X143510000Y-33020000D01*
X105410000Y-39624000D02*
X102870000Y-42164000D01*
X198882000Y-81026000D02*
X198120000Y-81788000D01*
X277622000Y-84582000D02*
X264414000Y-84582000D01*
X229652000Y-81062000D02*
X226822000Y-78232000D01*
X294640000Y-88900000D02*
X292862000Y-87122000D01*
X238125000Y-82550000D02*
X236637000Y-81062000D01*
X219710000Y-38100000D02*
X221742000Y-38100000D01*
X244221000Y-37084000D02*
X246380000Y-34925000D01*
X143510000Y-33020000D02*
X141010000Y-33020000D01*
X130810000Y-81280000D02*
X125730000Y-81280000D01*
X131278000Y-34330000D02*
X125984000Y-39624000D01*
X244348000Y-30988000D02*
X172720000Y-30988000D01*
X241300000Y-82550000D02*
X238125000Y-82550000D01*
X292862000Y-87122000D02*
X280162000Y-87122000D01*
X172720000Y-30988000D02*
X145542000Y-30988000D01*
X120650000Y-49530000D02*
X123190000Y-49530000D01*
X115570000Y-49530000D02*
X118110000Y-49530000D01*
X295910000Y-79375000D02*
X292735000Y-79375000D01*
X161290000Y-76200000D02*
X162640000Y-74850000D01*
X158115000Y-63898000D02*
X167162000Y-63898000D01*
X257890000Y-87550000D02*
X256540000Y-88900000D01*
X262175000Y-86360000D02*
X260985000Y-87550000D01*
X139700000Y-39330000D02*
X140168000Y-38862000D01*
X205740000Y-48260000D02*
X205740000Y-50165000D01*
X291592000Y-73660000D02*
X289560000Y-73660000D01*
X219710000Y-47942500D02*
X219710000Y-43100000D01*
X118110000Y-44450000D02*
X120650000Y-44450000D01*
X110490000Y-49530000D02*
X113030000Y-49530000D01*
D21*
X148590000Y-76200000D02*
X149860000Y-77470000D01*
D22*
X287020000Y-63500000D02*
X284226000Y-63500000D01*
X238125000Y-87550000D02*
X233181060Y-87550000D01*
X112990000Y-76200000D02*
X111354000Y-74564000D01*
X277169000Y-73969000D02*
X269803000Y-73969000D01*
X123190000Y-49530000D02*
X125730000Y-49530000D01*
D21*
X288290000Y-104444000D02*
X288154000Y-104580000D01*
D22*
X107950000Y-44450000D02*
X110490000Y-44450000D01*
X205740000Y-50165000D02*
X200025000Y-55880000D01*
X269803000Y-73969000D02*
X267026000Y-71192000D01*
X156210000Y-76200000D02*
X161290000Y-76200000D01*
X220027500Y-48260000D02*
X205740000Y-48260000D01*
X111354000Y-74564000D02*
X100980000Y-74564000D01*
X296179000Y-79644000D02*
X295910000Y-79375000D01*
X221805500Y-50038000D02*
X220027500Y-48260000D01*
X286915113Y-92685113D02*
X290854887Y-92685113D01*
X110490000Y-44450000D02*
X113030000Y-44450000D01*
X276860000Y-78740000D02*
X269160000Y-78740000D01*
D21*
X149860000Y-77470000D02*
X154940000Y-77470000D01*
D22*
X113030000Y-49530000D02*
X115570000Y-49530000D01*
X233181060Y-87550000D02*
X229197060Y-83566000D01*
X99060000Y-72644000D02*
X99060000Y-63460000D01*
X256954000Y-86614000D02*
X239061000Y-86614000D01*
X284480000Y-66040000D02*
X287020000Y-68580000D01*
X279400000Y-76200000D02*
X277169000Y-73969000D01*
X162640000Y-74850000D02*
X168910000Y-74850000D01*
X100980000Y-74564000D02*
X99060000Y-72644000D01*
X118110000Y-49530000D02*
X120650000Y-49530000D01*
X267026000Y-71192000D02*
X264330630Y-71192000D01*
X279400000Y-88900000D02*
X276860000Y-86360000D01*
X229197060Y-83566000D02*
X224282000Y-83566000D01*
X239061000Y-86614000D02*
X238125000Y-87550000D01*
X279400000Y-66040000D02*
X284480000Y-66040000D01*
X247142000Y-50038000D02*
X221805500Y-50038000D01*
X107950000Y-49530000D02*
X110490000Y-49530000D01*
D21*
X154940000Y-77470000D02*
X156210000Y-76200000D01*
D22*
X133310000Y-76200000D02*
X134620000Y-74890000D01*
X285750000Y-91520000D02*
X282020000Y-91520000D01*
X159512000Y-38862000D02*
X161290000Y-40640000D01*
X288290000Y-92685113D02*
X288290000Y-104444000D01*
X130810000Y-54610000D02*
X134620000Y-54610000D01*
X200025000Y-55880000D02*
X195580000Y-55880000D01*
X298450000Y-81812238D02*
X296281762Y-79644000D01*
X134580000Y-44450000D02*
X139700000Y-39330000D01*
X276860000Y-86360000D02*
X262175000Y-86360000D01*
X260985000Y-87550000D02*
X257890000Y-87550000D01*
X285750000Y-91520000D02*
X286915113Y-92685113D01*
X123190000Y-44450000D02*
X125730000Y-44450000D01*
X158115000Y-63898000D02*
X158115000Y-65405000D01*
X112990000Y-76200000D02*
X133310000Y-76200000D01*
X260350000Y-67211370D02*
X260350000Y-66080000D01*
X264330630Y-71192000D02*
X260350000Y-67211370D01*
X257890000Y-87550000D02*
X256954000Y-86614000D01*
X125730000Y-44450000D02*
X134580000Y-44450000D01*
X167162000Y-63898000D02*
X168910000Y-62150000D01*
X279400000Y-63500000D02*
X279400000Y-66040000D01*
X161290000Y-40640000D02*
X166450000Y-40640000D01*
X248920000Y-48260000D02*
X247142000Y-50038000D01*
X269160000Y-66040000D02*
X279400000Y-66040000D01*
X294640000Y-92685113D02*
X298450000Y-88875113D01*
X113030000Y-44450000D02*
X115570000Y-44450000D01*
X220027500Y-48260000D02*
X219710000Y-47942500D01*
X279400000Y-76200000D02*
X276860000Y-78740000D01*
X115570000Y-44450000D02*
X118110000Y-44450000D01*
X298450000Y-88875113D02*
X298450000Y-81812238D01*
X284226000Y-63500000D02*
X279400000Y-63500000D01*
X166450000Y-40640000D02*
X168910000Y-43100000D01*
X292735000Y-79375000D02*
X292100000Y-78740000D01*
X292100000Y-78740000D02*
X292100000Y-74168000D01*
X140168000Y-38862000D02*
X159512000Y-38862000D01*
X125730000Y-49530000D02*
X130810000Y-54610000D01*
X296281762Y-79644000D02*
X296179000Y-79644000D01*
X292100000Y-74168000D02*
X291592000Y-73660000D01*
X120650000Y-44450000D02*
X123190000Y-44450000D01*
X290854887Y-92685113D02*
X294640000Y-92685113D01*
X282020000Y-91520000D02*
X279400000Y-88900000D01*
D21*
X195085000Y-74028000D02*
X184399430Y-74028000D01*
X189484000Y-50038000D02*
X187857595Y-50038000D01*
X201028000Y-65672000D02*
X195880000Y-70820000D01*
X224181000Y-64669000D02*
X217517090Y-64669000D01*
X257156405Y-66294000D02*
X225806000Y-66294000D01*
X186546000Y-48726405D02*
X186546000Y-47793595D01*
X184399430Y-74028000D02*
X183948430Y-73577000D01*
X264268405Y-73406000D02*
X257156405Y-66294000D01*
X275200000Y-99432000D02*
X275200000Y-104580000D01*
X225806000Y-66294000D02*
X224181000Y-64669000D01*
X217517090Y-64669000D02*
X216514090Y-65672000D01*
X178816000Y-79248000D02*
X167640000Y-79248000D01*
X181755380Y-73303000D02*
X180340000Y-73303000D01*
X185488405Y-46736000D02*
X175135810Y-46736000D01*
X174938810Y-46933000D02*
X149917000Y-46933000D01*
X195834000Y-73279000D02*
X195085000Y-74028000D01*
X267425000Y-73406000D02*
X264268405Y-73406000D01*
X175135810Y-46736000D02*
X174938810Y-46933000D01*
X195880000Y-70820000D02*
X195834000Y-70820000D01*
X187857595Y-50038000D02*
X186546000Y-48726405D01*
X273812000Y-98044000D02*
X275200000Y-99432000D01*
X180340000Y-76200000D02*
X180340000Y-77724000D01*
X182029380Y-73577000D02*
X181755380Y-73303000D01*
X216514090Y-65672000D02*
X201028000Y-65672000D01*
X186546000Y-47793595D02*
X185488405Y-46736000D01*
X149917000Y-46933000D02*
X148590000Y-48260000D01*
X180340000Y-77724000D02*
X178816000Y-79248000D01*
X183948430Y-73577000D02*
X182029380Y-73577000D01*
X179546810Y-72678000D02*
X179419810Y-72805000D01*
X238353000Y-96621000D02*
X238872240Y-96621000D01*
X237744000Y-96012000D02*
X238353000Y-96621000D01*
X241225430Y-97072000D02*
X241676430Y-97523000D01*
X168334810Y-76651000D02*
X165794810Y-79191000D01*
X175016720Y-72390000D02*
X172466000Y-72390000D01*
X205486000Y-73914000D02*
X204019000Y-72447000D01*
X172212000Y-74148676D02*
X169709676Y-76651000D01*
X179419810Y-72805000D02*
X177510000Y-72805000D01*
X249800000Y-99940000D02*
X249800000Y-104580000D01*
X243578620Y-97523000D02*
X244029620Y-97974000D01*
X179557530Y-72678000D02*
X179546810Y-72678000D01*
X238872240Y-96621000D02*
X239323240Y-97072000D01*
X182403190Y-72805000D02*
X182001190Y-72403000D01*
X215392000Y-73914000D02*
X205486000Y-73914000D01*
X189359810Y-72447000D02*
X189001810Y-72805000D01*
X172466000Y-72390000D02*
X172212000Y-72644000D01*
X177510000Y-72805000D02*
X176841000Y-72136000D01*
X182001190Y-72403000D02*
X179832530Y-72403000D01*
X246566810Y-97974000D02*
X247652810Y-99060000D01*
X248920000Y-99060000D02*
X249800000Y-99940000D01*
X175270720Y-72136000D02*
X175016720Y-72390000D01*
X241676430Y-97523000D02*
X243578620Y-97523000D01*
X215681123Y-74203123D02*
X215392000Y-73914000D01*
X239323240Y-97072000D02*
X241225430Y-97072000D01*
X244029620Y-97974000D02*
X246566810Y-97974000D01*
X169709676Y-76651000D02*
X168334810Y-76651000D01*
X176841000Y-72136000D02*
X175270720Y-72136000D01*
X204019000Y-72447000D02*
X189359810Y-72447000D01*
X172212000Y-72644000D02*
X172212000Y-74148676D01*
X165794810Y-79191000D02*
X148647000Y-79191000D01*
X148647000Y-79191000D02*
X147066000Y-80772000D01*
X179832530Y-72403000D02*
X179557530Y-72678000D01*
X235212422Y-74203123D02*
X215681123Y-74203123D01*
X189001810Y-72805000D02*
X182403190Y-72805000D01*
X247652810Y-99060000D02*
X248920000Y-99060000D01*
X231951860Y-96170000D02*
X233979050Y-96170000D01*
X238685430Y-97072000D02*
X239136430Y-97523000D01*
X243391810Y-97974000D02*
X243842810Y-98425000D01*
X229723670Y-95719000D02*
X231500860Y-95719000D01*
X226079670Y-85090000D02*
X229272670Y-88283000D01*
X234430050Y-96621000D02*
X236332240Y-96621000D01*
X220980000Y-83820000D02*
X222250000Y-85090000D01*
X243842810Y-98425000D02*
X246380000Y-98425000D01*
X222250000Y-85090000D02*
X226079670Y-85090000D01*
X236332240Y-96621000D02*
X236783240Y-97072000D01*
X246380000Y-98425000D02*
X247260000Y-99305000D01*
X241038620Y-97523000D02*
X241489620Y-97974000D01*
X236783240Y-97072000D02*
X238685430Y-97072000D01*
X229272670Y-88283000D02*
X229272670Y-95268000D01*
X247260000Y-99305000D02*
X247260000Y-104580000D01*
X229272670Y-95268000D02*
X229723670Y-95719000D01*
X241489620Y-97974000D02*
X243391810Y-97974000D01*
X231500860Y-95719000D02*
X231951860Y-96170000D01*
X239136430Y-97523000D02*
X241038620Y-97523000D01*
X233979050Y-96170000D02*
X234430050Y-96621000D01*
X233792240Y-96621000D02*
X231765050Y-96621000D01*
X240851810Y-97974000D02*
X238949620Y-97974000D01*
X225892860Y-85541000D02*
X222063190Y-85541000D01*
X236145430Y-97072000D02*
X234243240Y-97072000D01*
X231314050Y-96170000D02*
X229536860Y-96170000D01*
X228821670Y-95454810D02*
X228821670Y-88469810D01*
X219710000Y-85090000D02*
X218440000Y-83820000D01*
X222063190Y-85541000D02*
X221612190Y-85090000D01*
X236596430Y-97523000D02*
X236145430Y-97072000D01*
X244720000Y-104580000D02*
X244720000Y-99940000D01*
X244720000Y-99940000D02*
X243205000Y-98425000D01*
X229536860Y-96170000D02*
X228821670Y-95454810D01*
X238498620Y-97523000D02*
X236596430Y-97523000D01*
X243205000Y-98425000D02*
X241302810Y-98425000D01*
X231765050Y-96621000D02*
X231314050Y-96170000D01*
X241302810Y-98425000D02*
X240851810Y-97974000D01*
X221612190Y-85090000D02*
X219710000Y-85090000D01*
X238949620Y-97974000D02*
X238498620Y-97523000D01*
X234243240Y-97072000D02*
X233792240Y-96621000D01*
X228821670Y-88469810D02*
X225892860Y-85541000D01*
X233605430Y-97072000D02*
X234056430Y-97523000D01*
X238311810Y-97974000D02*
X238762810Y-98425000D01*
X234056430Y-97523000D02*
X235958620Y-97523000D01*
X217170000Y-85090000D02*
X219072190Y-85090000D01*
X221876380Y-85992000D02*
X225706050Y-85992000D01*
X242180000Y-99940000D02*
X242180000Y-104580000D01*
X235958620Y-97523000D02*
X236409620Y-97974000D01*
X231127240Y-96621000D02*
X231578240Y-97072000D01*
X238762810Y-98425000D02*
X240665000Y-98425000D01*
X225706050Y-85992000D02*
X228370670Y-88656620D01*
X240665000Y-98425000D02*
X242180000Y-99940000D01*
X229350050Y-96621000D02*
X231127240Y-96621000D01*
X219523190Y-85541000D02*
X221425380Y-85541000D01*
X228370670Y-88656620D02*
X228370670Y-95641620D01*
X231578240Y-97072000D02*
X233605430Y-97072000D01*
X236409620Y-97974000D02*
X238311810Y-97974000D01*
X215900000Y-83820000D02*
X217170000Y-85090000D01*
X219072190Y-85090000D02*
X219523190Y-85541000D01*
X221425380Y-85541000D02*
X221876380Y-85992000D01*
X228370670Y-95641620D02*
X229350050Y-96621000D01*
X225519240Y-86443000D02*
X227919670Y-88843430D01*
X233418620Y-97523000D02*
X233869620Y-97974000D01*
X233869620Y-97974000D02*
X235771810Y-97974000D01*
X214630000Y-85090000D02*
X216532190Y-85090000D01*
X238125000Y-98425000D02*
X239640000Y-99940000D01*
X229163240Y-97072000D02*
X230940430Y-97072000D01*
X221238570Y-85992000D02*
X221689570Y-86443000D01*
X221689570Y-86443000D02*
X225519240Y-86443000D01*
X219336380Y-85992000D02*
X221238570Y-85992000D01*
X216532190Y-85090000D02*
X216983190Y-85541000D01*
X216983190Y-85541000D02*
X218885380Y-85541000D01*
X236222810Y-98425000D02*
X238125000Y-98425000D01*
X235771810Y-97974000D02*
X236222810Y-98425000D01*
X218885380Y-85541000D02*
X219336380Y-85992000D01*
X213360000Y-83820000D02*
X214630000Y-85090000D01*
X227919670Y-95828430D02*
X229163240Y-97072000D01*
X230940430Y-97072000D02*
X231391430Y-97523000D01*
X227919670Y-88843430D02*
X227919670Y-95828430D01*
X231391430Y-97523000D02*
X233418620Y-97523000D01*
X239640000Y-99940000D02*
X239640000Y-104580000D01*
X233682810Y-98425000D02*
X235585000Y-98425000D01*
X216345380Y-85541000D02*
X216796380Y-85992000D01*
X210820000Y-83820000D02*
X212090000Y-85090000D01*
X233231810Y-97974000D02*
X233682810Y-98425000D01*
X221502760Y-86894000D02*
X225332430Y-86894000D01*
X231204620Y-97974000D02*
X233231810Y-97974000D01*
X228976430Y-97523000D02*
X230753620Y-97523000D01*
X227468670Y-89030240D02*
X227468670Y-96015240D01*
X225332430Y-86894000D02*
X227468670Y-89030240D01*
X219149570Y-86443000D02*
X221051760Y-86443000D01*
X230753620Y-97523000D02*
X231204620Y-97974000D01*
X213992190Y-85090000D02*
X214443190Y-85541000D01*
X221051760Y-86443000D02*
X221502760Y-86894000D01*
X212090000Y-85090000D02*
X213992190Y-85090000D01*
X216796380Y-85992000D02*
X218698570Y-85992000D01*
X218698570Y-85992000D02*
X219149570Y-86443000D01*
X235585000Y-98425000D02*
X237100000Y-99940000D01*
X227468670Y-96015240D02*
X228976430Y-97523000D01*
X214443190Y-85541000D02*
X216345380Y-85541000D01*
X237100000Y-99940000D02*
X237100000Y-104580000D01*
X216609570Y-86443000D02*
X218511760Y-86443000D01*
X208280000Y-83820000D02*
X209550000Y-85090000D01*
X218511760Y-86443000D02*
X218962760Y-86894000D01*
X225145620Y-87345000D02*
X227017670Y-89217050D01*
X234560000Y-99940000D02*
X234560000Y-104580000D01*
X214256380Y-85992000D02*
X216158570Y-85992000D01*
X233045000Y-98425000D02*
X234560000Y-99940000D01*
X231017810Y-98425000D02*
X233045000Y-98425000D01*
X211452190Y-85090000D02*
X211903190Y-85541000D01*
X209550000Y-85090000D02*
X211452190Y-85090000D01*
X228789620Y-97974000D02*
X230566810Y-97974000D01*
X220864950Y-86894000D02*
X221315950Y-87345000D01*
X227017670Y-96202050D02*
X228789620Y-97974000D01*
X227017670Y-89217050D02*
X227017670Y-96202050D01*
X221315950Y-87345000D02*
X225145620Y-87345000D01*
X213805380Y-85541000D02*
X214256380Y-85992000D01*
X216158570Y-85992000D02*
X216609570Y-86443000D01*
X211903190Y-85541000D02*
X213805380Y-85541000D01*
X230566810Y-97974000D02*
X231017810Y-98425000D01*
X218962760Y-86894000D02*
X220864950Y-86894000D01*
X232020000Y-104580000D02*
X232020000Y-100065000D01*
X216422760Y-86894000D02*
X215971760Y-86443000D01*
X207010000Y-85090000D02*
X205740000Y-83820000D01*
X211265380Y-85541000D02*
X209363190Y-85541000D01*
X226566670Y-89403860D02*
X224958810Y-87796000D01*
X220678140Y-87345000D02*
X218775950Y-87345000D01*
X213618570Y-85992000D02*
X211716380Y-85992000D01*
X211716380Y-85992000D02*
X211265380Y-85541000D01*
X221129140Y-87796000D02*
X220678140Y-87345000D01*
X218324950Y-86894000D02*
X216422760Y-86894000D01*
X232020000Y-100065000D02*
X230380000Y-98425000D01*
X214069570Y-86443000D02*
X213618570Y-85992000D01*
X215971760Y-86443000D02*
X214069570Y-86443000D01*
X226566670Y-96388860D02*
X226566670Y-89403860D01*
X230380000Y-98425000D02*
X228602810Y-98425000D01*
X228602810Y-98425000D02*
X226566670Y-96388860D01*
X209363190Y-85541000D02*
X208912190Y-85090000D01*
X218775950Y-87345000D02*
X218324950Y-86894000D01*
X208912190Y-85090000D02*
X207010000Y-85090000D01*
X224958810Y-87796000D02*
X221129140Y-87796000D01*
X206372190Y-85090000D02*
X204470000Y-85090000D01*
X204470000Y-85090000D02*
X203200000Y-83820000D01*
X224772000Y-88247000D02*
X220942330Y-88247000D01*
X213882760Y-86894000D02*
X213431760Y-86443000D01*
X211078570Y-85992000D02*
X209176380Y-85992000D01*
X218589140Y-87796000D02*
X218138140Y-87345000D01*
X220942330Y-88247000D02*
X220491330Y-87796000D01*
X229480000Y-99940000D02*
X226115670Y-96575670D01*
X226115670Y-96575670D02*
X226115670Y-89590670D01*
X220491330Y-87796000D02*
X218589140Y-87796000D01*
X226115670Y-89590670D02*
X224772000Y-88247000D01*
X229480000Y-104580000D02*
X229480000Y-99940000D01*
X216235950Y-87345000D02*
X215784950Y-86894000D01*
X218138140Y-87345000D02*
X216235950Y-87345000D01*
X211529570Y-86443000D02*
X211078570Y-85992000D01*
X206823190Y-85541000D02*
X206372190Y-85090000D01*
X208725380Y-85541000D02*
X206823190Y-85541000D01*
X213431760Y-86443000D02*
X211529570Y-86443000D01*
X209176380Y-85992000D02*
X208725380Y-85541000D01*
X215784950Y-86894000D02*
X213882760Y-86894000D01*
X183512190Y-34290000D02*
X181610000Y-34290000D01*
X148590000Y-36322000D02*
X176276000Y-36322000D01*
X176276000Y-36322000D02*
X178054000Y-38100000D01*
X203084950Y-36094000D02*
X201182760Y-36094000D01*
X183963190Y-34741000D02*
X183512190Y-34290000D01*
X205889140Y-36996000D02*
X205438140Y-36545000D01*
X196025380Y-34741000D02*
X183963190Y-34741000D01*
X201182760Y-36094000D02*
X200731760Y-35643000D01*
X181610000Y-34290000D02*
X180340000Y-33020000D01*
X198378570Y-35192000D02*
X196476380Y-35192000D01*
X196476380Y-35192000D02*
X196025380Y-34741000D01*
X200731760Y-35643000D02*
X198829570Y-35643000D01*
X178054000Y-38100000D02*
X179324000Y-38100000D01*
X203535950Y-36545000D02*
X203084950Y-36094000D01*
X205438140Y-36545000D02*
X203535950Y-36545000D01*
X235937422Y-73369000D02*
X215981802Y-73369000D01*
X213807695Y-36996000D02*
X205889140Y-36996000D01*
X198829570Y-35643000D02*
X198378570Y-35192000D01*
X214670346Y-37858651D02*
X213807695Y-36996000D01*
X203271760Y-35643000D02*
X201369570Y-35643000D01*
X235636702Y-72643000D02*
X235361702Y-72918000D01*
X201369570Y-35643000D02*
X200918570Y-35192000D01*
X196663190Y-34741000D02*
X196212190Y-34290000D01*
X215683000Y-37846000D02*
X214382000Y-36545000D01*
X196212190Y-34290000D02*
X184150000Y-34290000D01*
X159326405Y-37084000D02*
X146050000Y-37084000D01*
X236455071Y-72859929D02*
X236238142Y-72643000D01*
X161866405Y-39624000D02*
X159326405Y-37084000D01*
X236238142Y-72643000D02*
X235636702Y-72643000D01*
X218637000Y-72607000D02*
X218948000Y-72918000D01*
X184150000Y-34290000D02*
X182880000Y-33020000D01*
X235361702Y-72918000D02*
X218948000Y-72918000D01*
X214382000Y-36545000D02*
X206075950Y-36545000D01*
X236671000Y-72644000D02*
X236455071Y-72859929D01*
X216916000Y-72607000D02*
X218637000Y-72607000D01*
X199016380Y-35192000D02*
X198565380Y-34741000D01*
X205624950Y-36094000D02*
X203722760Y-36094000D01*
X206075950Y-36545000D02*
X205624950Y-36094000D01*
X179324000Y-39624000D02*
X161866405Y-39624000D01*
X198565380Y-34741000D02*
X196663190Y-34741000D01*
X200918570Y-35192000D02*
X199016380Y-35192000D01*
X203722760Y-36094000D02*
X203271760Y-35643000D01*
X179645720Y-71952000D02*
X179370720Y-72227000D01*
X224562000Y-68046000D02*
X219222380Y-68046000D01*
X265684000Y-83347000D02*
X265395000Y-83347000D01*
X182590000Y-72354000D02*
X182188000Y-71952000D01*
X189173000Y-71996000D02*
X188815000Y-72354000D01*
X254197000Y-66745000D02*
X225863000Y-66745000D01*
X182188000Y-71952000D02*
X179645720Y-71952000D01*
X197373810Y-71996000D02*
X189173000Y-71996000D01*
X274701000Y-83312000D02*
X265719000Y-83312000D01*
X213868000Y-70866000D02*
X198503810Y-70866000D01*
X219222380Y-68046000D02*
X218180380Y-69088000D01*
X215646000Y-69088000D02*
X213868000Y-70866000D01*
X179233000Y-72354000D02*
X177696810Y-72354000D01*
X260350000Y-72898000D02*
X254197000Y-66745000D01*
X265719000Y-83312000D02*
X265684000Y-83347000D01*
X177696810Y-72354000D02*
X176970810Y-71628000D01*
X225863000Y-66745000D02*
X224562000Y-68046000D01*
X218180380Y-69088000D02*
X215646000Y-69088000D01*
X188815000Y-72354000D02*
X182590000Y-72354000D01*
X179360000Y-72227000D02*
X179233000Y-72354000D01*
X179370720Y-72227000D02*
X179360000Y-72227000D01*
X176970810Y-71628000D02*
X174752000Y-71628000D01*
X198503810Y-70866000D02*
X197373810Y-71996000D01*
X179797797Y-74930000D02*
X183388000Y-74930000D01*
X179070000Y-75657797D02*
X179797797Y-74930000D01*
X233934000Y-84328000D02*
X232080000Y-82474000D01*
X183388000Y-74930000D02*
X184150000Y-75692000D01*
X188677298Y-78429000D02*
X198952000Y-78429000D01*
X198952000Y-78429000D02*
X199644000Y-79121000D01*
X168910000Y-86868000D02*
X167640000Y-86868000D01*
X166063025Y-88265000D02*
X166050025Y-88278000D01*
X228674565Y-82081435D02*
X228657000Y-82099000D01*
X184150000Y-76810405D02*
X184809595Y-77470000D01*
X264626405Y-92854000D02*
X267022405Y-95250000D01*
X234008341Y-94668000D02*
X244020000Y-94668000D01*
X145034000Y-89916000D02*
X143510000Y-91440000D01*
X278830000Y-95250000D02*
X279400000Y-95820000D01*
X178816000Y-77978000D02*
X179070000Y-77724000D01*
X179070000Y-77724000D02*
X179070000Y-75657797D01*
X187718298Y-77470000D02*
X188677298Y-78429000D01*
X166050025Y-88278000D02*
X150990000Y-88278000D01*
X168910000Y-77978000D02*
X178816000Y-77978000D01*
X258064000Y-95504000D02*
X260714000Y-92854000D01*
X229067130Y-82474000D02*
X228674565Y-82081435D01*
X166243000Y-88265000D02*
X166063025Y-88265000D01*
X244020000Y-94668000D02*
X244856000Y-95504000D01*
X228657000Y-82099000D02*
X201930000Y-82099000D01*
X150990000Y-88278000D02*
X149352000Y-89916000D01*
X260714000Y-92854000D02*
X264626405Y-92854000D01*
X184809595Y-77470000D02*
X187718298Y-77470000D01*
X201930000Y-82099000D02*
X201733000Y-82296000D01*
X201733000Y-82296000D02*
X199644000Y-82296000D01*
X184150000Y-75692000D02*
X184150000Y-76810405D01*
X267022405Y-95250000D02*
X278830000Y-95250000D01*
X149352000Y-89916000D02*
X145034000Y-89916000D01*
X244856000Y-95504000D02*
X258064000Y-95504000D01*
X232080000Y-82474000D02*
X229067130Y-82474000D01*
X167640000Y-86868000D02*
X166243000Y-88265000D01*
X285360000Y-104580000D02*
X285360000Y-99577000D01*
X285360000Y-99577000D02*
X285369000Y-99568000D01*
D23*
X270120000Y-96910000D02*
X270120000Y-104580000D01*
X270510000Y-96520000D02*
X270120000Y-96910000D01*
X283210000Y-96440000D02*
X283130000Y-96520000D01*
X283130000Y-96520000D02*
X270510000Y-96520000D01*
D21*
X264160000Y-97790000D02*
X262500000Y-99450000D01*
X262500000Y-99450000D02*
X262500000Y-104580000D01*
X260494000Y-95106000D02*
X259960000Y-95640000D01*
X264160000Y-93980000D02*
X263034000Y-95106000D01*
X259960000Y-95640000D02*
X259960000Y-104580000D01*
X263034000Y-95106000D02*
X260494000Y-95106000D01*
X248920000Y-97790000D02*
X251460000Y-97790000D01*
X251460000Y-97790000D02*
X252340000Y-98670000D01*
X252340000Y-98670000D02*
X252340000Y-104580000D01*
X127762000Y-65278000D02*
X127000000Y-66040000D01*
X127762000Y-62865000D02*
X127762000Y-65278000D01*
X106680000Y-66040000D02*
X105410000Y-64770000D01*
X127000000Y-66040000D02*
X106680000Y-66040000D01*
X107950000Y-54610000D02*
X110490000Y-57150000D01*
X126365000Y-53340000D02*
X128905000Y-55880000D01*
X146050000Y-33020000D02*
X148590000Y-33020000D01*
X140970000Y-50165000D02*
X140970000Y-48260000D01*
X174498000Y-50800000D02*
X175260000Y-51562000D01*
X195406280Y-52614000D02*
X195396280Y-52604000D01*
X106680000Y-53340000D02*
X126365000Y-53340000D01*
X186170760Y-51562000D02*
X175260000Y-51562000D01*
X140970000Y-50165000D02*
X144777190Y-50165000D01*
X135255000Y-55880000D02*
X140970000Y-50165000D01*
X195396280Y-52604000D02*
X187212760Y-52604000D01*
X208783347Y-55113347D02*
X209286694Y-54610000D01*
X105410000Y-54610000D02*
X106680000Y-53340000D01*
X128905000Y-55880000D02*
X135255000Y-55880000D01*
X144777190Y-50165000D02*
X147133190Y-52521000D01*
X187212760Y-52604000D02*
X186170760Y-51562000D01*
X152021810Y-50800000D02*
X174498000Y-50800000D01*
X150300810Y-52521000D02*
X152021810Y-50800000D01*
X196930152Y-52890152D02*
X196283872Y-52890152D01*
X196007720Y-52614000D02*
X195406280Y-52614000D01*
X209286694Y-54610000D02*
X224790000Y-54610000D01*
X196283872Y-52890152D02*
X196007720Y-52614000D01*
X224790000Y-54610000D02*
X226060000Y-55880000D01*
X147133190Y-52521000D02*
X150300810Y-52521000D01*
X111760000Y-55880000D02*
X114300000Y-55880000D01*
X110490000Y-54610000D02*
X111760000Y-55880000D01*
X114300000Y-55880000D02*
X115570000Y-57150000D01*
X119380000Y-55880000D02*
X120650000Y-57150000D01*
X113030000Y-54610000D02*
X113849000Y-55429000D01*
X113849000Y-55429000D02*
X114486810Y-55429000D01*
X114937810Y-55880000D02*
X119380000Y-55880000D01*
X114486810Y-55429000D02*
X114937810Y-55880000D01*
X121920000Y-57658000D02*
X121920000Y-55880000D01*
X121199595Y-58378405D02*
X121920000Y-57658000D01*
X119380000Y-58928000D02*
X119888000Y-58420000D01*
X121920000Y-55880000D02*
X123190000Y-54610000D01*
X121158000Y-58420000D02*
X121116405Y-58378405D01*
X119888000Y-58420000D02*
X121158000Y-58420000D01*
X121116405Y-58378405D02*
X121199595Y-58378405D01*
X137902676Y-93472000D02*
X122682000Y-93472000D01*
X206372190Y-34290000D02*
X206823190Y-34741000D01*
X227516810Y-34741000D02*
X227967810Y-34290000D01*
X227967810Y-34290000D02*
X229870000Y-34290000D01*
X203200000Y-33020000D02*
X204470000Y-34290000D01*
X185420000Y-88900000D02*
X182880000Y-91440000D01*
X182880000Y-96301000D02*
X181373500Y-96301000D01*
X210820000Y-91440000D02*
X208280000Y-88900000D01*
X173693760Y-94965000D02*
X172905760Y-94177000D01*
X208280000Y-88900000D02*
X185420000Y-88900000D01*
X231358000Y-41620000D02*
X255340000Y-41620000D01*
X231322000Y-41656000D02*
X231358000Y-41620000D01*
X206823190Y-34741000D02*
X227516810Y-34741000D01*
X178997735Y-95517000D02*
X178445735Y-94965000D01*
X172905760Y-94177000D02*
X138607676Y-94177000D01*
X178445735Y-94965000D02*
X173693760Y-94965000D01*
X204470000Y-34290000D02*
X206372190Y-34290000D01*
X138607676Y-94177000D02*
X137902676Y-93472000D01*
X180589500Y-95517000D02*
X178997735Y-95517000D01*
X181373500Y-96301000D02*
X180589500Y-95517000D01*
X231140000Y-41656000D02*
X231322000Y-41656000D01*
X229870000Y-34290000D02*
X231140000Y-33020000D01*
X214632810Y-93345000D02*
X214181810Y-93796000D01*
X232783620Y-35192000D02*
X233234620Y-34741000D01*
X118597530Y-62391000D02*
X119530530Y-61458000D01*
X198752190Y-34290000D02*
X199203190Y-34741000D01*
X185488000Y-71545000D02*
X197187000Y-71545000D01*
X174254190Y-93612000D02*
X173352190Y-92710000D01*
X233234620Y-34741000D02*
X235136810Y-34741000D01*
X179006165Y-93612000D02*
X174254190Y-93612000D01*
X235136810Y-34741000D02*
X235587810Y-34290000D01*
X199203190Y-34741000D02*
X201105380Y-34741000D01*
X110329000Y-62391000D02*
X118597530Y-62391000D01*
X200849620Y-93796000D02*
X200481620Y-94164000D01*
X133046905Y-62180905D02*
X133604000Y-62738000D01*
X129540000Y-95250000D02*
X170180000Y-95250000D01*
X173352190Y-92710000D02*
X171450000Y-92710000D01*
X205811760Y-35643000D02*
X206262760Y-36094000D01*
X213360000Y-73152000D02*
X209042000Y-73152000D01*
X200481620Y-94164000D02*
X179558165Y-94164000D01*
X238795000Y-39370000D02*
X238760000Y-39335000D01*
X237490000Y-34290000D02*
X238760000Y-33020000D01*
X130755285Y-62180905D02*
X133046905Y-62180905D01*
X203909570Y-35643000D02*
X205811760Y-35643000D01*
X201556380Y-35192000D02*
X203458570Y-35192000D01*
X216535000Y-93345000D02*
X214632810Y-93345000D01*
X218440000Y-91440000D02*
X216535000Y-93345000D01*
X119530530Y-61458000D02*
X130032380Y-61458000D01*
X203458570Y-35192000D02*
X203909570Y-35643000D01*
X228528240Y-35643000D02*
X230430430Y-35643000D01*
X201105380Y-34741000D02*
X201556380Y-35192000D01*
X130032380Y-61458000D02*
X130755285Y-62180905D01*
X179558165Y-94164000D02*
X179006165Y-93612000D01*
X214181810Y-93796000D02*
X200849620Y-93796000D01*
X235587810Y-34290000D02*
X237490000Y-34290000D01*
X171450000Y-92710000D02*
X170180000Y-91440000D01*
X230881430Y-35192000D02*
X232783620Y-35192000D01*
X228077240Y-36094000D02*
X228528240Y-35643000D01*
X206262760Y-36094000D02*
X228077240Y-36094000D01*
X198628000Y-70104000D02*
X209042000Y-70104000D01*
X196850000Y-34290000D02*
X198752190Y-34290000D01*
X230430430Y-35643000D02*
X230881430Y-35192000D01*
X107950000Y-64770000D02*
X110329000Y-62391000D01*
X195580000Y-33020000D02*
X196850000Y-34290000D01*
X247650000Y-39370000D02*
X238795000Y-39370000D01*
X197187000Y-71545000D02*
X198628000Y-70104000D01*
X174069620Y-60272000D02*
X181610000Y-60272000D01*
X172839620Y-59042000D02*
X174069620Y-60272000D01*
X118110000Y-58674000D02*
X118654000Y-59218000D01*
X125766000Y-59654000D02*
X126378000Y-59042000D01*
X215356660Y-39877000D02*
X223890950Y-39877000D01*
X126378000Y-59042000D02*
X172839620Y-59042000D01*
X191630000Y-84120810D02*
X191630000Y-85585000D01*
X118110000Y-57150000D02*
X118110000Y-58674000D01*
X224790000Y-39878000D02*
X226060000Y-38608000D01*
X118654000Y-59218000D02*
X118654000Y-59228720D01*
X119079280Y-59654000D02*
X125766000Y-59654000D01*
X252730000Y-38100000D02*
X226568000Y-38100000D01*
X203237000Y-40132000D02*
X215101660Y-40132000D01*
X191630000Y-85585000D02*
X194043000Y-87998000D01*
X181610000Y-82550000D02*
X190059190Y-82550000D01*
X226568000Y-38100000D02*
X226060000Y-38608000D01*
X180340000Y-83820000D02*
X181610000Y-82550000D01*
X118654000Y-59228720D02*
X119079280Y-59654000D01*
X206642000Y-87998000D02*
X207010000Y-87630000D01*
X194043000Y-87998000D02*
X206642000Y-87998000D01*
X223890950Y-39877000D02*
X223891950Y-39878000D01*
X215101660Y-40132000D02*
X215356660Y-39877000D01*
X203200000Y-40095000D02*
X203237000Y-40132000D01*
X223891950Y-39878000D02*
X224790000Y-39878000D01*
X190059190Y-82550000D02*
X191630000Y-84120810D01*
X206185380Y-34741000D02*
X206636380Y-35192000D01*
X210820000Y-88900000D02*
X208917810Y-88900000D01*
X250445000Y-40895000D02*
X250444000Y-40894000D01*
X178521620Y-80818000D02*
X179259620Y-80080000D01*
X137092810Y-61525000D02*
X136071190Y-61525000D01*
X178516000Y-80818000D02*
X178521620Y-80818000D01*
X230507810Y-34290000D02*
X232410000Y-34290000D01*
X162052000Y-80367000D02*
X162052000Y-80377720D01*
X179259620Y-80080000D02*
X182442000Y-80080000D01*
X200660000Y-33020000D02*
X201930000Y-34290000D01*
X230056810Y-34741000D02*
X230507810Y-34290000D01*
X163068000Y-62484000D02*
X138051810Y-62484000D01*
X182442000Y-80080000D02*
X182880000Y-80518000D01*
X201930000Y-34290000D02*
X203832190Y-34290000D01*
X131128905Y-61278905D02*
X130406000Y-60556000D01*
X204283190Y-34741000D02*
X206185380Y-34741000D01*
X181610000Y-90170000D02*
X180340000Y-91440000D01*
X213360000Y-91440000D02*
X210820000Y-88900000D01*
X208466810Y-88449000D02*
X185233190Y-88449000D01*
X208917810Y-88900000D02*
X208466810Y-88449000D01*
X130406000Y-60556000D02*
X118768000Y-60556000D01*
X183512190Y-90170000D02*
X181610000Y-90170000D01*
X252730000Y-40895000D02*
X250445000Y-40895000D01*
X206636380Y-35192000D02*
X227703620Y-35192000D01*
X185233190Y-88449000D02*
X183512190Y-90170000D01*
X203832190Y-34290000D02*
X204283190Y-34741000D01*
X232410000Y-34290000D02*
X233680000Y-33020000D01*
X138051810Y-62484000D02*
X137092810Y-61525000D01*
X228154620Y-34741000D02*
X230056810Y-34741000D01*
X178054000Y-81280000D02*
X178516000Y-80818000D01*
X162052000Y-80377720D02*
X162954280Y-81280000D01*
X136071190Y-61525000D02*
X135825095Y-61278905D01*
X250444000Y-40894000D02*
X233680000Y-40894000D01*
X227703620Y-35192000D02*
X228154620Y-34741000D01*
X135825095Y-61278905D02*
X131128905Y-61278905D01*
X162954280Y-81280000D02*
X178054000Y-81280000D01*
X118768000Y-60556000D02*
X118110000Y-61214000D01*
X250190000Y-69850000D02*
X251460000Y-71120000D01*
X167651405Y-85401000D02*
X168599000Y-85401000D01*
X238832241Y-68641000D02*
X239786835Y-68641000D01*
X194761000Y-86811000D02*
X193493810Y-86811000D01*
X192081000Y-83934000D02*
X190246000Y-82099000D01*
X204470000Y-86905000D02*
X204433000Y-86868000D01*
X109728000Y-87376000D02*
X145561470Y-87376000D01*
X224790000Y-74654123D02*
X225064000Y-74928123D01*
X225064000Y-74928123D02*
X227330000Y-74928123D01*
X168599000Y-85401000D02*
X168910000Y-85090000D01*
X173990000Y-82550000D02*
X172720000Y-83820000D01*
X192081000Y-85398190D02*
X192081000Y-83934000D01*
X145561470Y-87376000D02*
X145562470Y-87375000D01*
X181423190Y-82099000D02*
X180972190Y-82550000D01*
X239786835Y-68641000D02*
X240093835Y-68948000D01*
X245747810Y-69850000D02*
X250190000Y-69850000D01*
X209550000Y-74639000D02*
X209565123Y-74654123D01*
X190246000Y-82099000D02*
X181423190Y-82099000D01*
X171450000Y-82550000D02*
X172720000Y-83820000D01*
X168910000Y-83209595D02*
X169569595Y-82550000D01*
X165676405Y-87376000D02*
X167651405Y-85401000D01*
X194818000Y-86868000D02*
X194761000Y-86811000D01*
X238237240Y-68046000D02*
X238832241Y-68641000D01*
X193493810Y-86811000D02*
X192081000Y-85398190D01*
X209565123Y-74654123D02*
X224790000Y-74654123D01*
X223266000Y-39370000D02*
X223520000Y-39116000D01*
X242943620Y-68948000D02*
X243394620Y-69399000D01*
X237210000Y-68046000D02*
X238237240Y-68046000D01*
X201930000Y-39370000D02*
X223266000Y-39370000D01*
X227330000Y-67564000D02*
X236728000Y-67564000D01*
X223520000Y-39116000D02*
X223520000Y-38608000D01*
X105156000Y-80518000D02*
X106680000Y-82042000D01*
X146538530Y-87376000D02*
X165676405Y-87376000D01*
X146537530Y-87375000D02*
X146538530Y-87376000D01*
X106680000Y-82042000D02*
X106680000Y-84328000D01*
X168910000Y-85090000D02*
X168910000Y-83209595D01*
X204433000Y-86868000D02*
X194818000Y-86868000D01*
X106680000Y-84328000D02*
X109728000Y-87376000D01*
X243394620Y-69399000D02*
X245296810Y-69399000D01*
X145562470Y-87375000D02*
X146537530Y-87375000D01*
X240093835Y-68948000D02*
X242943620Y-68948000D01*
X180972190Y-82550000D02*
X173990000Y-82550000D01*
X245296810Y-69399000D02*
X245747810Y-69850000D01*
X236728000Y-67564000D02*
X237210000Y-68046000D01*
X169569595Y-82550000D02*
X171450000Y-82550000D01*
X227330000Y-34290000D02*
X228600000Y-33020000D01*
X179070000Y-87630000D02*
X182880000Y-83820000D01*
X208280000Y-91440000D02*
X207010000Y-90170000D01*
X199390000Y-92091514D02*
X198670514Y-92811000D01*
X137052486Y-91984000D02*
X138794486Y-93726000D01*
X205740000Y-33020000D02*
X207010000Y-34290000D01*
X173880570Y-94514000D02*
X178632545Y-94514000D01*
X179070000Y-91762405D02*
X179070000Y-87630000D01*
X180118595Y-92811000D02*
X179070000Y-91762405D01*
X138794486Y-93726000D02*
X173092570Y-93726000D01*
X179184545Y-95066000D02*
X180776310Y-95066000D01*
X228600000Y-42418000D02*
X257810000Y-42418000D01*
X123733000Y-91985000D02*
X123734000Y-91984000D01*
X173092570Y-93726000D02*
X173880570Y-94514000D01*
X180776310Y-95066000D02*
X181141310Y-95431000D01*
X181141310Y-95431000D02*
X182155000Y-95431000D01*
X123734000Y-91984000D02*
X137052486Y-91984000D01*
X207010000Y-34290000D02*
X227330000Y-34290000D01*
X207010000Y-90170000D02*
X200025000Y-90170000D01*
X178632545Y-94514000D02*
X179184545Y-95066000D01*
X123571000Y-91985000D02*
X123733000Y-91985000D01*
X199390000Y-90805000D02*
X199390000Y-92091514D01*
X198670514Y-92811000D02*
X180118595Y-92811000D01*
X200025000Y-90170000D02*
X199390000Y-90805000D01*
X215900000Y-91440000D02*
X213995000Y-93345000D01*
X133214393Y-63512298D02*
X135242702Y-63512298D01*
X142207595Y-71410000D02*
X139844000Y-69046405D01*
X162560000Y-72898000D02*
X161072000Y-71410000D01*
X200294810Y-93713000D02*
X179744975Y-93713000D01*
X228341430Y-35192000D02*
X230243620Y-35192000D01*
X170688000Y-72898000D02*
X162560000Y-72898000D01*
X119717340Y-61909000D02*
X118784340Y-62842000D01*
X179744975Y-93713000D02*
X179192975Y-93161000D01*
X204096380Y-35192000D02*
X205998570Y-35192000D01*
X179192975Y-93161000D02*
X174441000Y-93161000D01*
X199390000Y-34290000D02*
X201292190Y-34290000D01*
X230243620Y-35192000D02*
X230694620Y-34741000D01*
X139844000Y-69046405D02*
X139844000Y-68113595D01*
X250153000Y-40132000D02*
X236220000Y-40132000D01*
X200662810Y-93345000D02*
X200294810Y-93713000D01*
X230694620Y-34741000D02*
X232596810Y-34741000D01*
X139844000Y-68113595D02*
X135242702Y-63512298D01*
X132334000Y-62631905D02*
X130568475Y-62631905D01*
X174441000Y-93161000D02*
X172720000Y-91440000D01*
X233047810Y-34290000D02*
X234950000Y-34290000D01*
X227890430Y-35643000D02*
X228341430Y-35192000D01*
X129845570Y-61909000D02*
X119717340Y-61909000D01*
X198120000Y-33020000D02*
X199390000Y-34290000D01*
X114958000Y-62842000D02*
X113030000Y-64770000D01*
X118784340Y-62842000D02*
X114958000Y-62842000D01*
X234950000Y-34290000D02*
X236220000Y-33020000D01*
X205998570Y-35192000D02*
X206449570Y-35643000D01*
X132334000Y-62631905D02*
X133214393Y-63512298D01*
X130568475Y-62631905D02*
X129845570Y-61909000D01*
X161072000Y-71410000D02*
X142207595Y-71410000D01*
X201743190Y-34741000D02*
X203645380Y-34741000D01*
X250190000Y-40169000D02*
X250153000Y-40132000D01*
X213995000Y-93345000D02*
X200662810Y-93345000D01*
X203645380Y-34741000D02*
X204096380Y-35192000D01*
X232596810Y-34741000D02*
X233047810Y-34290000D01*
X206449570Y-35643000D02*
X227890430Y-35643000D01*
X201292190Y-34290000D02*
X201743190Y-34741000D01*
X169962000Y-85598000D02*
X169962000Y-85297280D01*
X200660000Y-91440000D02*
X200660000Y-92710000D01*
X214862470Y-41009000D02*
X202553000Y-41009000D01*
X200108000Y-93262000D02*
X179931785Y-93262000D01*
X169962000Y-87158000D02*
X169962000Y-85598000D01*
X146350720Y-87826000D02*
X145749280Y-87826000D01*
X219710000Y-81280000D02*
X220980000Y-80010000D01*
X167838215Y-85852000D02*
X165863215Y-87827000D01*
X235185000Y-82023000D02*
X229253940Y-82023000D01*
X174627810Y-92710000D02*
X173990000Y-92072190D01*
X104140000Y-84430405D02*
X104140000Y-80518000D01*
X201095000Y-39551000D02*
X199009000Y-39551000D01*
X142761000Y-89014000D02*
X141597620Y-89014000D01*
X201204000Y-39660000D02*
X201095000Y-39551000D01*
X179931785Y-93262000D02*
X179379785Y-92710000D01*
X141597620Y-89014000D02*
X140861620Y-88278000D01*
X201204000Y-39670720D02*
X201204000Y-39660000D01*
X145749280Y-87826000D02*
X145748280Y-87827000D01*
X169962000Y-85852000D02*
X167838215Y-85852000D01*
X146351720Y-87827000D02*
X146350720Y-87826000D01*
X216531530Y-40603000D02*
X216387530Y-40459000D01*
X216387530Y-40459000D02*
X215412470Y-40459000D01*
X228366940Y-81136000D02*
X222106000Y-81136000D01*
X165863215Y-87827000D02*
X146351720Y-87827000D01*
X179379785Y-92710000D02*
X174627810Y-92710000D01*
X247650000Y-85090000D02*
X238252000Y-85090000D01*
X222106000Y-81136000D02*
X220980000Y-80010000D01*
X215412470Y-40459000D02*
X214862470Y-41009000D01*
X173482000Y-87376000D02*
X170180000Y-87376000D01*
X173990000Y-92072190D02*
X173990000Y-87884000D01*
X107987594Y-88278000D02*
X104140000Y-84430405D01*
X202553000Y-41009000D02*
X201640000Y-40096000D01*
X201930000Y-81280000D02*
X219710000Y-81280000D01*
X140861620Y-88278000D02*
X107987594Y-88278000D01*
X170180000Y-87376000D02*
X169962000Y-87158000D01*
X169962000Y-85297280D02*
X170180000Y-85079280D01*
X222850000Y-40603000D02*
X216531530Y-40603000D01*
X200660000Y-92710000D02*
X200108000Y-93262000D01*
X143948000Y-87827000D02*
X142761000Y-89014000D01*
X201640000Y-40096000D02*
X201629280Y-40096000D01*
X229253940Y-82023000D02*
X228366940Y-81136000D01*
X173990000Y-87884000D02*
X173482000Y-87376000D01*
X238252000Y-85090000D02*
X235185000Y-82023000D01*
X170180000Y-85079280D02*
X170180000Y-83820000D01*
X145748280Y-87827000D02*
X143948000Y-87827000D01*
X201629280Y-40096000D02*
X201204000Y-39670720D01*
X259175620Y-58510000D02*
X257815620Y-57150000D01*
X225988240Y-53257000D02*
X225534240Y-52803000D01*
X196850000Y-62484000D02*
X196850000Y-63822405D01*
X195902405Y-64770000D02*
X194310000Y-64770000D01*
X196850000Y-63822405D02*
X195902405Y-64770000D01*
X264160000Y-58510000D02*
X259175620Y-58510000D01*
X202568832Y-57246467D02*
X202568832Y-59175358D01*
X194310000Y-64770000D02*
X190500000Y-68580000D01*
X235774620Y-54159000D02*
X235266620Y-53651000D01*
X232970430Y-53257000D02*
X225988240Y-53257000D01*
X243840000Y-55880000D02*
X242570000Y-54610000D01*
X202568832Y-59175358D02*
X200530190Y-61214000D01*
X257815620Y-57150000D02*
X245110000Y-57150000D01*
X235266620Y-53651000D02*
X233364430Y-53651000D01*
X225534240Y-52803000D02*
X220165570Y-52803000D01*
X198120000Y-61214000D02*
X196850000Y-62484000D01*
X220067570Y-52705000D02*
X207110300Y-52705000D01*
X233364430Y-53651000D02*
X232970430Y-53257000D01*
X207110300Y-52705000D02*
X202568832Y-57246467D01*
X237676810Y-54159000D02*
X235774620Y-54159000D01*
X242570000Y-54610000D02*
X238127810Y-54610000D01*
X220165570Y-52803000D02*
X220067570Y-52705000D01*
X200530190Y-61214000D02*
X198120000Y-61214000D01*
X245110000Y-57150000D02*
X243840000Y-55880000D01*
X238127810Y-54610000D02*
X237676810Y-54159000D01*
X218913810Y-72246000D02*
X224934000Y-72246000D01*
X199935000Y-71628000D02*
X218295810Y-71628000D01*
X186690000Y-61439416D02*
X186690000Y-64042203D01*
X199898000Y-60452000D02*
X187677416Y-60452000D01*
X151892000Y-92710000D02*
X156210000Y-92710000D01*
X175912000Y-64914000D02*
X162416000Y-64914000D01*
X180908741Y-65985326D02*
X180633741Y-66260326D01*
X162416000Y-64914000D02*
X161290000Y-66040000D01*
X184279810Y-64770000D02*
X183064484Y-65985326D01*
X224934000Y-72246000D02*
X226060000Y-71120000D01*
X177258326Y-66260326D02*
X175912000Y-64914000D01*
X183064484Y-65985326D02*
X180908741Y-65985326D01*
X151130000Y-91948000D02*
X151130000Y-91440000D01*
X180633741Y-66260326D02*
X177258326Y-66260326D01*
X218295810Y-71628000D02*
X218913810Y-72246000D01*
X151892000Y-92710000D02*
X151130000Y-91948000D01*
X185962203Y-64770000D02*
X184279810Y-64770000D01*
X187677416Y-60452000D02*
X186690000Y-61439416D01*
X156210000Y-92710000D02*
X156718000Y-92202000D01*
X186690000Y-64042203D02*
X185962203Y-64770000D01*
X207297110Y-53156000D02*
X203019832Y-57433277D01*
X196089215Y-65221000D02*
X194496810Y-65221000D01*
X197301000Y-64009215D02*
X196089215Y-65221000D01*
X225801430Y-53708000D02*
X225347430Y-53254000D01*
X237490000Y-54610000D02*
X235587810Y-54610000D01*
X232783620Y-53708000D02*
X225801430Y-53708000D01*
X203019832Y-57433277D02*
X203019832Y-59362168D01*
X197301000Y-62670810D02*
X197301000Y-64009215D01*
X200717000Y-61665000D02*
X198306810Y-61665000D01*
X238760000Y-55880000D02*
X237490000Y-54610000D01*
X203019832Y-59362168D02*
X200717000Y-61665000D01*
X225347430Y-53254000D02*
X219978760Y-53254000D01*
X198306810Y-61665000D02*
X197301000Y-62670810D01*
X233177620Y-54102000D02*
X232783620Y-53708000D01*
X193040000Y-66677810D02*
X193040000Y-68580000D01*
X194496810Y-65221000D02*
X193040000Y-66677810D01*
X219880760Y-53156000D02*
X207297110Y-53156000D01*
X235079810Y-54102000D02*
X233177620Y-54102000D01*
X235587810Y-54610000D02*
X235079810Y-54102000D01*
X219978760Y-53254000D02*
X219880760Y-53156000D01*
X194170000Y-70752000D02*
X174358000Y-70752000D01*
X171704000Y-72517000D02*
X171704000Y-74018866D01*
X165608000Y-78740000D02*
X147066000Y-78740000D01*
X171761000Y-72457190D02*
X171761000Y-72460000D01*
X168148000Y-76200000D02*
X165608000Y-78740000D01*
X171761000Y-72460000D02*
X171704000Y-72517000D01*
X130810000Y-68580000D02*
X130810000Y-70990190D01*
X171704000Y-74018866D02*
X169522866Y-76200000D01*
X200717000Y-65221000D02*
X196088000Y-69850000D01*
X172279190Y-71939000D02*
X171761000Y-72457190D01*
X136906000Y-73406000D02*
X136906000Y-78232000D01*
X174358000Y-70752000D02*
X173171000Y-71939000D01*
X216327280Y-65221000D02*
X200717000Y-65221000D01*
X195072000Y-69850000D02*
X194170000Y-70752000D01*
X134931000Y-71431000D02*
X136906000Y-73406000D01*
X131250810Y-71431000D02*
X134931000Y-71431000D01*
X130810000Y-70990190D02*
X131250810Y-71431000D01*
X196088000Y-69850000D02*
X195072000Y-69850000D01*
X217330280Y-64218000D02*
X216327280Y-65221000D01*
X136906000Y-78232000D02*
X137414000Y-78740000D01*
X241256000Y-64218000D02*
X217330280Y-64218000D01*
X137414000Y-78740000D02*
X147066000Y-78740000D01*
X173171000Y-71939000D02*
X172279190Y-71939000D01*
X241300000Y-64262000D02*
X241256000Y-64218000D01*
X169522866Y-76200000D02*
X168148000Y-76200000D01*
X146050000Y-78740000D02*
X147066000Y-78740000D01*
X225614620Y-54159000D02*
X225160620Y-53705000D01*
X134744190Y-71882000D02*
X136455000Y-73592810D01*
X233047810Y-54610000D02*
X232596810Y-54159000D01*
X142240000Y-85090000D02*
X142240000Y-80010000D01*
X183574810Y-74479000D02*
X179610987Y-74479000D01*
X165981620Y-79642000D02*
X157848000Y-79642000D01*
X225160620Y-53705000D02*
X219791950Y-53705000D01*
X176208810Y-73971000D02*
X176203190Y-73971000D01*
X125730000Y-68580000D02*
X129032000Y-68580000D01*
X153670000Y-83820000D02*
X151016000Y-86474000D01*
X171943810Y-75074000D02*
X171924486Y-75074000D01*
X175908513Y-73676323D02*
X173341487Y-73676323D01*
X207483919Y-53607000D02*
X203470832Y-57620087D01*
X203470832Y-57620087D02*
X203470832Y-60188304D01*
X184025810Y-74930000D02*
X183574810Y-74479000D01*
X143624000Y-86474000D02*
X142240000Y-85090000D01*
X130359000Y-69907000D02*
X130359000Y-71177000D01*
X200660000Y-74930000D02*
X184025810Y-74930000D01*
X171924486Y-75074000D02*
X169896486Y-77102000D01*
X232596810Y-54159000D02*
X225614620Y-54159000D01*
X151016000Y-86474000D02*
X143624000Y-86474000D01*
X177167810Y-74930000D02*
X176208810Y-73971000D01*
X219693950Y-53607000D02*
X207483919Y-53607000D01*
X130359000Y-71177000D02*
X131064000Y-71882000D01*
X131064000Y-71882000D02*
X134744190Y-71882000D01*
X236220000Y-55880000D02*
X234950000Y-54610000D01*
X173341487Y-73676323D02*
X171943810Y-75074000D01*
X136455000Y-78418810D02*
X137227190Y-79191000D01*
X179610987Y-74479000D02*
X179159987Y-74930000D01*
X169896486Y-77102000D02*
X168521620Y-77102000D01*
X179159987Y-74930000D02*
X177167810Y-74930000D01*
X141421000Y-79191000D02*
X137227190Y-79191000D01*
X142240000Y-80010000D02*
X141421000Y-79191000D01*
X168521620Y-77102000D02*
X165981620Y-79642000D01*
X219791950Y-53705000D02*
X219693950Y-53607000D01*
X176203190Y-73971000D02*
X175908513Y-73676323D01*
X157848000Y-79642000D02*
X153670000Y-83820000D01*
X234950000Y-54610000D02*
X233047810Y-54610000D01*
X129032000Y-68580000D02*
X130359000Y-69907000D01*
X136455000Y-73592810D02*
X136455000Y-78418810D01*
X153059595Y-54610000D02*
X152400000Y-55269595D01*
X204470000Y-58399974D02*
X204470000Y-58420000D01*
X151638000Y-57150000D02*
X144780000Y-57150000D01*
X152400000Y-56388000D02*
X151638000Y-57150000D01*
X165585203Y-52013000D02*
X158428810Y-52013000D01*
X197802960Y-53546536D02*
X197755496Y-53594000D01*
X197104000Y-53594000D02*
X196088000Y-54610000D01*
X152400000Y-55269595D02*
X152400000Y-56388000D01*
X232410000Y-54610000D02*
X225427810Y-54610000D01*
X225427810Y-54610000D02*
X224976810Y-54159000D01*
X155831810Y-54610000D02*
X153059595Y-54610000D01*
X197755496Y-53594000D02*
X197104000Y-53594000D01*
X144780000Y-57150000D02*
X143510000Y-55880000D01*
X168182203Y-54610000D02*
X165585203Y-52013000D01*
X196088000Y-54610000D02*
X168182203Y-54610000D01*
X224976810Y-54159000D02*
X208710974Y-54159000D01*
X233680000Y-55880000D02*
X232410000Y-54610000D01*
X158428810Y-52013000D02*
X155831810Y-54610000D01*
X208710974Y-54159000D02*
X204470000Y-58399974D01*
X226641000Y-41329000D02*
X227330000Y-40640000D01*
X201927190Y-41021000D02*
X202366190Y-41460000D01*
X216619720Y-41329000D02*
X226641000Y-41329000D01*
X195707000Y-53340000D02*
X176011280Y-53340000D01*
X197358000Y-41021000D02*
X201927190Y-41021000D01*
X176011280Y-53340000D02*
X174233280Y-51562000D01*
X152781000Y-51562000D02*
X151130000Y-53213000D01*
X174233280Y-51562000D02*
X152781000Y-51562000D01*
X215599280Y-40910000D02*
X216200720Y-40910000D01*
X216200720Y-40910000D02*
X216619720Y-41329000D01*
X202366190Y-41460000D02*
X215049280Y-41460000D01*
X215049280Y-41460000D02*
X215599280Y-40910000D01*
X220218000Y-55118000D02*
X222250000Y-57150000D01*
X210058000Y-55118000D02*
X220218000Y-55118000D01*
X222250000Y-57150000D02*
X227330000Y-57150000D01*
X187842488Y-78232000D02*
X185965000Y-78232000D01*
X197612000Y-79248000D02*
X195834000Y-79248000D01*
X227330000Y-57150000D02*
X228600000Y-55880000D01*
X185965000Y-78232000D02*
X185420000Y-78777000D01*
X204978000Y-60198000D02*
X210058000Y-55118000D01*
X188490488Y-78880000D02*
X187842488Y-78232000D01*
X195834000Y-79248000D02*
X195466000Y-78880000D01*
X195466000Y-78880000D02*
X188490488Y-78880000D01*
X258084000Y-61234000D02*
X266974000Y-61234000D01*
X236139810Y-63316000D02*
X236209810Y-63246000D01*
X204377190Y-64045000D02*
X204651190Y-64319000D01*
X266974000Y-61234000D02*
X269240000Y-63500000D01*
X238760000Y-60960000D02*
X256873280Y-60960000D01*
X256874280Y-60959000D02*
X257809000Y-60959000D01*
X202692000Y-64045000D02*
X204377190Y-64045000D01*
X204651190Y-64319000D02*
X215953660Y-64319000D01*
X216956660Y-63316000D02*
X236139810Y-63316000D01*
X215953660Y-64319000D02*
X216956660Y-63316000D01*
X236209810Y-63246000D02*
X236474000Y-63246000D01*
X256873280Y-60960000D02*
X256874280Y-60959000D01*
X257809000Y-60959000D02*
X258084000Y-61234000D01*
X236474000Y-63246000D02*
X238760000Y-60960000D01*
X192405000Y-64643000D02*
X192405000Y-66015405D01*
X190966405Y-67454000D02*
X189086000Y-67454000D01*
X191770000Y-64008000D02*
X192405000Y-64643000D01*
X191770000Y-61177000D02*
X191770000Y-64008000D01*
X192405000Y-66015405D02*
X190966405Y-67454000D01*
X189086000Y-67454000D02*
X187960000Y-68580000D01*
X228712240Y-57886000D02*
X219430000Y-57886000D01*
X259271000Y-59881000D02*
X257556000Y-58166000D01*
X270826620Y-61271000D02*
X269436620Y-59881000D01*
X269436620Y-59881000D02*
X259271000Y-59881000D01*
X273179810Y-61722000D02*
X272728810Y-61271000D01*
X194564000Y-41275000D02*
X175895000Y-41275000D01*
X257556000Y-58166000D02*
X228992240Y-58166000D01*
X219430000Y-57886000D02*
X218455723Y-56911723D01*
X228992240Y-58166000D02*
X228712240Y-57886000D01*
X272728810Y-61271000D02*
X270826620Y-61271000D01*
X276860000Y-63500000D02*
X275082000Y-61722000D01*
X215625000Y-41911000D02*
X195200000Y-41911000D01*
X215900000Y-41636000D02*
X215625000Y-41911000D01*
X275082000Y-61722000D02*
X273179810Y-61722000D01*
X195200000Y-41911000D02*
X194564000Y-41275000D01*
X107990000Y-71120000D02*
X110530000Y-68580000D01*
X110530000Y-68580000D02*
X116840000Y-68580000D01*
X151130000Y-60960000D02*
X149663000Y-59493000D01*
X126077000Y-60105000D02*
X113123000Y-60105000D01*
X126689000Y-59493000D02*
X126077000Y-60105000D01*
X113123000Y-60105000D02*
X112268000Y-60960000D01*
X149663000Y-59493000D02*
X126689000Y-59493000D01*
X109895000Y-81915000D02*
X113665000Y-81915000D01*
X107990000Y-80010000D02*
X109895000Y-81915000D01*
X113665000Y-81915000D02*
X115570000Y-83820000D01*
X243581430Y-53708000D02*
X257236025Y-53708000D01*
X226548670Y-51904000D02*
X233530860Y-51904000D01*
X201044995Y-58785765D02*
X201215832Y-58614928D01*
X258392025Y-54864000D02*
X261620000Y-54864000D01*
X226094670Y-51450000D02*
X226548670Y-51904000D01*
X198479074Y-59099000D02*
X198792309Y-58785765D01*
X148577000Y-72123000D02*
X146317000Y-72123000D01*
X198792309Y-58785765D02*
X201044995Y-58785765D01*
X201215832Y-58614928D02*
X201215832Y-56686037D01*
X238688240Y-53257000D02*
X243130430Y-53257000D01*
X206549870Y-51352000D02*
X220628000Y-51352000D01*
X138430000Y-76200000D02*
X139700000Y-74930000D01*
X155645000Y-59493000D02*
X172652810Y-59493000D01*
X148590000Y-72136000D02*
X148577000Y-72123000D01*
X233924860Y-52298000D02*
X235827050Y-52298000D01*
X139700000Y-74930000D02*
X141602190Y-74930000D01*
X235827050Y-52298000D02*
X236335050Y-52806000D01*
X206293935Y-51607935D02*
X206549870Y-51352000D01*
X136398000Y-92710000D02*
X111760000Y-92710000D01*
X220628000Y-51352000D02*
X220726000Y-51450000D01*
X257236025Y-53708000D02*
X258392025Y-54864000D01*
X146311380Y-72123000D02*
X146317000Y-72123000D01*
X111760000Y-92710000D02*
X110490000Y-91440000D01*
X180340000Y-63500000D02*
X182626000Y-61214000D01*
X182626000Y-61214000D02*
X185001987Y-61214000D01*
X141909190Y-74623000D02*
X143811380Y-74623000D01*
X236335050Y-52806000D02*
X238237240Y-52806000D01*
X143811380Y-74623000D02*
X146311380Y-72123000D01*
X220726000Y-51450000D02*
X226094670Y-51450000D01*
X233530860Y-51904000D02*
X233924860Y-52298000D01*
X178562000Y-61722000D02*
X180340000Y-63500000D01*
X141602190Y-74930000D02*
X141909190Y-74623000D01*
X187116986Y-59099000D02*
X198479074Y-59099000D01*
X154940000Y-61087000D02*
X154940000Y-60198000D01*
X154940000Y-60198000D02*
X155645000Y-59493000D01*
X154178000Y-72136000D02*
X148590000Y-72136000D01*
X243130430Y-53257000D02*
X243581430Y-53708000D01*
X172652810Y-59493000D02*
X174881810Y-61722000D01*
X185001987Y-61214000D02*
X187116986Y-59099000D01*
X206293935Y-51607935D02*
X206549869Y-51352000D01*
X174881810Y-61722000D02*
X178562000Y-61722000D01*
X201215832Y-56686037D02*
X206293935Y-51607935D01*
X238237240Y-52806000D02*
X238688240Y-53257000D01*
X136144000Y-60960000D02*
X138430000Y-60960000D01*
X108204000Y-94234000D02*
X105410000Y-91440000D01*
X135636000Y-60415000D02*
X135636000Y-60452000D01*
X135636000Y-60452000D02*
X136144000Y-60960000D01*
X121793000Y-94234000D02*
X108204000Y-94234000D01*
X132588000Y-60415000D02*
X135636000Y-60415000D01*
X197105000Y-57149000D02*
X197413000Y-56841000D01*
X176610000Y-58197000D02*
X193548000Y-58197000D01*
X205880185Y-51383875D02*
X206363057Y-50901000D01*
X175260000Y-59547000D02*
X176610000Y-58197000D01*
X139954000Y-82296000D02*
X140970000Y-81280000D01*
X226281480Y-50999000D02*
X226735480Y-51453000D01*
X161487000Y-60509000D02*
X172269000Y-60509000D01*
X220912810Y-50999000D02*
X226281480Y-50999000D01*
X113030000Y-83820000D02*
X114554000Y-85344000D01*
X135636000Y-82296000D02*
X139954000Y-82296000D01*
X132588000Y-85344000D02*
X135636000Y-82296000D01*
X146013000Y-73697000D02*
X143510000Y-76200000D01*
X200423059Y-56841000D02*
X205880185Y-51383875D01*
X220814810Y-50901000D02*
X220912810Y-50999000D01*
X226735480Y-51453000D02*
X233717670Y-51453000D01*
X234111670Y-51847000D02*
X238729000Y-51847000D01*
X233717670Y-51453000D02*
X234111670Y-51847000D01*
X238729000Y-51847000D02*
X238760000Y-51816000D01*
X197413000Y-56841000D02*
X200423059Y-56841000D01*
X161290064Y-60705936D02*
X161487000Y-60509000D01*
X193548000Y-58197000D02*
X193548000Y-58041810D01*
X206363057Y-50901000D02*
X220814810Y-50901000D01*
X194440810Y-57149000D02*
X197105000Y-57149000D01*
X114554000Y-85344000D02*
X132588000Y-85344000D01*
X172269000Y-60509000D02*
X175260000Y-63500000D01*
X159004000Y-73697000D02*
X146013000Y-73697000D01*
X193548000Y-58041810D02*
X194440810Y-57149000D01*
X182205190Y-60997000D02*
X182439190Y-60763000D01*
X174695000Y-62173000D02*
X176473000Y-62173000D01*
X204091810Y-62484000D02*
X205024810Y-63417000D01*
X118889000Y-84599000D02*
X118110000Y-83820000D01*
X172466000Y-59944000D02*
X174695000Y-62173000D01*
X196876000Y-58648000D02*
X197439026Y-58084974D01*
X182439190Y-60763000D02*
X184815176Y-60763000D01*
X215580040Y-63417000D02*
X216583040Y-62414000D01*
X239252190Y-58928000D02*
X242570000Y-58928000D01*
X198628000Y-62484000D02*
X204091810Y-62484000D01*
X142096000Y-75074000D02*
X140970000Y-76200000D01*
X197439026Y-58084974D02*
X198606519Y-58084974D01*
X184815176Y-60763000D02*
X186930176Y-58648000D01*
X160269347Y-60701347D02*
X161026694Y-59944000D01*
X177800000Y-60997000D02*
X182205190Y-60997000D01*
X176473000Y-62173000D02*
X177800000Y-63500000D01*
X140970000Y-80010000D02*
X139192000Y-81788000D01*
X205024810Y-63417000D02*
X215580040Y-63417000D01*
X186930176Y-58648000D02*
X196876000Y-58648000D01*
X216583040Y-62414000D02*
X235766190Y-62414000D01*
X235766190Y-62414000D02*
X239252190Y-58928000D01*
X157988000Y-72898000D02*
X146174190Y-72898000D01*
X143998190Y-75074000D02*
X142096000Y-75074000D01*
X161026694Y-59944000D02*
X172466000Y-59944000D01*
X146174190Y-72898000D02*
X143998190Y-75074000D01*
X134366000Y-81788000D02*
X131555000Y-84599000D01*
X139192000Y-81788000D02*
X134366000Y-81788000D01*
X131555000Y-84599000D02*
X118889000Y-84599000D01*
X182245000Y-71501000D02*
X179070000Y-71501000D01*
X182880000Y-76200000D02*
X182880000Y-78486000D01*
X193680620Y-86360000D02*
X199898000Y-86360000D01*
X175063000Y-46171000D02*
X174752000Y-46482000D01*
X175074240Y-46171000D02*
X175063000Y-46171000D01*
X185119280Y-79503000D02*
X185720720Y-79503000D01*
X174752000Y-46482000D02*
X149352000Y-46482000D01*
X199898000Y-86360000D02*
X201930000Y-84328000D01*
X183896000Y-79502000D02*
X185118280Y-79502000D01*
X221302405Y-82550000D02*
X222106000Y-83353595D01*
X226266480Y-84639000D02*
X229723670Y-88096190D01*
X188722000Y-79502000D02*
X192532000Y-83312000D01*
X244348000Y-93218000D02*
X245110000Y-93980000D01*
X222106000Y-84286405D02*
X222095108Y-84297297D01*
X222436810Y-84639000D02*
X226266480Y-84639000D01*
X149352000Y-46482000D02*
X143510000Y-40640000D01*
X185720720Y-79503000D02*
X185721720Y-79502000D01*
X201930000Y-83209595D02*
X202589595Y-82550000D01*
X185118280Y-79502000D02*
X185119280Y-79503000D01*
X175779240Y-45466000D02*
X175074240Y-46171000D01*
X182880000Y-78486000D02*
X183896000Y-79502000D01*
X232918000Y-93218000D02*
X244348000Y-93218000D01*
X185721720Y-79502000D02*
X188722000Y-79502000D01*
X176530000Y-45466000D02*
X175779240Y-45466000D01*
X182880000Y-71501000D02*
X182245000Y-71501000D01*
X229723670Y-88096190D02*
X229723670Y-90023670D01*
X222095108Y-84297297D02*
X222436810Y-84639000D01*
X222106000Y-83353595D02*
X222106000Y-84286405D01*
X201930000Y-84328000D02*
X201930000Y-83209595D01*
X229723670Y-90023670D02*
X232918000Y-93218000D01*
X192532000Y-85211380D02*
X193680620Y-86360000D01*
X202589595Y-82550000D02*
X221302405Y-82550000D01*
X192532000Y-83312000D02*
X192532000Y-85211380D01*
X139700000Y-54610000D02*
X147320000Y-54610000D01*
X151130000Y-85090000D02*
X151130000Y-83820000D01*
X143510000Y-83820000D02*
X143510000Y-85090000D01*
X148590000Y-50800000D02*
X146050000Y-48260000D01*
X143510000Y-85090000D02*
X144443000Y-86023000D01*
X150197000Y-86023000D02*
X151130000Y-85090000D01*
X138430000Y-55880000D02*
X139700000Y-54610000D01*
X144443000Y-86023000D02*
X150197000Y-86023000D01*
X147320000Y-54610000D02*
X148590000Y-55880000D01*
X179468000Y-42418000D02*
X217170000Y-42418000D01*
X248376000Y-38826000D02*
X253030720Y-38826000D01*
X217170000Y-42418000D02*
X217805000Y-41783000D01*
X168910000Y-48260000D02*
X153670000Y-48260000D01*
X179431000Y-42455000D02*
X179468000Y-42418000D01*
X177800000Y-50292000D02*
X170942000Y-50292000D01*
X227711000Y-41783000D02*
X230886000Y-38608000D01*
X179214000Y-42455000D02*
X179431000Y-42455000D01*
X248158000Y-38608000D02*
X248376000Y-38826000D01*
X230886000Y-38608000D02*
X248158000Y-38608000D01*
X254000000Y-37856720D02*
X254000000Y-33020000D01*
X253030720Y-38826000D02*
X254000000Y-37856720D01*
X170942000Y-50292000D02*
X168910000Y-48260000D01*
X217805000Y-41783000D02*
X227711000Y-41783000D01*
X178334810Y-80367000D02*
X163068000Y-80367000D01*
X146050000Y-68580000D02*
X147320000Y-69850000D01*
X160782000Y-69850000D02*
X163068000Y-72136000D01*
X179072810Y-79629000D02*
X178334810Y-80367000D01*
X187415000Y-80264000D02*
X184020190Y-80264000D01*
X147320000Y-69850000D02*
X160782000Y-69850000D01*
X183385190Y-79629000D02*
X179072810Y-79629000D01*
X184020190Y-80264000D02*
X183385190Y-79629000D01*
X171922000Y-71327280D02*
X173144910Y-71327280D01*
X174171190Y-70301000D02*
X193859000Y-70301000D01*
X169439000Y-70902000D02*
X171496720Y-70902000D01*
X173144910Y-71327280D02*
X174171190Y-70301000D01*
X161671000Y-68580000D02*
X162687000Y-69596000D01*
X169164000Y-71177000D02*
X169439000Y-70902000D01*
X171496720Y-70902000D02*
X171922000Y-71327280D01*
X162687000Y-69596000D02*
X166370000Y-69596000D01*
X167951000Y-71177000D02*
X169164000Y-71177000D01*
X193859000Y-70301000D02*
X195580000Y-68580000D01*
X156210000Y-68580000D02*
X161671000Y-68580000D01*
X166370000Y-69596000D02*
X167951000Y-71177000D01*
X177297620Y-74422000D02*
X179030177Y-74422000D01*
X172082190Y-60960000D02*
X172720000Y-61597810D01*
X175768000Y-72898000D02*
X176390000Y-73520000D01*
X172720000Y-61597810D02*
X172720000Y-63500000D01*
X183761620Y-74028000D02*
X184212620Y-74479000D01*
X152400000Y-74930000D02*
X151130000Y-76200000D01*
X240216280Y-79826000D02*
X241658203Y-79826000D01*
X242570000Y-81890405D02*
X243229595Y-82550000D01*
X176395620Y-73520000D02*
X177297620Y-74422000D01*
X243229595Y-82550000D02*
X255270000Y-82550000D01*
X184212620Y-74479000D02*
X199587000Y-74479000D01*
X162016064Y-61006656D02*
X162016064Y-61005242D01*
X161589370Y-61431936D02*
X161590784Y-61431936D01*
X161302653Y-61718653D02*
X161589370Y-61431936D01*
X179030177Y-74422000D02*
X179424177Y-74028000D01*
X229901190Y-79155000D02*
X231743810Y-79155000D01*
X162061306Y-60960000D02*
X172082190Y-60960000D01*
X241658203Y-79826000D02*
X242570000Y-80737797D01*
X179424177Y-74028000D02*
X183761620Y-74028000D01*
X242570000Y-80737797D02*
X242570000Y-81890405D01*
X162016064Y-61005242D02*
X162061306Y-60960000D01*
X239003280Y-78613000D02*
X240216280Y-79826000D01*
X204216000Y-74168000D02*
X206557000Y-76509000D01*
X161590784Y-61431936D02*
X162016064Y-61006656D01*
X159512000Y-74930000D02*
X152400000Y-74930000D01*
X199587000Y-74479000D02*
X199898000Y-74168000D01*
X232285810Y-78613000D02*
X239003280Y-78613000D01*
X227255190Y-76509000D02*
X229901190Y-79155000D01*
X255270000Y-82550000D02*
X256540000Y-81280000D01*
X199898000Y-74168000D02*
X204216000Y-74168000D01*
X231743810Y-79155000D02*
X232285810Y-78613000D01*
X206557000Y-76509000D02*
X227255190Y-76509000D01*
X176390000Y-73520000D02*
X176395620Y-73520000D01*
X160020000Y-74422000D02*
X159512000Y-74930000D01*
X171450000Y-85852000D02*
X173228000Y-85852000D01*
X149873115Y-96012000D02*
X149860000Y-96025115D01*
X168910000Y-96012000D02*
X149873115Y-96012000D01*
X170688000Y-86614000D02*
X171450000Y-85852000D01*
X173228000Y-85852000D02*
X175260000Y-83820000D01*
X216721810Y-93796000D02*
X214819620Y-93796000D01*
X273050000Y-77470000D02*
X274320000Y-76200000D01*
X200668430Y-94615000D02*
X179371355Y-94615000D01*
X138430000Y-91440000D02*
X140970000Y-91440000D01*
X179371355Y-94615000D02*
X178819355Y-94063000D01*
X233172000Y-92710000D02*
X230251000Y-89789000D01*
X258572000Y-91948000D02*
X257810000Y-92710000D01*
X229675406Y-86041216D02*
X228694000Y-86041216D01*
X221752720Y-93218000D02*
X217299810Y-93218000D01*
X178819355Y-94063000D02*
X174067380Y-94063000D01*
X224790000Y-90170000D02*
X224790000Y-90180720D01*
X259588000Y-80010000D02*
X267462000Y-80010000D01*
X174067380Y-94063000D02*
X173222380Y-93218000D01*
X267970000Y-78157797D02*
X268657797Y-77470000D01*
X217299810Y-93218000D02*
X216721810Y-93796000D01*
X201036430Y-94247000D02*
X200668430Y-94615000D01*
X142748000Y-93218000D02*
X140970000Y-91440000D01*
X267970000Y-79502000D02*
X267970000Y-78157797D01*
X258572000Y-81026000D02*
X259588000Y-80010000D01*
X173222380Y-93218000D02*
X142748000Y-93218000D01*
X230251000Y-89789000D02*
X230251000Y-86616810D01*
X268657797Y-77470000D02*
X273050000Y-77470000D01*
X230251000Y-86616810D02*
X229675406Y-86041216D01*
X267462000Y-80010000D02*
X267970000Y-79502000D01*
X214368620Y-94247000D02*
X201036430Y-94247000D01*
X257810000Y-92710000D02*
X233172000Y-92710000D01*
X224790000Y-90180720D02*
X221752720Y-93218000D01*
X214819620Y-93796000D02*
X214368620Y-94247000D01*
X166236835Y-88729000D02*
X151301000Y-88729000D01*
X151301000Y-88729000D02*
X148590000Y-91440000D01*
X167007810Y-88138000D02*
X166429810Y-88716000D01*
X166429810Y-88716000D02*
X166249835Y-88716000D01*
X175006000Y-86614000D02*
X177800000Y-83820000D01*
X172720000Y-86614000D02*
X175006000Y-86614000D01*
X172720000Y-88138000D02*
X167007810Y-88138000D01*
X166249835Y-88716000D02*
X166236835Y-88729000D01*
X140970000Y-83820000D02*
X140970000Y-85090000D01*
X142805000Y-86925000D02*
X164535000Y-86925000D01*
X164535000Y-86925000D02*
X167640000Y-83820000D01*
X140970000Y-85090000D02*
X142805000Y-86925000D01*
X224018695Y-67564000D02*
X200914000Y-67564000D01*
X267214000Y-59430000D02*
X268034000Y-58610000D01*
X244726190Y-57404000D02*
X244923190Y-57601000D01*
X229362000Y-57404000D02*
X244726190Y-57404000D01*
X196974190Y-57912000D02*
X194818000Y-57912000D01*
X197532836Y-57358974D02*
X197257836Y-57633974D01*
X259457810Y-59430000D02*
X267214000Y-59430000D01*
X199450209Y-57358974D02*
X197532836Y-57358974D01*
X244923190Y-57601000D02*
X257628810Y-57601000D01*
X200152000Y-58060765D02*
X199450209Y-57358974D01*
X224754999Y-66827696D02*
X224018695Y-67564000D01*
X190500000Y-57472000D02*
X187012000Y-57472000D01*
X197252216Y-57633974D02*
X196974190Y-57912000D01*
X187012000Y-57472000D02*
X185420000Y-55880000D01*
X257628810Y-57601000D02*
X259457810Y-59430000D01*
X197257836Y-57633974D02*
X197252216Y-57633974D01*
X179070000Y-67310000D02*
X177800000Y-68580000D01*
X183388000Y-67310000D02*
X179070000Y-67310000D01*
X183896000Y-66802000D02*
X183388000Y-67310000D01*
X183905306Y-66802000D02*
X183896000Y-66802000D01*
X183908116Y-66804810D02*
X183905306Y-66802000D01*
X187490606Y-60001000D02*
X185420000Y-62071607D01*
X237863620Y-53708000D02*
X235961430Y-53708000D01*
X220254380Y-52254000D02*
X206923489Y-52254000D01*
X206923489Y-52254000D02*
X202117832Y-57059657D01*
X279400000Y-55880000D02*
X277823000Y-57457000D01*
X233157240Y-52806000D02*
X226175050Y-52806000D01*
X199165929Y-59687765D02*
X198852694Y-60001000D01*
X259709405Y-57457000D02*
X256862405Y-54610000D01*
X238314620Y-54159000D02*
X237863620Y-53708000D01*
X225721050Y-52352000D02*
X220352380Y-52352000D01*
X277823000Y-57457000D02*
X259709405Y-57457000D01*
X235453430Y-53200000D02*
X233551240Y-53200000D01*
X256862405Y-54610000D02*
X243207810Y-54610000D01*
X202117832Y-57059657D02*
X202117832Y-58988548D01*
X243207810Y-54610000D02*
X242756810Y-54159000D01*
X226175050Y-52806000D02*
X225721050Y-52352000D01*
X201418615Y-59687765D02*
X199165929Y-59687765D01*
X235961430Y-53708000D02*
X235453430Y-53200000D01*
X185420000Y-62071607D02*
X185420000Y-63500000D01*
X242756810Y-54159000D02*
X238314620Y-54159000D01*
X198852694Y-60001000D02*
X187490606Y-60001000D01*
X220352380Y-52352000D02*
X220254380Y-52254000D01*
X202117832Y-58988548D02*
X201418615Y-59687765D01*
X233551240Y-53200000D02*
X233157240Y-52806000D01*
X205671595Y-46736000D02*
X204614000Y-47793595D01*
X204614000Y-47793595D02*
X204614000Y-48438405D01*
X204614000Y-48438405D02*
X203141405Y-49911000D01*
X217678000Y-46736000D02*
X205671595Y-46736000D01*
X203141405Y-49911000D02*
X193040000Y-49911000D01*
X235953000Y-62865000D02*
X238309000Y-60509000D01*
X201676000Y-63246000D02*
X201784000Y-63246000D01*
X256686470Y-60509000D02*
X256687470Y-60508000D01*
X201784000Y-63246000D02*
X201857000Y-63319000D01*
X201857000Y-63319000D02*
X204289000Y-63319000D01*
X215766850Y-63868000D02*
X216769850Y-62865000D01*
X190500000Y-63500000D02*
X187960000Y-63500000D01*
X258270810Y-60783000D02*
X269063000Y-60783000D01*
X204838000Y-63868000D02*
X215766850Y-63868000D01*
X257995810Y-60508000D02*
X258270810Y-60783000D01*
X204289000Y-63319000D02*
X204838000Y-63868000D01*
X269063000Y-60783000D02*
X271780000Y-63500000D01*
X256687470Y-60508000D02*
X257995810Y-60508000D01*
X238309000Y-60509000D02*
X256686470Y-60509000D01*
X216769850Y-62865000D02*
X235953000Y-62865000D01*
X202983940Y-76962000D02*
X227070380Y-76962000D01*
X236538380Y-79064000D02*
X237751380Y-80277000D01*
X229714380Y-79606000D02*
X231930620Y-79606000D01*
X231930620Y-79606000D02*
X232472620Y-79064000D01*
X190572000Y-80065000D02*
X199880940Y-80065000D01*
X172864000Y-58276000D02*
X175260000Y-55880000D01*
X237751380Y-80277000D02*
X239634502Y-80277000D01*
X242559280Y-74930000D02*
X270510000Y-74930000D01*
X232472620Y-79064000D02*
X236538380Y-79064000D01*
X189357000Y-81280000D02*
X181089000Y-81280000D01*
X270510000Y-74930000D02*
X271780000Y-76200000D01*
X180327000Y-82042000D02*
X163195000Y-82042000D01*
X199880940Y-80065000D02*
X202983940Y-76962000D01*
X239634502Y-80277000D02*
X239638238Y-80273264D01*
X164338000Y-58276000D02*
X172864000Y-58276000D01*
X181089000Y-81280000D02*
X180327000Y-82042000D01*
X241300000Y-76189280D02*
X242559280Y-74930000D01*
X227070380Y-76962000D02*
X229714380Y-79606000D01*
X241300000Y-77216000D02*
X241300000Y-76189280D01*
X194818000Y-46482000D02*
X193225595Y-46482000D01*
X191914000Y-47793595D02*
X191914000Y-48878000D01*
X196596000Y-44704000D02*
X194818000Y-46482000D01*
X191914000Y-48878000D02*
X190754000Y-50038000D01*
X193225595Y-46482000D02*
X191914000Y-47793595D01*
X213614000Y-37846000D02*
X196596000Y-37846000D01*
X191044000Y-37338000D02*
X192314000Y-38608000D01*
X189230000Y-37338000D02*
X191044000Y-37338000D01*
X192314000Y-38608000D02*
X216408000Y-38608000D01*
X216408000Y-38608000D02*
X217170000Y-37846000D01*
X187303796Y-59550000D02*
X184150000Y-62703797D01*
X233344050Y-52355000D02*
X226361860Y-52355000D01*
X198979119Y-59236765D02*
X198665884Y-59550000D01*
X257049215Y-54159000D02*
X243394620Y-54159000D01*
X233738050Y-52749000D02*
X233344050Y-52355000D01*
X201666832Y-56872847D02*
X201666832Y-58801738D01*
X182877674Y-65534326D02*
X180333021Y-65534326D01*
X206736679Y-51803000D02*
X204707839Y-53831839D01*
X204707839Y-53831839D02*
X201666832Y-56872847D01*
X220441190Y-51803000D02*
X206736679Y-51803000D01*
X226322430Y-52315570D02*
X225907860Y-51901000D01*
X266700000Y-55880000D02*
X265574000Y-57006000D01*
X184150000Y-62703797D02*
X184150000Y-64262000D01*
X201231805Y-59236765D02*
X198979119Y-59236765D01*
X225907860Y-51901000D02*
X220539190Y-51901000D01*
X226361860Y-52355000D02*
X225910860Y-51904000D01*
X238050430Y-53257000D02*
X236148240Y-53257000D01*
X236148240Y-53257000D02*
X235640240Y-52749000D01*
X242943620Y-53708000D02*
X238501430Y-53708000D01*
X259896215Y-57006000D02*
X257049215Y-54159000D01*
X184150000Y-64262000D02*
X182877674Y-65534326D01*
X198665884Y-59550000D02*
X187303796Y-59550000D01*
X238501430Y-53708000D02*
X238050430Y-53257000D01*
X265574000Y-57006000D02*
X259896215Y-57006000D01*
X201666832Y-58801738D02*
X201231805Y-59236765D01*
X235640240Y-52749000D02*
X233738050Y-52749000D01*
X243394620Y-54159000D02*
X242943620Y-53708000D01*
X220539190Y-51901000D02*
X220441190Y-51803000D01*
X208580123Y-75379123D02*
X208534000Y-75333000D01*
X242316000Y-73914000D02*
X238595987Y-73914000D01*
X231557000Y-78704000D02*
X230088000Y-78704000D01*
X201665280Y-75946000D02*
X200141280Y-77470000D01*
X194310000Y-77470000D02*
X193040000Y-76200000D01*
X226754280Y-75379123D02*
X208580123Y-75379123D01*
X227038123Y-75654123D02*
X227029280Y-75654123D01*
X200141280Y-77470000D02*
X194310000Y-77470000D01*
X233299000Y-76962000D02*
X231557000Y-78704000D01*
X203666347Y-75946000D02*
X201665280Y-75946000D01*
X238595987Y-73914000D02*
X235547987Y-76962000D01*
X235547987Y-76962000D02*
X233299000Y-76962000D01*
X265574000Y-77326000D02*
X266700000Y-76200000D01*
X245728000Y-77326000D02*
X265574000Y-77326000D01*
X230088000Y-78704000D02*
X227038123Y-75654123D01*
X204274847Y-75337500D02*
X203666347Y-75946000D01*
X244602000Y-76200000D02*
X245728000Y-77326000D01*
X227029280Y-75654123D02*
X226754280Y-75379123D01*
X165100000Y-70358000D02*
X166370000Y-71628000D01*
X166370000Y-71628000D02*
X171196000Y-71628000D01*
X193506405Y-69850000D02*
X184150000Y-69850000D01*
X197178025Y-64770000D02*
X194310000Y-67638026D01*
X217143470Y-63767000D02*
X216140470Y-64770000D01*
X265099514Y-64770000D02*
X263508486Y-64770000D01*
X267970000Y-70231000D02*
X265938000Y-70231000D01*
X194310000Y-67638026D02*
X194310000Y-69046405D01*
X236396620Y-63697000D02*
X236326620Y-63767000D01*
X236660810Y-63697000D02*
X236396620Y-63697000D01*
X261222486Y-62484000D02*
X237873810Y-62484000D01*
X265430000Y-69723000D02*
X265430000Y-65100486D01*
X236326620Y-63767000D02*
X217143470Y-63767000D01*
X194310000Y-69046405D02*
X193506405Y-69850000D01*
X265430000Y-65100486D02*
X265099514Y-64770000D01*
X268605000Y-70866000D02*
X267970000Y-70231000D01*
X265938000Y-70231000D02*
X265430000Y-69723000D01*
X237873810Y-62484000D02*
X236660810Y-63697000D01*
X184150000Y-69850000D02*
X182880000Y-68580000D01*
X216140470Y-64770000D02*
X197178025Y-64770000D01*
X263508486Y-64770000D02*
X261222486Y-62484000D01*
X215357797Y-90170000D02*
X214630000Y-90897797D01*
X199838190Y-89719000D02*
X198939000Y-90618190D01*
X239493405Y-87774000D02*
X247794000Y-87774000D01*
X229313213Y-85041213D02*
X232918000Y-88646000D01*
X209550000Y-92456000D02*
X209550000Y-90807810D01*
X258457620Y-60332000D02*
X269249810Y-60332000D01*
X257909620Y-59784000D02*
X258457620Y-60332000D01*
X269249810Y-60332000D02*
X270639810Y-61722000D01*
X255905000Y-59784000D02*
X257909620Y-59784000D01*
X199841000Y-89719000D02*
X199838190Y-89719000D01*
X214630000Y-90897797D02*
X214630000Y-92072190D01*
X270639810Y-61722000D02*
X272542000Y-61722000D01*
X213808190Y-92894000D02*
X209988000Y-92894000D01*
X247794000Y-87774000D02*
X248920000Y-88900000D01*
X237658595Y-88676000D02*
X238591405Y-88676000D01*
X223774000Y-90170000D02*
X215357797Y-90170000D01*
X214630000Y-92072190D02*
X213808190Y-92894000D01*
X198939000Y-90618190D02*
X198939000Y-90621000D01*
X209988000Y-92894000D02*
X209550000Y-92456000D01*
X199898000Y-89662000D02*
X199841000Y-89719000D01*
X237628595Y-88646000D02*
X237658595Y-88676000D01*
X228694000Y-85041213D02*
X229313213Y-85041213D01*
X198939000Y-90621000D02*
X198120000Y-91440000D01*
X232918000Y-88646000D02*
X237628595Y-88646000D01*
X208404190Y-89662000D02*
X199898000Y-89662000D01*
X272542000Y-61722000D02*
X274320000Y-63500000D01*
X238591405Y-88676000D02*
X239493405Y-87774000D01*
X209550000Y-90807810D02*
X208404190Y-89662000D01*
X281758810Y-49981000D02*
X265881000Y-49981000D01*
X265881000Y-49981000D02*
X264160000Y-48260000D01*
X287020000Y-53340000D02*
X285117810Y-53340000D01*
X285117810Y-53340000D02*
X281758810Y-49981000D01*
X284848000Y-58788000D02*
X284848000Y-55621430D01*
X287020000Y-60960000D02*
X284848000Y-58788000D01*
X281011570Y-51785000D02*
X257525000Y-51785000D01*
X257525000Y-51785000D02*
X254000000Y-48260000D01*
X284848000Y-55621430D02*
X281011570Y-51785000D01*
X293199000Y-47315760D02*
X291069240Y-45186000D01*
X246638570Y-46088000D02*
X244736380Y-46088000D01*
X244285380Y-46539000D02*
X242383190Y-46539000D01*
X247089570Y-45637000D02*
X246638570Y-46088000D01*
X291069240Y-45186000D02*
X267222760Y-45186000D01*
X267222760Y-45186000D02*
X266771760Y-45637000D01*
X291465000Y-68580000D02*
X293199000Y-66845999D01*
X244736380Y-46088000D02*
X244285380Y-46539000D01*
X266771760Y-45637000D02*
X247089570Y-45637000D01*
X241932190Y-46990000D02*
X240030000Y-46990000D01*
X289560000Y-68580000D02*
X291465000Y-68580000D01*
X240030000Y-46990000D02*
X238760000Y-48260000D01*
X293199000Y-66845999D02*
X293199000Y-47315760D01*
X242383190Y-46539000D02*
X241932190Y-46990000D01*
X292735000Y-72390000D02*
X294552000Y-70573000D01*
X236722380Y-46482000D02*
X234820190Y-46482000D01*
X234312190Y-46990000D02*
X232410000Y-46990000D01*
X291629670Y-43833000D02*
X266662330Y-43833000D01*
X294552000Y-46755330D02*
X291629670Y-43833000D01*
X241822760Y-45186000D02*
X241371760Y-45637000D01*
X266662330Y-43833000D02*
X266211330Y-44284000D01*
X294552000Y-70573000D02*
X294552000Y-46755330D01*
X239018570Y-46088000D02*
X237116380Y-46088000D01*
X246529140Y-44284000D02*
X246078140Y-44735000D01*
X239469570Y-45637000D02*
X239018570Y-46088000D01*
X237116380Y-46088000D02*
X236722380Y-46482000D01*
X266211330Y-44284000D02*
X246529140Y-44284000D01*
X232410000Y-46990000D02*
X231140000Y-48260000D01*
X244175950Y-44735000D02*
X243724950Y-45186000D01*
X241371760Y-45637000D02*
X239469570Y-45637000D01*
X288290000Y-72390000D02*
X292735000Y-72390000D01*
X287020000Y-73660000D02*
X288290000Y-72390000D01*
X234820190Y-46482000D02*
X234312190Y-46990000D01*
X246078140Y-44735000D02*
X244175950Y-44735000D01*
X243724950Y-45186000D02*
X241822760Y-45186000D01*
X290695620Y-46088000D02*
X267596380Y-46088000D01*
X247463190Y-46539000D02*
X247012190Y-46990000D01*
X288290000Y-64770000D02*
X291465000Y-64770000D01*
X291465000Y-64770000D02*
X292297000Y-63938000D01*
X287020000Y-66040000D02*
X288290000Y-64770000D01*
X267596380Y-46088000D02*
X267145380Y-46539000D01*
X267145380Y-46539000D02*
X247463190Y-46539000D01*
X292297000Y-47689380D02*
X290695620Y-46088000D01*
X292297000Y-63938000D02*
X292297000Y-47689380D01*
X245110000Y-46990000D02*
X243840000Y-48260000D01*
X247012190Y-46990000D02*
X245110000Y-46990000D01*
X266700000Y-68580000D02*
X267970000Y-67310000D01*
X278892000Y-34290000D02*
X276352000Y-31750000D01*
X292100000Y-33020000D02*
X290830000Y-34290000D01*
X270510000Y-87630000D02*
X271780000Y-88900000D01*
X290830000Y-34290000D02*
X278892000Y-34290000D01*
X276352000Y-31750000D02*
X257810000Y-31750000D01*
X267970000Y-67310000D02*
X282575000Y-67310000D01*
X257810000Y-31750000D02*
X256540000Y-33020000D01*
X264160000Y-88900000D02*
X265430000Y-87630000D01*
X265430000Y-87630000D02*
X270510000Y-87630000D01*
X290830000Y-50800000D02*
X291395000Y-50235000D01*
X291395000Y-50235000D02*
X291395000Y-48063000D01*
X289560000Y-50800000D02*
X290830000Y-50800000D01*
X290322000Y-46990000D02*
X267970000Y-46990000D01*
X267970000Y-46990000D02*
X266700000Y-48260000D01*
X291395000Y-48063000D02*
X290322000Y-46990000D01*
X254632190Y-49530000D02*
X257338190Y-52236000D01*
X251460000Y-48260000D02*
X252730000Y-49530000D01*
X261151000Y-52236000D02*
X263525000Y-54610000D01*
X280670000Y-55245000D02*
X280670000Y-57150000D01*
X280670000Y-57150000D02*
X285750000Y-62230000D01*
X257338190Y-52236000D02*
X261151000Y-52236000D01*
X263525000Y-54610000D02*
X280035000Y-54610000D01*
X288290000Y-62230000D02*
X289560000Y-60960000D01*
X280035000Y-54610000D02*
X280670000Y-55245000D01*
X252730000Y-49530000D02*
X254632190Y-49530000D01*
X285750000Y-62230000D02*
X288290000Y-62230000D01*
X267783190Y-46539000D02*
X267332190Y-46990000D01*
X290508810Y-46539000D02*
X267783190Y-46539000D01*
X289560000Y-63500000D02*
X291465000Y-63500000D01*
X247650000Y-46990000D02*
X246380000Y-48260000D01*
X267332190Y-46990000D02*
X247650000Y-46990000D01*
X291846000Y-63119000D02*
X291846000Y-47876190D01*
X291846000Y-47876190D02*
X290508810Y-46539000D01*
X291465000Y-63500000D02*
X291846000Y-63119000D01*
X246155520Y-43382000D02*
X245704520Y-43833000D01*
X236348760Y-45580000D02*
X234446570Y-45580000D01*
X265837710Y-43382000D02*
X246155520Y-43382000D01*
X234446570Y-45580000D02*
X233938570Y-46088000D01*
X243802330Y-43833000D02*
X243351330Y-44284000D01*
X294132000Y-77470000D02*
X295454000Y-76148000D01*
X229232190Y-46990000D02*
X227330000Y-46990000D01*
X293370000Y-77470000D02*
X294132000Y-77470000D01*
X231642380Y-46482000D02*
X229743000Y-46482000D01*
X245704520Y-43833000D02*
X243802330Y-43833000D01*
X292003290Y-42931000D02*
X266288710Y-42931000D01*
X229686000Y-46539000D02*
X229683190Y-46539000D01*
X295454000Y-76148000D02*
X295454000Y-46381710D01*
X229683190Y-46539000D02*
X229232190Y-46990000D01*
X236742760Y-45186000D02*
X236348760Y-45580000D01*
X266288710Y-42931000D02*
X265837710Y-43382000D01*
X240998140Y-44735000D02*
X239095950Y-44735000D01*
X241449140Y-44284000D02*
X240998140Y-44735000D01*
X229743000Y-46482000D02*
X229686000Y-46539000D01*
X232036380Y-46088000D02*
X231642380Y-46482000D01*
X295454000Y-46381710D02*
X292003290Y-42931000D01*
X227330000Y-46990000D02*
X226060000Y-48260000D01*
X243351330Y-44284000D02*
X241449140Y-44284000D01*
X238644950Y-45186000D02*
X236742760Y-45186000D01*
X239095950Y-44735000D02*
X238644950Y-45186000D01*
X233938570Y-46088000D02*
X232036380Y-46088000D01*
X287020000Y-48260000D02*
X271780000Y-48260000D01*
X246902760Y-45186000D02*
X246451760Y-45637000D01*
X242196380Y-46088000D02*
X241745380Y-46539000D01*
X244098570Y-46088000D02*
X242196380Y-46088000D01*
X239843190Y-46539000D02*
X239392190Y-46990000D01*
X293650000Y-68871500D02*
X293650000Y-47128950D01*
X239392190Y-46990000D02*
X237490000Y-46990000D01*
X293650000Y-47128950D02*
X291256050Y-44735000D01*
X287020000Y-71120000D02*
X288290000Y-69850000D01*
X291256050Y-44735000D02*
X267035950Y-44735000D01*
X237490000Y-46990000D02*
X236220000Y-48260000D01*
X246451760Y-45637000D02*
X244549570Y-45637000D01*
X244549570Y-45637000D02*
X244098570Y-46088000D01*
X292671500Y-69850000D02*
X293650000Y-68871500D01*
X266584950Y-45186000D02*
X246902760Y-45186000D01*
X288290000Y-69850000D02*
X292671500Y-69850000D01*
X241745380Y-46539000D02*
X239843190Y-46539000D01*
X267035950Y-44735000D02*
X266584950Y-45186000D01*
X291816480Y-43382000D02*
X266475520Y-43382000D01*
X295003000Y-74059000D02*
X295003000Y-46568520D01*
X266024520Y-43833000D02*
X246342330Y-43833000D01*
X234633380Y-46031000D02*
X234125380Y-46539000D01*
X243989140Y-44284000D02*
X243538140Y-44735000D01*
X241635950Y-44735000D02*
X241184950Y-45186000D01*
X236535570Y-46031000D02*
X234633380Y-46031000D01*
X245891330Y-44284000D02*
X243989140Y-44284000D01*
X231772190Y-46990000D02*
X229870000Y-46990000D01*
X266475520Y-43382000D02*
X266024520Y-43833000D01*
X239282760Y-45186000D02*
X238831760Y-45637000D01*
X243538140Y-44735000D02*
X241635950Y-44735000D01*
X229870000Y-46990000D02*
X228600000Y-48260000D01*
X293370000Y-74930000D02*
X294132000Y-74930000D01*
X238831760Y-45637000D02*
X236929570Y-45637000D01*
X295003000Y-46568520D02*
X291816480Y-43382000D01*
X246342330Y-43833000D02*
X245891330Y-44284000D01*
X294132000Y-74930000D02*
X295003000Y-74059000D01*
X232223190Y-46539000D02*
X231772190Y-46990000D01*
X241184950Y-45186000D02*
X239282760Y-45186000D01*
X234125380Y-46539000D02*
X232223190Y-46539000D01*
X236929570Y-45637000D02*
X236535570Y-46031000D01*
X263792000Y-50432000D02*
X261620000Y-48260000D01*
X287020000Y-55880000D02*
X281572000Y-50432000D01*
X281572000Y-50432000D02*
X263792000Y-50432000D01*
X270510000Y-49530000D02*
X269240000Y-48260000D01*
X287020000Y-50800000D02*
X283215620Y-50800000D01*
X283215620Y-50800000D02*
X281945620Y-49530000D01*
X281945620Y-49530000D02*
X270510000Y-49530000D01*
X261703000Y-50883000D02*
X259080000Y-48260000D01*
X285750000Y-56515000D02*
X285750000Y-55247810D01*
X286385000Y-57150000D02*
X285750000Y-56515000D01*
X289560000Y-55880000D02*
X288290000Y-57150000D01*
X288290000Y-57150000D02*
X286385000Y-57150000D01*
X285750000Y-55247810D02*
X281385190Y-50883000D01*
X281385190Y-50883000D02*
X261703000Y-50883000D01*
X266849140Y-44284000D02*
X266398140Y-44735000D01*
X289560000Y-71120000D02*
X292867360Y-71120000D01*
X246264950Y-45186000D02*
X244362760Y-45186000D01*
X243911760Y-45637000D02*
X242009570Y-45637000D01*
X237303190Y-46539000D02*
X236852190Y-46990000D01*
X241558570Y-46088000D02*
X239656380Y-46088000D01*
X236852190Y-46990000D02*
X234950000Y-46990000D01*
X292867360Y-71120000D02*
X294101000Y-69886360D01*
X266398140Y-44735000D02*
X246715950Y-44735000D01*
X294101000Y-46942140D02*
X291442860Y-44284000D01*
X246715950Y-44735000D02*
X246264950Y-45186000D01*
X294101000Y-69886360D02*
X294101000Y-46942140D01*
X244362760Y-45186000D02*
X243911760Y-45637000D01*
X239656380Y-46088000D02*
X239205380Y-46539000D01*
X242009570Y-45637000D02*
X241558570Y-46088000D01*
X234950000Y-46990000D02*
X233680000Y-48260000D01*
X291442860Y-44284000D02*
X266849140Y-44284000D01*
X239205380Y-46539000D02*
X237303190Y-46539000D01*
X292748000Y-47502570D02*
X290882430Y-45637000D01*
X246825380Y-46539000D02*
X244923190Y-46539000D01*
X244923190Y-46539000D02*
X244472190Y-46990000D01*
X266958570Y-46088000D02*
X247276380Y-46088000D01*
X267409570Y-45637000D02*
X266958570Y-46088000D01*
X247276380Y-46088000D02*
X246825380Y-46539000D01*
X242570000Y-46990000D02*
X241300000Y-48260000D01*
X291602720Y-66040000D02*
X292748000Y-64894720D01*
X289560000Y-66040000D02*
X291602720Y-66040000D01*
X290882430Y-45637000D02*
X267409570Y-45637000D01*
X292748000Y-64894720D02*
X292748000Y-47502570D01*
X244472190Y-46990000D02*
X242570000Y-46990000D01*
X285299000Y-55434620D02*
X281198380Y-51334000D01*
X285299000Y-56701810D02*
X285299000Y-55434620D01*
X259614000Y-51334000D02*
X256540000Y-48260000D01*
X287020000Y-58420000D02*
X287020000Y-58422810D01*
X287020000Y-58422810D02*
X285299000Y-56701810D01*
X281198380Y-51334000D02*
X259614000Y-51334000D01*
X274320000Y-55880000D02*
X271780000Y-55880000D01*
X255874101Y-61684999D02*
X255874102Y-61685000D01*
X264885000Y-61685000D02*
X266700000Y-63500000D01*
X255874102Y-61685000D02*
X264885000Y-61685000D01*
X243840000Y-88900000D02*
X246380000Y-88900000D01*
X241300000Y-78740000D02*
X251460000Y-78740000D01*
X238760000Y-76200000D02*
X241300000Y-78740000D01*
X251460000Y-78740000D02*
X254000000Y-81280000D01*
X269240000Y-88900000D02*
X267970000Y-90170000D01*
X255270000Y-90170000D02*
X254000000Y-88900000D01*
X267970000Y-90170000D02*
X255270000Y-90170000D01*
X273558000Y-90678000D02*
X253238000Y-90678000D01*
X276860000Y-93980000D02*
X273558000Y-90678000D01*
X253238000Y-90678000D02*
X251460000Y-88900000D01*
X118410720Y-61940000D02*
X119343720Y-61007000D01*
X135884380Y-61976000D02*
X136906000Y-61976000D01*
X119343720Y-61007000D02*
X130219190Y-61007000D01*
X136906000Y-61976000D02*
X143510000Y-68580000D01*
X110200000Y-61940000D02*
X118410720Y-61940000D01*
X130219190Y-61007000D02*
X130942095Y-61729905D01*
X105410000Y-57150000D02*
X110200000Y-61940000D01*
X135638285Y-61729905D02*
X135884380Y-61976000D01*
X130942095Y-61729905D02*
X135638285Y-61729905D01*
X200660000Y-77978000D02*
X189738000Y-77978000D01*
X182828620Y-66859000D02*
X176981000Y-66859000D01*
X176981000Y-66859000D02*
X175260000Y-68580000D01*
X183901620Y-65786000D02*
X182828620Y-66859000D01*
X189738000Y-77978000D02*
X189230000Y-77470000D01*
X191262000Y-65786000D02*
X183901620Y-65786000D01*
X282820000Y-104580000D02*
X282820000Y-99577000D01*
M02*
